{
copyright = "2018 - Sebastien Riollier";
customParameters = (
{
name = description;
value = "La famille Compagnon a ete developpee dans le cadre du cours de typographie de Benjamin Gomez (EESAB Rennes)";
}
);
date = "2018-07-07 13:22:53 +0000";
designer = "Sebastien Riollier";
designerURL = "s.riollier@gmail.com";
familyName = "Compagnon";
fontMaster = (
{
alignmentZones = (
"{590, 13}",
"{430, 13}",
"{0, -13}",
"{-160, -13}"
);
ascender = 590;
capHeight = 700;
descender = "-160";
id = "220D0E0B-3E90-41D6-A266-882B21BA5595";
userData = {
GSCornerRadius = 3;
GSOffsetHorizontal = "-10";
GSOffsetProportional = 1;
GSOffsetVertical = 20;
GSRoughenHorizontal = 50;
GSRoughenSegmentLength = 2;
GSRoughenVertical = 1;
};
weight = Bold;
weightValue = 90;
widthValue = 600;
xHeight = 430;
}
);
glyphs = (
{
glyphname = A;
lastChange = "2018-06-11 00:11:37 +0200";
layers = (
{
associatedMasterId = "220D0E0B-3E90-41D6-A266-882B21BA5595";
layerId = "DFE8F7EC-62E1-4714-AC20-5817034F21DE";
width = 600;
},
{
associatedMasterId = "220D0E0B-3E90-41D6-A266-882B21BA5595";
layerId = "9CD47536-C756-4DDB-8E2F-C8C920111BDE";
paths = (
{
closed = 1;
nodes = (
"311 590 LINE",
"216 590 LINE",
"58 1 LINE",
"153 1 LINE"
);
},
{
closed = 1;
nodes = (
"369 590 LINE",
"229 590 LINE",
"229 500 LINE",
"369 500 LINE"
);
},
{
closed = 1;
nodes = (
"539 1 LINE",
"381 590 LINE",
"286 590 LINE",
"444 1 LINE"
);
},
{
closed = 1;
nodes = (
"185 180 LINE",
"423 180 LINE",
"423 270 LINE",
"185 270 LINE"
);
}
);
width = 600;
},
{
associatedMasterId = "220D0E0B-3E90-41D6-A266-882B21BA5595";
layerId = "15D707B6-8190-490C-ACAC-05E8DD9241BD";
paths = (
{
closed = 1;
nodes = (
"293 590 LINE",
"190 590 LINE",
"52 1 LINE",
"155 1 LINE"
);
},
{
closed = 1;
nodes = (
"383 590 LINE",
"223 590 LINE",
"223 495 LINE",
"383 495 LINE"
);
},
{
closed = 1;
nodes = (
"553 1 LINE",
"415 590 LINE",
"312 590 LINE",
"450 1 LINE"
);
},
{
closed = 1;
nodes = (
"179 175 LINE",
"437 175 LINE",
"437 270 LINE",
"179 270 LINE"
);
}
);
width = 600;
},
{
associatedMasterId = "220D0E0B-3E90-41D6-A266-882B21BA5595";
layerId = "57F48797-4A8D-4D8A-BAAC-02922867E5BF";
paths = (
{
closed = 1;
nodes = (
"458 1 LINE",
"561 1 LINE",
"397 590 LINE",
"208 590 LINE",
"44 1 LINE",
"147 1 LINE",
"291 500 LINE",
"314 500 LINE"
);
},
{
closed = 1;
nodes = (
"179 175 LINE",
"437 175 LINE",
"437 260 LINE",
"179 260 LINE"
);
}
);
width = 600;
},
{
anchors = (
{
name = top;
position = "{300, 599}";
}
);
layerId = "220D0E0B-3E90-41D6-A266-882B21BA5595";
name = Bold;
paths = (
{
closed = 1;
nodes = (
"455 1 LINE",
"558 1 LINE",
"394 590 LINE",
"205 590 LINE",
"41 1 LINE",
"144 1 LINE",
"182.092 133 LINE",
"416.908 133 LINE"
);
},
{
closed = 1;
nodes = (
"206.621 218 LINE",
"288 500 LINE",
"311 500 LINE",
"392.379 218 LINE"
);
}
);
width = 600;
}
);
unicode = 0041;
},
{
glyphname = AE;
lastChange = "2018-06-11 00:11:37 +0200";
layers = (
{
layerId = "220D0E0B-3E90-41D6-A266-882B21BA5595";
name = Bold;
paths = (
{
closed = 1;
nodes = (
"598 501 LINE",
"598 591 LINE",
"182 591 LINE",
"3 0 LINE",
"106 0 LINE",
"144 133 LINE",
"265 133 LINE",
"265 0 LINE",
"598 0 LINE",
"598 90 LINE",
"365 90 LINE",
"365 255 LINE",
"549 255 LINE",
"549 345 LINE",
"365 345 LINE",
"365 501 LINE"
);
},
{
closed = 1;
nodes = (
"169 218 LINE",
"253 501 LINE",
"265 501 LINE",
"265 218 LINE"
);
}
);
width = 600;
},
{
associatedMasterId = "220D0E0B-3E90-41D6-A266-882B21BA5595";
layerId = "B23A5D54-98FC-4B25-92A5-53F5D470D9AD";
paths = (
{
closed = 1;
nodes = (
"275 1 LINE",
"378 1 LINE",
"214 590 LINE",
"25 590 LINE",
"-139 1 LINE",
"-36 1 LINE",
"2 133 LINE",
"237 133 LINE"
);
},
{
closed = 1;
nodes = (
"27 218 LINE",
"108 500 LINE",
"131 500 LINE",
"212 218 LINE"
);
},
{
closed = 1;
nodes = (
"711 501 LINE",
"711 591 LINE",
"275 591 LINE",
"275 1 LINE",
"711 1 LINE",
"711 91 LINE",
"375 91 LINE",
"375 255 LINE",
"662 255 LINE",
"662 345 LINE",
"375 345 LINE",
"375 501 LINE"
);
}
);
width = 600;
}
);
unicode = 00C6;
},
{
glyphname = B;
lastChange = "2018-06-11 00:11:37 +0200";
layers = (
{
anchors = (
{
name = top;
position = "{272, 600}";
}
);
layerId = "220D0E0B-3E90-41D6-A266-882B21BA5595";
name = Bold;
paths = (
{
closed = 1;
nodes = (
"52 590 LINE",
"52 0 LINE",
"343 0 LINE SMOOTH",
"480 0 OFFCURVE",
"549 64 OFFCURVE",
"549 170 CURVE SMOOTH",
"549 240 OFFCURVE",
"508 291 OFFCURVE",
"430 300 CURVE",
"430 303 LINE",
"497 314 OFFCURVE",
"532 361 OFFCURVE",
"532 437 CURVE SMOOTH",
"532 539 OFFCURVE",
"455 590 OFFCURVE",
"333 590 CURVE SMOOTH"
);
},
{
closed = 1;
nodes = (
"333 500 LINE SMOOTH",
"403 500 OFFCURVE",
"430 473 OFFCURVE",
"430 423 CURVE SMOOTH",
"430 368 OFFCURVE",
"391 340 OFFCURVE",
"327 340 CURVE SMOOTH",
"152 340 LINE",
"152 500 LINE"
);
},
{
closed = 1;
nodes = (
"346 252 LINE SMOOTH",
"405 252 OFFCURVE",
"446 232 OFFCURVE",
"445 177 CURVE SMOOTH",
"444 122 OFFCURVE",
"410 90 OFFCURVE",
"341 90 CURVE SMOOTH",
"152 90 LINE",
"152 252 LINE"
);
}
);
width = 600;
},
{
associatedMasterId = "220D0E0B-3E90-41D6-A266-882B21BA5595";
layerId = "DFE8F7EC-62E1-4714-AC20-5817034F21DE";
width = 600;
},
{
associatedMasterId = "220D0E0B-3E90-41D6-A266-882B21BA5595";
layerId = "B092D0C3-BE87-4E18-AA72-DC8E8E18D13B";
paths = (
{
closed = 1;
nodes = (
"73 0 LINE",
"163 0 LINE",
"163 590 LINE",
"73 590 LINE"
);
},
{
closed = 1;
nodes = (
"94 500 LINE",
"304 500 LINE",
"304 590 LINE",
"94 590 LINE"
);
},
{
closed = 1;
nodes = (
"541 422 LINE",
"541 539 OFFCURVE",
"469 590 OFFCURVE",
"302 590 CURVE",
"302 500 LINE",
"405 500 OFFCURVE",
"451 479 OFFCURVE",
"451 423 CURVE"
);
},
{
closed = 1;
nodes = (
"451 368 OFFCURVE",
"404 347 OFFCURVE",
"301 349 CURVE",
"299 259 LINE",
"466 256 OFFCURVE",
"541 305 OFFCURVE",
"541 422 CURVE",
"451 423 LINE"
);
},
{
closed = 1;
nodes = (
"85 259 LINE",
"304 259 LINE",
"304 349 LINE",
"85 349 LINE"
);
},
{
closed = 1;
nodes = (
"117 259 LINE",
"327 259 LINE",
"327 349 LINE",
"117 349 LINE"
);
},
{
closed = 1;
nodes = (
"564 175 LINE",
"564 292 OFFCURVE",
"489 349 OFFCURVE",
"325 349 CURVE",
"325 259 LINE",
"428 259 OFFCURVE",
"474 241 OFFCURVE",
"474 176 CURVE"
);
},
{
closed = 1;
nodes = (
"474 111 OFFCURVE",
"427 88 OFFCURVE",
"324 90 CURVE",
"322 0 LINE",
"489 -3 OFFCURVE",
"564 58 OFFCURVE",
"564 175 CURVE",
"474 176 LINE"
);
},
{
closed = 1;
nodes = (
"108 0 LINE",
"327 0 LINE",
"327 90 LINE",
"108 90 LINE"
);
}
);
width = 600;
},
{
associatedMasterId = "220D0E0B-3E90-41D6-A266-882B21BA5595";
layerId = "B15EF754-2396-46EA-BE4F-2DC3ED1A196B";
paths = (
{
closed = 1;
nodes = (
"68 590 LINE",
"68 0 LINE",
"317 0 LINE SMOOTH",
"484 -3 OFFCURVE",
"559 61 OFFCURVE",
"559 175 CURVE SMOOTH",
"559 261 OFFCURVE",
"506 288 OFFCURVE",
"486 308 CURVE",
"504 332 OFFCURVE",
"536 372 OFFCURVE",
"536 422 CURVE SMOOTH",
"536 536 OFFCURVE",
"465 590 OFFCURVE",
"299 590 CURVE SMOOTH"
);
},
{
closed = 1;
nodes = (
"215 496 OFFCURVE",
"261 498 OFFCURVE",
"297 498 CURVE SMOOTH",
"406 498 OFFCURVE",
"448 476 OFFCURVE",
"448 423 CURVE SMOOTH",
"448 364 OFFCURVE",
"403 346 OFFCURVE",
"300 346 CURVE",
"158 346 LINE",
"158 496 LINE"
);
},
{
closed = 1;
nodes = (
"158 90 LINE",
"158 259 LINE",
"297 259 LINE SMOOTH",
"427 259 OFFCURVE",
"473 246 OFFCURVE",
"472 174 CURVE SMOOTH",
"471 108 OFFCURVE",
"423 88 OFFCURVE",
"322 90 CURVE SMOOTH"
);
}
);
width = 600;
},
{
associatedMasterId = "220D0E0B-3E90-41D6-A266-882B21BA5595";
layerId = "BDD791F7-604A-43F4-8315-B73F1FBE6B9A";
paths = (
{
closed = 1;
nodes = (
"58 590 LINE",
"58 0 LINE",
"317 0 LINE SMOOTH",
"464 0 OFFCURVE",
"562 35 OFFCURVE",
"562 175 CURVE SMOOTH",
"562 293 OFFCURVE",
"463 308 OFFCURVE",
"466 308 CURVE",
"466 308 OFFCURVE",
"541 332 OFFCURVE",
"541 432 CURVE SMOOTH",
"541 556 OFFCURVE",
"465 590 OFFCURVE",
"299 590 CURVE SMOOTH"
);
},
{
closed = 1;
nodes = (
"269 495 LINE",
"356 495 OFFCURVE",
"444 502 OFFCURVE",
"444 432 CURVE SMOOTH",
"444 354 OFFCURVE",
"376 348 OFFCURVE",
"272 348 CURVE",
"158 348 LINE",
"158 495 LINE"
);
},
{
closed = 1;
nodes = (
"158 95 LINE",
"158 256 LINE",
"280 256 LINE SMOOTH",
"426 256 OFFCURVE",
"468 237 OFFCURVE",
"467 175 CURVE SMOOTH",
"466 107 OFFCURVE",
"400 95 OFFCURVE",
"280 95 CURVE SMOOTH"
);
}
);
width = 600;
},
{
associatedMasterId = "220D0E0B-3E90-41D6-A266-882B21BA5595";
layerId = "145256D9-AA65-4430-843C-7B8ADD21E205";
paths = (
{
closed = 1;
nodes = (
"58 590 LINE",
"58 0 LINE",
"317 0 LINE SMOOTH",
"434 0 OFFCURVE",
"562 33 OFFCURVE",
"562 175 CURVE SMOOTH",
"562 293 OFFCURVE",
"461 307 OFFCURVE",
"464 307 CURVE",
"464 307 OFFCURVE",
"539 335 OFFCURVE",
"539 439 CURVE SMOOTH",
"539 562 OFFCURVE",
"440 590 OFFCURVE",
"299 590 CURVE SMOOTH"
);
},
{
closed = 1;
nodes = (
"347 495 OFFCURVE",
"446 494 OFFCURVE",
"446 424 CURVE SMOOTH",
"446 347 OFFCURVE",
"353 348 OFFCURVE",
"158 348 CURVE",
"158 495 LINE"
);
},
{
closed = 1;
nodes = (
"398 255 OFFCURVE",
"468 254 OFFCURVE",
"467 175 CURVE SMOOTH",
"466 96 OFFCURVE",
"398 95 OFFCURVE",
"158 95 CURVE",
"158 255 LINE"
);
}
);
width = 600;
}
);
unicode = 0042;
},
{
glyphname = C;
lastChange = "2018-06-11 00:11:37 +0200";
layers = (
{
associatedMasterId = "220D0E0B-3E90-41D6-A266-882B21BA5595";
layerId = "AC8954E1-6CFA-4D55-934C-D2985C68771E";
paths = (
{
closed = 1;
nodes = (
"447 633 OFFCURVE",
"334 665 OFFCURVE",
"276 665 CURVE SMOOTH",
"195 665 OFFCURVE",
"57 566 OFFCURVE",
"57 348 CURVE SMOOTH",
"57 130 OFFCURVE",
"188 32 OFFCURVE",
"296 32 CURVE SMOOTH",
"446 32 OFFCURVE",
"533 130 OFFCURVE",
"534 348 CURVE",
"585 322 LINE",
"585 89 OFFCURVE",
"474 -20 OFFCURVE",
"297 -20 CURVE SMOOTH",
"161 -20 OFFCURVE",
"7 102 OFFCURVE",
"7 348 CURVE SMOOTH",
"7 594 OFFCURVE",
"148 714 OFFCURVE",
"276 714 CURVE SMOOTH",
"352 714 OFFCURVE",
"500 674 OFFCURVE",
"500 507 CURVE SMOOTH",
"500 471 OFFCURVE",
"470 450 OFFCURVE",
"445 450 CURVE SMOOTH",
"419 450 OFFCURVE",
"399 470 OFFCURVE",
"399 496 CURVE SMOOTH",
"399 519 OFFCURVE",
"421 543 OFFCURVE",
"451 532 CURVE"
);
}
);
width = 600;
},
{
layerId = "220D0E0B-3E90-41D6-A266-882B21BA5595";
name = Bold;
paths = (
{
closed = 1;
nodes = (
"559 403 LINE",
"551 534 OFFCURVE",
"483 603 OFFCURVE",
"308 603 CURVE SMOOTH",
"29 603 OFFCURVE",
"40 411 OFFCURVE",
"40 302 CURVE SMOOTH",
"40 90 OFFCURVE",
"99 -13 OFFCURVE",
"308 -13 CURVE SMOOTH",
"483 -13 OFFCURVE",
"551 56 OFFCURVE",
"559 187 CURVE",
"459 187 LINE",
"456 125 OFFCURVE",
"426 77 OFFCURVE",
"308 77 CURVE SMOOTH",
"149 77 OFFCURVE",
"140 168 OFFCURVE",
"140 302 CURVE SMOOTH",
"140 445 OFFCURVE",
"147 513 OFFCURVE",
"308 513 CURVE SMOOTH",
"426 513 OFFCURVE",
"456 465 OFFCURVE",
"459 403 CURVE"
);
}
);
width = 600;
},
{
associatedMasterId = "220D0E0B-3E90-41D6-A266-882B21BA5595";
layerId = "DFE8F7EC-62E1-4714-AC20-5817034F21DE";
width = 600;
},
{
associatedMasterId = "220D0E0B-3E90-41D6-A266-882B21BA5595";
layerId = "C9AE1D4B-0501-42A5-9917-E698CF00CB89";
paths = (
{
closed = 1;
nodes = (
"63 228 LINE",
"63 62 OFFCURVE",
"109 0 OFFCURVE",
"305 0 CURVE SMOOTH",
"460 0 OFFCURVE",
"521 39 OFFCURVE",
"540 137 CURVE",
"446 137 LINE",
"430 98 OFFCURVE",
"392 85 OFFCURVE",
"305 85 CURVE SMOOTH",
"169 85 OFFCURVE",
"153 117 OFFCURVE",
"153 228 CURVE"
);
},
{
closed = 1;
nodes = (
"153 362 LINE",
"153 473 OFFCURVE",
"169 505 OFFCURVE",
"305 505 CURVE SMOOTH",
"414 505 OFFCURVE",
"446 485 OFFCURVE",
"454 420 CURVE",
"545 420 LINE",
"533 543 OFFCURVE",
"476 590 OFFCURVE",
"305 590 CURVE SMOOTH",
"109 590 OFFCURVE",
"63 528 OFFCURVE",
"63 362 CURVE"
);
},
{
closed = 1;
nodes = (
"62 207 LINE",
"153 207 LINE",
"153 362 LINE",
"62 362 LINE"
);
}
);
width = 600;
},
{
associatedMasterId = "220D0E0B-3E90-41D6-A266-882B21BA5595";
layerId = "A88EB2C7-749C-4580-9E42-E895E77A0423";
paths = (
{
closed = 1;
nodes = (
"457 228 LINE",
"457 117 OFFCURVE",
"441 85 OFFCURVE",
"305 85 CURVE SMOOTH",
"169 85 OFFCURVE",
"153 117 OFFCURVE",
"153 228 CURVE SMOOTH",
"153 362 LINE SMOOTH",
"153 473 OFFCURVE",
"169 505 OFFCURVE",
"305 505 CURVE SMOOTH",
"441 505 OFFCURVE",
"457 473 OFFCURVE",
"457 362 CURVE",
"547 362 LINE",
"547 528 OFFCURVE",
"501 590 OFFCURVE",
"305 590 CURVE SMOOTH",
"109 590 OFFCURVE",
"63 528 OFFCURVE",
"63 362 CURVE SMOOTH",
"63 228 LINE SMOOTH",
"63 62 OFFCURVE",
"109 0 OFFCURVE",
"305 0 CURVE SMOOTH",
"501 0 OFFCURVE",
"547 62 OFFCURVE",
"547 228 CURVE"
);
}
);
width = 600;
},
{
associatedMasterId = "220D0E0B-3E90-41D6-A266-882B21BA5595";
layerId = "3D8C3620-79C2-415E-8A4E-E6BA6809C8DC";
paths = (
{
closed = 1;
nodes = (
"465 206 LINE",
"454 125 OFFCURVE",
"420 95 OFFCURVE",
"305 95 CURVE SMOOTH",
"149 95 OFFCURVE",
"143 151 OFFCURVE",
"143 314 CURVE SMOOTH",
"143 435 OFFCURVE",
"149 495 OFFCURVE",
"305 495 CURVE SMOOTH",
"436 495 OFFCURVE",
"462 453 OFFCURVE",
"468 368 CURVE",
"562 368 LINE",
"552 518 OFFCURVE",
"490 590 OFFCURVE",
"305 590 CURVE SMOOTH",
"99 590 OFFCURVE",
"48 501 OFFCURVE",
"48 315 CURVE SMOOTH",
"48 91 OFFCURVE",
"99 0 OFFCURVE",
"305 0 CURVE SMOOTH",
"474 0 OFFCURVE",
"540 61 OFFCURVE",
"558 206 CURVE"
);
}
);
width = 600;
},
{
associatedMasterId = "220D0E0B-3E90-41D6-A266-882B21BA5595";
layerId = "B4033D56-8A64-4F20-AA5F-625AD93929CF";
paths = (
{
closed = 1;
nodes = (
"464 200 LINE",
"452 126 OFFCURVE",
"416 99 OFFCURVE",
"305 99 CURVE SMOOTH",
"149 99 OFFCURVE",
"143 151 OFFCURVE",
"143 314 CURVE SMOOTH",
"143 435 OFFCURVE",
"149 491 OFFCURVE",
"305 491 CURVE SMOOTH",
"414 491 OFFCURVE",
"451 464 OFFCURVE",
"463 406 CURVE",
"563 406 LINE",
"543 530 OFFCURVE",
"474 591 OFFCURVE",
"305 591 CURVE SMOOTH",
"99 591 OFFCURVE",
"43 501 OFFCURVE",
"43 315 CURVE SMOOTH",
"43 91 OFFCURVE",
"99 -1 OFFCURVE",
"305 -1 CURVE SMOOTH",
"471 -1 OFFCURVE",
"541 59 OFFCURVE",
"562 200 CURVE"
);
}
);
width = 600;
},
{
associatedMasterId = "220D0E0B-3E90-41D6-A266-882B21BA5595";
layerId = "F08CD69B-19F2-48AE-B477-58807F0AAA8F";
paths = (
{
closed = 1;
nodes = (
"461 207 LINE",
"461 143 OFFCURVE",
"413 99 OFFCURVE",
"302 99 CURVE SMOOTH",
"146 99 OFFCURVE",
"140 151 OFFCURVE",
"140 314 CURVE SMOOTH",
"140 435 OFFCURVE",
"146 491 OFFCURVE",
"302 491 CURVE SMOOTH",
"411 491 OFFCURVE",
"460 450 OFFCURVE",
"460 386 CURVE",
"560 386 LINE",
"560 527 OFFCURVE",
"471 591 OFFCURVE",
"302 591 CURVE SMOOTH",
"96 591 OFFCURVE",
"40 501 OFFCURVE",
"40 315 CURVE SMOOTH",
"40 91 OFFCURVE",
"96 -1 OFFCURVE",
"302 -1 CURVE SMOOTH",
"468 -1 OFFCURVE",
"559 66 OFFCURVE",
"559 207 CURVE"
);
}
);
width = 600;
}
);
unicode = 0043;
},
{
glyphname = D;
lastChange = "2018-06-11 00:11:37 +0200";
layers = (
{
associatedMasterId = "220D0E0B-3E90-41D6-A266-882B21BA5595";
layerId = "A45DB770-464E-45FE-9BF9-5274B5C05A4F";
paths = (
{
closed = 1;
nodes = (
"63 0 LINE",
"153 0 LINE",
"153 590 LINE",
"63 590 LINE"
);
},
{
closed = 1;
nodes = (
"541 511 OFFCURVE",
"398 590 OFFCURVE",
"127 590 CURVE",
"127 500 LINE",
"337 500 OFFCURVE",
"457 458 OFFCURVE",
"457 313 CURVE SMOOTH",
"457 153 OFFCURVE",
"356 80 OFFCURVE",
"131 90 CURVE",
"131 0 LINE",
"432 -4 OFFCURVE",
"541 88 OFFCURVE",
"547 309 CURVE"
);
}
);
width = 600;
},
{
associatedMasterId = "220D0E0B-3E90-41D6-A266-882B21BA5595";
layerId = "DFE8F7EC-62E1-4714-AC20-5817034F21DE";
width = 600;
},
{
associatedMasterId = "220D0E0B-3E90-41D6-A266-882B21BA5595";
layerId = "D0B9F14D-C3BC-4317-94EA-C125053FBC3B";
paths = (
{
closed = 1;
nodes = (
"302 500 LINE",
"438 500 OFFCURVE",
"454 473 OFFCURVE",
"454 362 CURVE",
"544 362 LINE",
"544 528 OFFCURVE",
"498 590 OFFCURVE",
"302 590 CURVE"
);
},
{
closed = 1;
nodes = (
"302 0 LINE",
"498 0 OFFCURVE",
"544 62 OFFCURVE",
"544 228 CURVE",
"454 228 LINE",
"454 117 OFFCURVE",
"438 90 OFFCURVE",
"302 90 CURVE"
);
},
{
closed = 1;
nodes = (
"545 383 LINE",
"454 383 LINE",
"454 228 LINE",
"545 228 LINE"
);
},
{
closed = 1;
nodes = (
"73 0 LINE",
"163 0 LINE",
"163 590 LINE",
"73 590 LINE"
);
},
{
closed = 1;
nodes = (
"94 0 LINE",
"306 0 LINE",
"306 90 LINE",
"94 90 LINE"
);
},
{
closed = 1;
nodes = (
"94 500 LINE",
"304 500 LINE",
"304 590 LINE",
"94 590 LINE"
);
}
);
width = 600;
},
{
associatedMasterId = "220D0E0B-3E90-41D6-A266-882B21BA5595";
layerId = "E652177A-E7CB-417D-BB11-1432DACCD428";
width = 600;
},
{
annotations = (
{
position = "{318, 262}";
type = Text;
},
{
position = "{246, 262}";
type = Text;
},
{
position = "{-228, 424}";
type = Text;
}
);
layerId = "220D0E0B-3E90-41D6-A266-882B21BA5595";
name = Bold;
paths = (
{
closed = 1;
nodes = (
"550 488 OFFCURVE",
"479 590 OFFCURVE",
"293 590 CURVE SMOOTH",
"50 590 LINE",
"50 0 LINE",
"295 0 LINE SMOOTH",
"471 0 OFFCURVE",
"550 74 OFFCURVE",
"550 315 CURVE SMOOTH"
);
},
{
closed = 1;
nodes = (
"298 90 CURVE SMOOTH",
"150 90 LINE",
"150 500 LINE",
"298 500 LINE SMOOTH",
"407 500 OFFCURVE",
"450 436 OFFCURVE",
"450 309 CURVE SMOOTH",
"450 143 OFFCURVE",
"406 90 OFFCURVE"
);
}
);
width = 600;
},
{
associatedMasterId = "220D0E0B-3E90-41D6-A266-882B21BA5595";
layerId = "986CC7A7-1055-49C1-BA2F-6459033F4399";
paths = (
{
closed = 1;
nodes = (
"554 488 OFFCURVE",
"490 590 OFFCURVE",
"304 590 CURVE SMOOTH",
"63 590 LINE",
"63 0 LINE",
"306 0 LINE SMOOTH",
"482 0 OFFCURVE",
"554 53 OFFCURVE",
"554 315 CURVE SMOOTH"
);
},
{
closed = 1;
nodes = (
"309 100 CURVE",
"163 100 LINE",
"163 490 LINE",
"223 490 OFFCURVE",
"270 490 OFFCURVE",
"309 490 CURVE SMOOTH",
"426 490 OFFCURVE",
"454 421 OFFCURVE",
"454 309 CURVE SMOOTH",
"454 153 OFFCURVE",
"417 100 OFFCURVE"
);
}
);
width = 600;
},
{
annotations = (
{
position = "{318, 262}";
type = Text;
},
{
position = "{246, 262}";
type = Text;
},
{
position = "{-228, 424}";
type = Text;
}
);
associatedMasterId = "220D0E0B-3E90-41D6-A266-882B21BA5595";
layerId = "D34CCEA0-BD50-4462-8A4C-F6ECFB53F996";
paths = (
{
closed = 1;
nodes = (
"551 488 OFFCURVE",
"480 590 OFFCURVE",
"294 590 CURVE SMOOTH",
"61 590 LINE",
"61 0 LINE",
"296 0 LINE SMOOTH",
"472 0 OFFCURVE",
"551 74 OFFCURVE",
"551 315 CURVE SMOOTH"
);
},
{
closed = 1;
nodes = (
"299 90 CURVE SMOOTH",
"161 90 LINE",
"161 500 LINE",
"299 500 LINE SMOOTH",
"408 500 OFFCURVE",
"451 436 OFFCURVE",
"451 309 CURVE SMOOTH",
"451 143 OFFCURVE",
"407 90 OFFCURVE"
);
}
);
width = 600;
}
);
unicode = 0044;
},
{
glyphname = E;
lastChange = "2018-06-11 00:11:37 +0200";
layers = (
{
anchors = (
{
name = top;
position = "{300, 602}";
}
);
layerId = "220D0E0B-3E90-41D6-A266-882B21BA5595";
name = Bold;
paths = (
{
closed = 1;
nodes = (
"518 500 LINE",
"518 590 LINE",
"82 590 LINE",
"82 0 LINE",
"518 0 LINE",
"518 90 LINE",
"182 90 LINE",
"182 254 LINE",
"469 254 LINE",
"469 344 LINE",
"182 344 LINE",
"182 500 LINE"
);
}
);
width = 600;
},
{
associatedMasterId = "220D0E0B-3E90-41D6-A266-882B21BA5595";
guideLines = (
{
angle = 0;
position = "{309, 330}";
},
{
angle = 0;
position = "{292, 223}";
},
{
angle = 270;
position = "{494, 515}";
}
);
layerId = "E077C631-AD59-4505-A9A8-75B64BEA3A6C";
paths = (
{
closed = 1;
nodes = (
"489 49 LINE",
"503 228 LINE",
"551 217 LINE",
"532 0 LINE",
"22 0 LINE",
"22 49 LINE",
"146 49 LINE",
"146 651 LINE",
"22 651 LINE",
"22 700 LINE",
"532 700 LINE",
"551 483 LINE",
"503 472 LINE",
"489 651 LINE",
"196 651 LINE",
"196 379 LINE",
"354 379 LINE",
"354 488 LINE",
"403 488 LINE",
"403 223 LINE",
"354 223 LINE",
"354 329 LINE",
"196 329 LINE",
"196 49 LINE"
);
}
);
width = 600;
},
{
associatedMasterId = "220D0E0B-3E90-41D6-A266-882B21BA5595";
layerId = "DFE8F7EC-62E1-4714-AC20-5817034F21DE";
width = 600;
}
);
unicode = 0045;
},
{
glyphname = F;
lastChange = "2018-06-11 00:11:37 +0200";
layers = (
{
layerId = "220D0E0B-3E90-41D6-A266-882B21BA5595";
name = Bold;
paths = (
{
closed = 1;
nodes = (
"531 495 LINE",
"531 590 LINE",
"68 590 LINE",
"68 0 LINE",
"168 0 LINE",
"168 259 LINE",
"473 259 LINE",
"473 354 LINE",
"168 354 LINE",
"168 495 LINE"
);
}
);
width = 600;
},
{
associatedMasterId = "220D0E0B-3E90-41D6-A266-882B21BA5595";
guideLines = (
{
angle = 270;
position = "{24, 274}";
},
{
angle = 270;
position = "{148, 274}";
}
);
layerId = "5594F6DE-4D38-48D6-9A23-D9CD2885669C";
paths = (
{
closed = 1;
nodes = (
"320 49 LINE",
"320 0 LINE",
"22 0 LINE",
"22 49 LINE",
"146 49 LINE",
"146 651 LINE",
"22 651 LINE",
"22 700 LINE",
"496 700 LINE",
"559 430 LINE",
"512 413 LINE",
"458 651 LINE",
"196 651 LINE",
"196 379 LINE",
"379 379 LINE",
"379 488 LINE",
"428 488 LINE",
"428 223 LINE",
"379 223 LINE",
"379 329 LINE",
"196 329 LINE",
"196 49 LINE"
);
}
);
width = 600;
},
{
associatedMasterId = "220D0E0B-3E90-41D6-A266-882B21BA5595";
guideLines = (
{
angle = 270;
position = "{24, 274}";
},
{
angle = 270;
position = "{148, 274}";
}
);
layerId = "4EBBBFBC-E86B-437A-B96E-F0628FF15F7A";
paths = (
{
closed = 1;
nodes = (
"320 49 LINE",
"320 0 LINE",
"22 0 LINE",
"22 49 LINE",
"146 49 LINE",
"146 651 LINE",
"22 651 LINE",
"22 700 LINE",
"522 700 LINE",
"585 430 LINE",
"538 411 LINE",
"484 651 LINE",
"196 651 LINE",
"196 379 LINE",
"383 379 LINE",
"383 515 LINE",
"432 515 LINE",
"432 190 LINE",
"383 190 LINE",
"383 329 LINE",
"196 329 LINE",
"196 49 LINE"
);
}
);
width = 600;
},
{
associatedMasterId = "220D0E0B-3E90-41D6-A266-882B21BA5595";
layerId = "DFE8F7EC-62E1-4714-AC20-5817034F21DE";
width = 600;
},
{
associatedMasterId = "220D0E0B-3E90-41D6-A266-882B21BA5595";
layerId = "678275BA-CC46-4478-981E-EA0A1A4CEEF5";
paths = (
{
closed = 1;
nodes = (
"82 0 LINE",
"172 0 LINE",
"172 590 LINE",
"82 590 LINE"
);
},
{
closed = 1;
nodes = (
"82 505 LINE",
"512 505 LINE",
"512 590 LINE",
"82 590 LINE"
);
},
{
closed = 1;
nodes = (
"85 264 LINE",
"454 264 LINE",
"454 349 LINE",
"85 349 LINE"
);
}
);
width = 600;
}
);
unicode = 0046;
},
{
glyphname = G;
lastChange = "2018-06-11 00:11:37 +0200";
layers = (
{
associatedMasterId = "220D0E0B-3E90-41D6-A266-882B21BA5595";
layerId = "63928093-8744-4BB6-B000-BC11120CAF2F";
width = 600;
},
{
associatedMasterId = "220D0E0B-3E90-41D6-A266-882B21BA5595";
layerId = "815FCB93-2EFB-46B2-985F-3359D2264A03";
paths = (
{
closed = 1;
nodes = (
"457 228 LINE",
"457 117 OFFCURVE",
"441 85 OFFCURVE",
"305 85 CURVE SMOOTH",
"169 85 OFFCURVE",
"153 117 OFFCURVE",
"153 228 CURVE",
"63 228 LINE",
"63 62 OFFCURVE",
"109 0 OFFCURVE",
"305 0 CURVE SMOOTH",
"501 0 OFFCURVE",
"547 62 OFFCURVE",
"547 228 CURVE"
);
},
{
closed = 1;
nodes = (
"63 228 LINE",
"153 228 LINE",
"153 362 LINE",
"63 362 LINE"
);
},
{
closed = 1;
nodes = (
"545 414 LINE",
"535 541 OFFCURVE",
"479 590 OFFCURVE",
"305 590 CURVE SMOOTH",
"109 590 OFFCURVE",
"63 528 OFFCURVE",
"63 362 CURVE",
"153 362 LINE",
"153 473 OFFCURVE",
"169 505 OFFCURVE",
"305 505 CURVE SMOOTH",
"417 505 OFFCURVE",
"448 483 OFFCURVE",
"455 414 CURVE"
);
},
{
closed = 1;
nodes = (
"236 227 LINE",
"547 227 LINE",
"547 317 LINE",
"236 317 LINE"
);
}
);
width = 600;
},
{
associatedMasterId = "220D0E0B-3E90-41D6-A266-882B21BA5595";
layerId = "DFE8F7EC-62E1-4714-AC20-5817034F21DE";
width = 600;
},
{
associatedMasterId = "220D0E0B-3E90-41D6-A266-882B21BA5595";
layerId = "743E1EC2-3FFF-487D-9C34-0DCDCF6BB5BF";
paths = (
{
closed = 1;
nodes = (
"437 228 LINE",
"437 117 OFFCURVE",
"421 85 OFFCURVE",
"285 85 CURVE SMOOTH",
"149 85 OFFCURVE",
"153 117 OFFCURVE",
"153 228 CURVE",
"63 228 LINE",
"63 62 OFFCURVE",
"89 0 OFFCURVE",
"285 0 CURVE SMOOTH",
"481 0 OFFCURVE",
"527 62 OFFCURVE",
"527 228 CURVE"
);
},
{
closed = 1;
nodes = (
"63 228 LINE",
"153 228 LINE",
"153 362 LINE",
"63 362 LINE"
);
},
{
closed = 1;
nodes = (
"545 414 LINE",
"535 541 OFFCURVE",
"479 590 OFFCURVE",
"305 590 CURVE SMOOTH",
"109 590 OFFCURVE",
"63 528 OFFCURVE",
"63 362 CURVE",
"153 362 LINE",
"153 473 OFFCURVE",
"169 505 OFFCURVE",
"305 505 CURVE SMOOTH",
"417 505 OFFCURVE",
"448 483 OFFCURVE",
"455 414 CURVE"
);
},
{
closed = 1;
nodes = (
"233 223 LINE",
"544 223 LINE",
"544 313 LINE",
"233 313 LINE"
);
},
{
closed = 1;
nodes = (
"454 231 LINE",
"454 0 LINE",
"544 0 LINE",
"544 231 LINE"
);
}
);
width = 600;
},
{
associatedMasterId = "220D0E0B-3E90-41D6-A266-882B21BA5595";
layerId = "DAA448E7-6563-4488-B4E5-E403186BBF05";
paths = (
{
closed = 1;
nodes = (
"437 228 LINE",
"437 117 OFFCURVE",
"421 85 OFFCURVE",
"285 85 CURVE SMOOTH",
"149 85 OFFCURVE",
"153 117 OFFCURVE",
"153 228 CURVE",
"63 228 LINE",
"63 62 OFFCURVE",
"89 0 OFFCURVE",
"285 0 CURVE SMOOTH",
"481 0 OFFCURVE",
"527 62 OFFCURVE",
"527 228 CURVE"
);
},
{
closed = 1;
nodes = (
"63 228 LINE",
"153 228 LINE",
"153 362 LINE",
"63 362 LINE"
);
},
{
closed = 1;
nodes = (
"545 414 LINE",
"535 541 OFFCURVE",
"479 590 OFFCURVE",
"305 590 CURVE SMOOTH",
"109 590 OFFCURVE",
"63 528 OFFCURVE",
"63 362 CURVE",
"153 362 LINE",
"153 473 OFFCURVE",
"169 505 OFFCURVE",
"305 505 CURVE SMOOTH",
"417 505 OFFCURVE",
"448 483 OFFCURVE",
"455 414 CURVE"
);
},
{
closed = 1;
nodes = (
"233 223 LINE",
"544 223 LINE",
"544 313 LINE",
"233 313 LINE"
);
},
{
closed = 1;
nodes = (
"454 231 LINE",
"454 0 LINE",
"544 0 LINE",
"544 231 LINE"
);
}
);
width = 600;
},
{
associatedMasterId = "220D0E0B-3E90-41D6-A266-882B21BA5595";
layerId = "A798A8BC-837B-4240-8EF1-A878573D51C1";
paths = (
{
closed = 1;
nodes = (
"457 228 LINE",
"457 117 OFFCURVE",
"441 85 OFFCURVE",
"305 85 CURVE SMOOTH",
"169 85 OFFCURVE",
"153 117 OFFCURVE",
"153 228 CURVE",
"63 228 LINE",
"63 62 OFFCURVE",
"109 0 OFFCURVE",
"305 0 CURVE SMOOTH",
"501 0 OFFCURVE",
"547 62 OFFCURVE",
"547 228 CURVE"
);
},
{
closed = 1;
nodes = (
"63 228 LINE",
"153 228 LINE",
"153 362 LINE",
"63 362 LINE"
);
},
{
closed = 1;
nodes = (
"545 414 LINE",
"535 541 OFFCURVE",
"479 590 OFFCURVE",
"305 590 CURVE SMOOTH",
"109 590 OFFCURVE",
"63 528 OFFCURVE",
"63 362 CURVE",
"153 362 LINE",
"153 473 OFFCURVE",
"169 505 OFFCURVE",
"305 505 CURVE SMOOTH",
"417 505 OFFCURVE",
"448 483 OFFCURVE",
"455 414 CURVE"
);
},
{
closed = 1;
nodes = (
"236 227 LINE",
"547 227 LINE",
"547 312 LINE",
"236 312 LINE"
);
}
);
width = 600;
},
{
associatedMasterId = "220D0E0B-3E90-41D6-A266-882B21BA5595";
layerId = "E736D358-920D-4779-83ED-C77FD2ED2045";
paths = (
{
closed = 1;
nodes = (
"464 284 LINE",
"462 145 OFFCURVE",
"446 99 OFFCURVE",
"300 99 CURVE SMOOTH",
"144 99 OFFCURVE",
"138 151 OFFCURVE",
"138 314 CURVE SMOOTH",
"138 435 OFFCURVE",
"144 491 OFFCURVE",
"300 491 CURVE SMOOTH",
"404 491 OFFCURVE",
"443 466 OFFCURVE",
"456 413 CURVE",
"541 469 LINE",
"509 551 OFFCURVE",
"437 591 OFFCURVE",
"300 591 CURVE SMOOTH",
"94 591 OFFCURVE",
"38 501 OFFCURVE",
"38 315 CURVE SMOOTH",
"38 91 OFFCURVE",
"94 -1 OFFCURVE",
"300 -1 CURVE SMOOTH",
"496 -1 OFFCURVE",
"558 83 OFFCURVE",
"564 284 CURVE"
);
},
{
closed = 1;
nodes = (
"251 259 LINE",
"562 259 LINE",
"562 354 LINE",
"251 354 LINE"
);
}
);
width = 600;
},
{
associatedMasterId = "220D0E0B-3E90-41D6-A266-882B21BA5595";
layerId = "3EFF51C5-4A36-4591-8FB7-B7CC007D089E";
paths = (
{
closed = 1;
nodes = (
"464 284 LINE",
"462 145 OFFCURVE",
"446 99 OFFCURVE",
"300 99 CURVE SMOOTH",
"144 99 OFFCURVE",
"138 151 OFFCURVE",
"138 314 CURVE SMOOTH",
"138 435 OFFCURVE",
"144 491 OFFCURVE",
"300 491 CURVE SMOOTH",
"404 491 OFFCURVE",
"443 466 OFFCURVE",
"456 413 CURVE",
"541 469 LINE",
"509 551 OFFCURVE",
"437 591 OFFCURVE",
"300 591 CURVE SMOOTH",
"94 591 OFFCURVE",
"38 501 OFFCURVE",
"38 315 CURVE SMOOTH",
"38 91 OFFCURVE",
"94 -1 OFFCURVE",
"300 -1 CURVE SMOOTH",
"496 -1 OFFCURVE",
"558 83 OFFCURVE",
"564 284 CURVE"
);
},
{
closed = 1;
nodes = (
"251 259 LINE",
"562 259 LINE",
"562 354 LINE",
"251 354 LINE"
);
}
);
width = 600;
},
{
associatedMasterId = "220D0E0B-3E90-41D6-A266-882B21BA5595";
layerId = "C9CD2944-EC32-4F06-ABCA-4121658D970A";
paths = (
{
closed = 1;
nodes = (
"251 244 LINE",
"562 244 LINE",
"562 339 LINE",
"251 339 LINE"
);
},
{
closed = 1;
nodes = (
"459 200 LINE",
"447 126 OFFCURVE",
"411 99 OFFCURVE",
"300 99 CURVE SMOOTH",
"144 99 OFFCURVE",
"138 151 OFFCURVE",
"138 314 CURVE SMOOTH",
"138 435 OFFCURVE",
"144 491 OFFCURVE",
"300 491 CURVE SMOOTH",
"409 491 OFFCURVE",
"446 464 OFFCURVE",
"458 406 CURVE",
"558 406 LINE",
"538 530 OFFCURVE",
"469 591 OFFCURVE",
"300 591 CURVE SMOOTH",
"94 591 OFFCURVE",
"38 501 OFFCURVE",
"38 315 CURVE SMOOTH",
"38 91 OFFCURVE",
"94 -1 OFFCURVE",
"300 -1 CURVE SMOOTH",
"466 -1 OFFCURVE",
"536 59 OFFCURVE",
"557 200 CURVE"
);
},
{
closed = 0;
nodes = (
"138 276 LINE"
);
},
{
closed = 1;
nodes = (
"161 259 LINE",
"563 259 LINE",
"563 354 LINE",
"161 354 LINE"
);
}
);
width = 600;
},
{
layerId = "220D0E0B-3E90-41D6-A266-882B21BA5595";
name = Bold;
paths = (
{
closed = 1;
nodes = (
"217 303 LINE",
"217 218 LINE",
"463 218 LINE",
"463 124 OFFCURVE",
"429 77 OFFCURVE",
"312 77 CURVE SMOOTH",
"156 77 OFFCURVE",
"140 139 OFFCURVE",
"140 314 CURVE SMOOTH",
"140 447 OFFCURVE",
"149 513 OFFCURVE",
"308 513 CURVE SMOOTH",
"426 513 OFFCURVE",
"456 465 OFFCURVE",
"459 403 CURVE",
"559 403 LINE",
"551 534 OFFCURVE",
"483 603 OFFCURVE",
"308 603 CURVE SMOOTH",
"99 603 OFFCURVE",
"40 513 OFFCURVE",
"40 315 CURVE SMOOTH",
"40 79 OFFCURVE",
"96 -13 OFFCURVE",
"302 -13 CURVE SMOOTH",
"380 -13 OFFCURVE",
"437 21 OFFCURVE",
"470 84 CURVE",
"473 84 LINE",
"488 0 LINE",
"560 0 LINE",
"560 303 LINE"
);
}
);
width = 600;
},
{
associatedMasterId = "220D0E0B-3E90-41D6-A266-882B21BA5595";
layerId = "A13D0193-083B-4A12-9949-CAC44CC2690C";
paths = (
{
closed = 1;
nodes = (
"212 219 LINE",
"541 219 LINE",
"541 314 LINE",
"212 314 LINE"
);
},
{
closed = 1;
nodes = (
"559 400 LINE",
"541 528 OFFCURVE",
"472 591 OFFCURVE",
"300 591 CURVE SMOOTH",
"94 591 OFFCURVE",
"38 501 OFFCURVE",
"38 315 CURVE SMOOTH",
"38 91 OFFCURVE",
"94 -1 OFFCURVE",
"300 -1 CURVE SMOOTH",
"506 -1 OFFCURVE",
"564 91 OFFCURVE",
"564 315 CURVE",
"464 314 LINE",
"464 151 OFFCURVE",
"456 99 OFFCURVE",
"300 99 CURVE SMOOTH",
"144 99 OFFCURVE",
"138 151 OFFCURVE",
"138 314 CURVE SMOOTH",
"138 435 OFFCURVE",
"144 491 OFFCURVE",
"300 491 CURVE SMOOTH",
"413 491 OFFCURVE",
"448 462 OFFCURVE",
"459 400 CURVE"
);
}
);
width = 600;
},
{
associatedMasterId = "220D0E0B-3E90-41D6-A266-882B21BA5595";
layerId = "EDDFBF48-7CFD-4452-A330-1C883154EAEC";
paths = (
{
closed = 1;
nodes = (
"213 220 LINE",
"541 220 LINE",
"541 305 LINE",
"213 305 LINE"
);
},
{
closed = 1;
nodes = (
"559 412 LINE",
"541 540 OFFCURVE",
"472 603 OFFCURVE",
"300 603 CURVE SMOOTH",
"94 603 OFFCURVE",
"38 513 OFFCURVE",
"38 315 CURVE SMOOTH",
"38 79 OFFCURVE",
"94 -13 OFFCURVE",
"300 -13 CURVE SMOOTH",
"506 -13 OFFCURVE",
"564 70 OFFCURVE",
"564 306 CURVE",
"464 305 LINE",
"464 130 OFFCURVE",
"456 77 OFFCURVE",
"300 77 CURVE SMOOTH",
"144 77 OFFCURVE",
"138 139 OFFCURVE",
"138 314 CURVE SMOOTH",
"138 447 OFFCURVE",
"144 513 OFFCURVE",
"300 513 CURVE SMOOTH",
"413 513 OFFCURVE",
"448 474 OFFCURVE",
"459 412 CURVE"
);
}
);
width = 600;
},
{
associatedMasterId = "220D0E0B-3E90-41D6-A266-882B21BA5595";
layerId = "435039DA-98B2-43D3-AA84-9A70D61A21EB";
paths = (
{
closed = 1;
nodes = (
"215 303 LINE",
"215 218 LINE",
"461 218 LINE",
"461 124 OFFCURVE",
"427 77 OFFCURVE",
"310 77 CURVE SMOOTH",
"154 77 OFFCURVE",
"138 139 OFFCURVE",
"138 314 CURVE SMOOTH",
"138 447 OFFCURVE",
"147 513 OFFCURVE",
"306 513 CURVE SMOOTH",
"424 513 OFFCURVE",
"454 465 OFFCURVE",
"457 403 CURVE",
"557 403 LINE",
"549 534 OFFCURVE",
"481 603 OFFCURVE",
"306 603 CURVE SMOOTH",
"97 603 OFFCURVE",
"38 513 OFFCURVE",
"38 315 CURVE SMOOTH",
"38 79 OFFCURVE",
"94 -13 OFFCURVE",
"300 -13 CURVE SMOOTH",
"378 -13 OFFCURVE",
"430 11 OFFCURVE",
"463 74 CURVE",
"466 74 LINE",
"466 0 LINE",
"558 0 LINE",
"558 303 LINE"
);
}
);
width = 600;
}
);
unicode = 0047;
},
{
glyphname = H;
lastChange = "2018-06-11 00:11:37 +0200";
layers = (
{
layerId = "220D0E0B-3E90-41D6-A266-882B21BA5595";
name = Bold;
paths = (
{
closed = 1;
nodes = (
"64 0 LINE",
"164 0 LINE",
"164 590 LINE",
"64 590 LINE"
);
},
{
closed = 1;
nodes = (
"436 0 LINE",
"536 0 LINE",
"536 590 LINE",
"436 590 LINE"
);
},
{
closed = 1;
nodes = (
"141 236 LINE",
"470 236 LINE",
"470 331 LINE",
"141 331 LINE"
);
}
);
width = 600;
},
{
associatedMasterId = "220D0E0B-3E90-41D6-A266-882B21BA5595";
guideLines = (
{
angle = 90;
position = "{9, 246}";
},
{
angle = 90;
position = "{102, 271}";
}
);
layerId = "FA4965FD-B06E-4E72-BB0E-870CEF5E6651";
paths = (
{
closed = 1;
nodes = (
"244 0 LINE",
"244 49 LINE",
"152 49 LINE",
"152 329 LINE",
"443 329 LINE",
"443 49 LINE",
"351 49 LINE",
"351 0 LINE",
"585 0 LINE",
"585 49 LINE",
"493 49 LINE",
"493 651 LINE",
"585 651 LINE",
"585 700 LINE",
"351 700 LINE",
"351 651 LINE",
"443 651 LINE",
"443 379 LINE",
"152 379 LINE",
"152 651 LINE",
"244 651 LINE",
"244 700 LINE",
"9 700 LINE",
"9 651 LINE",
"102 651 LINE",
"102 49 LINE",
"9 49 LINE",
"9 0 LINE"
);
}
);
width = 600;
},
{
associatedMasterId = "220D0E0B-3E90-41D6-A266-882B21BA5595";
layerId = "DFE8F7EC-62E1-4714-AC20-5817034F21DE";
width = 600;
}
);
unicode = 0048;
},
{
glyphname = I;
lastChange = "2018-06-11 00:11:37 +0200";
layers = (
{
anchors = (
{
name = top;
position = "{300, 594}";
}
);
layerId = "220D0E0B-3E90-41D6-A266-882B21BA5595";
name = Bold;
paths = (
{
closed = 1;
nodes = (
"251 0 LINE",
"351 0 LINE",
"351 590 LINE",
"251 590 LINE"
);
},
{
closed = 1;
nodes = (
"72 505 LINE",
"529 505 LINE",
"529 590 LINE",
"72 590 LINE"
);
},
{
closed = 1;
nodes = (
"72 0 LINE",
"529 0 LINE",
"529 85 LINE",
"72 85 LINE"
);
}
);
width = 600;
},
{
associatedMasterId = "220D0E0B-3E90-41D6-A266-882B21BA5595";
layerId = "DFE8F7EC-62E1-4714-AC20-5817034F21DE";
width = 600;
}
);
unicode = 0049;
},
{
glyphname = J;
lastChange = "2018-06-11 00:11:37 +0200";
layers = (
{
associatedMasterId = "220D0E0B-3E90-41D6-A266-882B21BA5595";
layerId = "208536BE-69EB-4ED4-BC1B-A5300DC0925E";
paths = (
{
closed = 1;
nodes = (
"452 228 LINE",
"452 117 OFFCURVE",
"427 90 OFFCURVE",
"300 90 CURVE SMOOTH",
"175 90 OFFCURVE",
"148 117 OFFCURVE",
"148 228 CURVE",
"58 228 LINE",
"58 62 OFFCURVE",
"114 0 OFFCURVE",
"300 0 CURVE SMOOTH",
"486 0 OFFCURVE",
"542 62 OFFCURVE",
"542 228 CURVE"
);
},
{
closed = 1;
nodes = (
"452 227 LINE",
"542 227 LINE",
"542 590 LINE",
"452 590 LINE"
);
}
);
width = 600;
},
{
associatedMasterId = "220D0E0B-3E90-41D6-A266-882B21BA5595";
layerId = "DFE8F7EC-62E1-4714-AC20-5817034F21DE";
width = 600;
},
{
associatedMasterId = "220D0E0B-3E90-41D6-A266-882B21BA5595";
layerId = "2D64795D-7C33-4D09-80E6-C3CCAD614E67";
paths = (
{
closed = 1;
nodes = (
"452 228 LINE",
"452 117 OFFCURVE",
"427 90 OFFCURVE",
"300 90 CURVE SMOOTH",
"175 90 OFFCURVE",
"148 117 OFFCURVE",
"148 228 CURVE",
"58 228 LINE",
"58 62 OFFCURVE",
"114 0 OFFCURVE",
"300 0 CURVE SMOOTH",
"486 0 OFFCURVE",
"542 62 OFFCURVE",
"542 228 CURVE"
);
},
{
closed = 1;
nodes = (
"452 227 LINE",
"542 227 LINE",
"542 590 LINE",
"452 590 LINE"
);
}
);
width = 600;
},
{
associatedMasterId = "220D0E0B-3E90-41D6-A266-882B21BA5595";
layerId = "758B1D7E-10AB-4640-8D71-2A6038BABDC1";
paths = (
{
closed = 1;
nodes = (
"452 228 LINE",
"452 117 OFFCURVE",
"427 90 OFFCURVE",
"300 90 CURVE SMOOTH",
"175 90 OFFCURVE",
"148 117 OFFCURVE",
"148 228 CURVE",
"58 228 LINE",
"58 62 OFFCURVE",
"114 0 OFFCURVE",
"300 0 CURVE SMOOTH",
"486 0 OFFCURVE",
"542 62 OFFCURVE",
"542 228 CURVE"
);
},
{
closed = 1;
nodes = (
"452 227 LINE",
"542 227 LINE",
"542 590 LINE",
"452 590 LINE"
);
}
);
width = 600;
},
{
layerId = "220D0E0B-3E90-41D6-A266-882B21BA5595";
name = Bold;
paths = (
{
closed = 1;
nodes = (
"185 -1 OFFCURVE",
"92 44 OFFCURVE",
"92 44 CURVE",
"126 130 LINE",
"126 130 OFFCURVE",
"190 94 OFFCURVE",
"262 94 CURVE",
"365 94 OFFCURVE",
"410 129 OFFCURVE",
"412 224 CURVE",
"412 499 LINE",
"119 499 LINE",
"119 589 LINE",
"507 589 LINE",
"507 213 LINE",
"507 212 LINE",
"503 48 OFFCURVE",
"380 -1 OFFCURVE",
"264 -1 CURVE"
);
}
);
width = 600;
},
{
associatedMasterId = "220D0E0B-3E90-41D6-A266-882B21BA5595";
layerId = "1535B961-36C1-406A-90ED-687AEECFB402";
paths = (
{
closed = 1;
nodes = (
"227 -1 OFFCURVE",
"105 0 OFFCURVE",
"105 0 CURVE",
"105 90 LINE",
"105 90 OFFCURVE",
"194 88 OFFCURVE",
"230 88 CURVE",
"336 88 OFFCURVE",
"413 126 OFFCURVE",
"415 219 CURVE",
"415 494 LINE",
"122 494 LINE",
"122 589 LINE",
"505 589 LINE",
"505 213 LINE",
"505 212 LINE",
"501 48 OFFCURVE",
"373 -1 OFFCURVE",
"257 -1 CURVE"
);
}
);
width = 600;
},
{
associatedMasterId = "220D0E0B-3E90-41D6-A266-882B21BA5595";
layerId = "6E3A0151-5C3E-4679-A1B5-D8A3270805EC";
paths = (
{
closed = 1;
nodes = (
"227 -1 OFFCURVE",
"105 0 OFFCURVE",
"105 0 CURVE",
"105 95 LINE",
"105 95 OFFCURVE",
"194 95 OFFCURVE",
"230 95 CURVE",
"333 95 OFFCURVE",
"413 129 OFFCURVE",
"415 224 CURVE",
"415 494 LINE",
"122 494 LINE",
"122 589 LINE",
"510 589 LINE",
"510 213 LINE",
"510 212 LINE",
"506 48 OFFCURVE",
"373 -1 OFFCURVE",
"257 -1 CURVE"
);
}
);
width = 600;
}
);
unicode = 004A;
},
{
glyphname = K;
lastChange = "2018-06-11 00:11:37 +0200";
layers = (
{
layerId = "220D0E0B-3E90-41D6-A266-882B21BA5595";
name = Bold;
paths = (
{
closed = 1;
nodes = (
"549 590 LINE",
"434 590 LINE",
"259 323 LINE",
"151 323 LINE",
"151 590 LINE",
"51 590 LINE",
"51 0 LINE",
"151 0 LINE",
"151 238 LINE",
"259 238 LINE",
"427 0 LINE",
"549 0 LINE",
"349 283 LINE"
);
}
);
width = 600;
},
{
associatedMasterId = "220D0E0B-3E90-41D6-A266-882B21BA5595";
layerId = "DFE8F7EC-62E1-4714-AC20-5817034F21DE";
width = 600;
},
{
associatedMasterId = "220D0E0B-3E90-41D6-A266-882B21BA5595";
layerId = "938146DF-155D-45EA-ABB9-6A81432A2C11";
paths = (
{
closed = 1;
nodes = (
"70 0 LINE",
"160 0 LINE",
"160 590 LINE",
"70 590 LINE"
);
},
{
closed = 1;
nodes = (
"106 197 LINE",
"106 51 LINE",
"523 590 LINE SMOOTH",
"410 590 LINE SMOOTH"
);
},
{
closed = 1;
nodes = (
"455 -1 LINE",
"560 0 LINE",
"333 343 LINE",
"228 343 LINE"
);
}
);
width = 600;
},
{
associatedMasterId = "220D0E0B-3E90-41D6-A266-882B21BA5595";
layerId = "6C49799C-E59B-4F63-B4A9-4AB70F82E96F";
paths = (
{
closed = 1;
nodes = (
"70 0 LINE",
"160 0 LINE",
"160 590 LINE",
"70 590 LINE"
);
},
{
closed = 1;
nodes = (
"106 197 LINE",
"106 64 LINE",
"546 590 LINE SMOOTH",
"433 590 LINE SMOOTH"
);
},
{
closed = 1;
nodes = (
"455 -1 LINE",
"560 0 LINE",
"333 343 LINE",
"228 343 LINE"
);
}
);
width = 600;
},
{
associatedMasterId = "220D0E0B-3E90-41D6-A266-882B21BA5595";
layerId = "25D5545C-FFC6-4002-9FAB-ADF6DB9E0309";
paths = (
{
closed = 1;
nodes = (
"562 590 LINE",
"447 590 LINE",
"274 328 LINE",
"164 328 LINE",
"164 590 LINE",
"64 590 LINE",
"64 0 LINE",
"164 0 LINE",
"164 233 LINE",
"274 233 LINE",
"440 0 LINE",
"562 0 LINE",
"362 283 LINE"
);
}
);
width = 600;
}
);
unicode = 004B;
},
{
glyphname = L;
lastChange = "2018-06-11 00:11:37 +0200";
layers = (
{
layerId = "220D0E0B-3E90-41D6-A266-882B21BA5595";
name = Bold;
paths = (
{
closed = 1;
nodes = (
"71 0 LINE",
"171 0 LINE",
"171 590 LINE",
"71 590 LINE"
);
},
{
closed = 1;
nodes = (
"72 95 LINE",
"72 0 LINE",
"529 0 LINE",
"529 95 LINE SMOOTH"
);
}
);
width = 600;
},
{
associatedMasterId = "220D0E0B-3E90-41D6-A266-882B21BA5595";
layerId = "DFE8F7EC-62E1-4714-AC20-5817034F21DE";
width = 600;
}
);
unicode = 004C;
},
{
glyphname = Lslash;
lastChange = "2018-06-11 00:11:37 +0200";
layers = (
{
components = (
{
name = L;
transform = "{1, 0, 0, 1, 30, 0}";
}
);
layerId = "220D0E0B-3E90-41D6-A266-882B21BA5595";
name = Bold;
paths = (
{
closed = 1;
nodes = (
"286 301 LINE",
"257 382 LINE",
"19 298 LINE",
"48 217 LINE"
);
}
);
width = 600;
}
);
unicode = 0141;
},
{
glyphname = M;
lastChange = "2018-06-11 00:11:37 +0200";
layers = (
{
guideLines = (
{
angle = 270;
position = "{299, 196}";
},
{
angle = 270;
position = "{321, 174}";
}
);
layerId = "220D0E0B-3E90-41D6-A266-882B21BA5595";
name = Bold;
paths = (
{
closed = 1;
nodes = (
"407 590 LINE",
"298 238 LINE",
"189 590 LINE",
"48 590 LINE",
"48 0 LINE",
"148 0 LINE",
"147 464 LINE",
"249 124 LINE",
"347 124 LINE",
"452 464 LINE",
"451 0 LINE",
"551 0 LINE",
"551 590 LINE"
);
}
);
width = 600;
},
{
associatedMasterId = "220D0E0B-3E90-41D6-A266-882B21BA5595";
guideLines = (
{
angle = 270;
position = "{585, 276}";
},
{
angle = 270;
position = "{494, 340}";
}
);
layerId = "78953762-8819-4316-BE35-196B2D32C778";
paths = (
{
closed = 1;
nodes = (
"309 334 LINE",
"473 585 LINE",
"473 49 LINE",
"414 49 LINE",
"414 0 LINE",
"585 0 LINE",
"585 49 LINE",
"523 49 LINE",
"523 651 LINE",
"585 651 LINE",
"585 700 LINE",
"490 700 LINE",
"300 408 LINE",
"108 700 LINE",
"16 700 LINE",
"16 651 LINE",
"76 651 LINE",
"76 49 LINE",
"16 49 LINE",
"16 0 LINE",
"188 0 LINE",
"188 49 LINE",
"126 49 LINE",
"126 585 LINE",
"286 334 LINE"
);
}
);
width = 600;
},
{
associatedMasterId = "220D0E0B-3E90-41D6-A266-882B21BA5595";
layerId = "DFE8F7EC-62E1-4714-AC20-5817034F21DE";
width = 600;
},
{
associatedMasterId = "220D0E0B-3E90-41D6-A266-882B21BA5595";
guideLines = (
{
angle = 270;
position = "{299, 196}";
},
{
angle = 270;
position = "{321, 174}";
}
);
layerId = "35BF0094-41BB-46C8-8CED-6E48F6E1AB95";
paths = (
{
closed = 1;
nodes = (
"46 0 LINE",
"146 0 LINE",
"146 590 LINE",
"46 590 LINE"
);
},
{
closed = 1;
nodes = (
"46 590 LINE",
"244 211 LINE",
"351 211 LINE",
"153 590 LINE"
);
},
{
closed = 1;
nodes = (
"449 0 LINE",
"549 0 LINE",
"549 590 LINE",
"449 590 LINE"
);
},
{
closed = 1;
nodes = (
"244 211 LINE",
"351 211 LINE",
"549 590 LINE",
"442 590 LINE"
);
}
);
width = 600;
},
{
associatedMasterId = "220D0E0B-3E90-41D6-A266-882B21BA5595";
guideLines = (
{
angle = 270;
position = "{299, 196}";
},
{
angle = 270;
position = "{321, 174}";
}
);
layerId = "89795584-72D9-4C2E-8A4C-A03C53392443";
paths = (
{
closed = 1;
nodes = (
"46 0 LINE",
"146 0 LINE",
"146 590 LINE",
"46 590 LINE"
);
},
{
closed = 1;
nodes = (
"449 0 LINE",
"549 0 LINE",
"549 590 LINE",
"449 590 LINE"
);
},
{
closed = 1;
nodes = (
"234 241 LINE",
"329 241 LINE",
"187 590 LINE",
"92 590 LINE"
);
},
{
closed = 1;
nodes = (
"405 590 LINE",
"263 241 LINE",
"358 241 LINE",
"500 590 LINE"
);
}
);
width = 600;
},
{
associatedMasterId = "220D0E0B-3E90-41D6-A266-882B21BA5595";
guideLines = (
{
angle = 270;
position = "{299, 196}";
},
{
angle = 270;
position = "{321, 174}";
}
);
layerId = "6D308787-9FE1-48C2-8C35-AD8FFFE844F2";
paths = (
{
closed = 1;
nodes = (
"46 0 LINE",
"146 0 LINE",
"146 590 LINE",
"46 590 LINE"
);
},
{
closed = 1;
nodes = (
"449 0 LINE",
"549 0 LINE",
"549 590 LINE",
"449 590 LINE"
);
},
{
closed = 1;
nodes = (
"244 171 LINE",
"339 171 LINE",
"187 590 LINE",
"92 590 LINE"
);
},
{
closed = 1;
nodes = (
"405 590 LINE",
"253 171 LINE",
"348 171 LINE",
"500 590 LINE"
);
}
);
width = 600;
},
{
associatedMasterId = "220D0E0B-3E90-41D6-A266-882B21BA5595";
guideLines = (
{
angle = 270;
position = "{299, 196}";
},
{
angle = 270;
position = "{321, 174}";
}
);
layerId = "8FA4E87A-49F5-48C2-B0B1-07F3EF5F2AC5";
paths = (
{
closed = 1;
nodes = (
"405 590 LINE",
"296 243 LINE",
"187 590 LINE",
"46 590 LINE",
"46 0 LINE",
"146 0 LINE",
"146 389 LINE",
"247 124 LINE",
"345 124 LINE",
"449 389 LINE",
"449 0 LINE",
"549 0 LINE",
"549 590 LINE"
);
}
);
width = 600;
}
);
unicode = 004D;
},
{
glyphname = N;
lastChange = "2018-06-11 00:11:37 +0200";
layers = (
{
anchors = (
{
name = top;
position = "{300, 603}";
}
);
layerId = "220D0E0B-3E90-41D6-A266-882B21BA5595";
name = Bold;
paths = (
{
closed = 1;
nodes = (
"447 590 LINE",
"447 127 LINE",
"181 590 LINE",
"53 590 LINE",
"53 0 LINE",
"153 0 LINE",
"153 449 LINE",
"411 0 LINE",
"547 0 LINE",
"547 590 LINE"
);
}
);
width = 600;
},
{
associatedMasterId = "220D0E0B-3E90-41D6-A266-882B21BA5595";
guideLines = (
{
angle = 270;
position = "{126, 191}";
},
{
angle = 270;
position = "{203, 191}";
}
);
layerId = "2FF15098-9BF6-484C-A0F2-119E892546C8";
paths = (
{
closed = 1;
nodes = (
"577 652 LINE",
"577 700 LINE",
"373 700 LINE",
"373 652 LINE",
"450 652 LINE",
"450 121 LINE",
"156 700 LINE",
"27 700 LINE",
"27 651 LINE",
"104 651 LINE",
"104 49 LINE",
"27 49 LINE",
"27 0 LINE",
"231 0 LINE",
"231 49 LINE",
"154 49 LINE",
"154 585 LINE",
"450 0 LINE",
"500 0 LINE",
"500 652 LINE"
);
}
);
width = 600;
},
{
associatedMasterId = "220D0E0B-3E90-41D6-A266-882B21BA5595";
layerId = "DFE8F7EC-62E1-4714-AC20-5817034F21DE";
width = 600;
},
{
associatedMasterId = "220D0E0B-3E90-41D6-A266-882B21BA5595";
layerId = "FB2769AC-8C85-4409-AD20-C5B56AFC98C2";
paths = (
{
closed = 1;
nodes = (
"71 0 LINE",
"161 0 LINE",
"161 590 LINE",
"71 590 LINE"
);
},
{
closed = 1;
nodes = (
"419 0 LINE",
"509 0 LINE",
"509 590 LINE",
"419 590 LINE"
);
},
{
closed = 1;
nodes = (
"405 0 LINE",
"510 0 LINE",
"180 590 LINE",
"71 590 LINE"
);
}
);
width = 600;
}
);
unicode = 004E;
},
{
glyphname = O;
lastChange = "2018-06-11 00:11:37 +0200";
layers = (
{
associatedMasterId = "220D0E0B-3E90-41D6-A266-882B21BA5595";
layerId = "DFE8F7EC-62E1-4714-AC20-5817034F21DE";
width = 600;
},
{
associatedMasterId = "220D0E0B-3E90-41D6-A266-882B21BA5595";
layerId = "CCB05878-6B30-4484-A368-E2F688476F96";
paths = (
{
closed = 1;
nodes = (
"457 228 LINE",
"457 117 OFFCURVE",
"441 85 OFFCURVE",
"305 85 CURVE SMOOTH",
"169 85 OFFCURVE",
"153 117 OFFCURVE",
"153 228 CURVE",
"63 228 LINE",
"63 62 OFFCURVE",
"109 0 OFFCURVE",
"305 0 CURVE SMOOTH",
"501 0 OFFCURVE",
"547 62 OFFCURVE",
"547 228 CURVE"
);
},
{
closed = 1;
nodes = (
"547 362 LINE",
"547 528 OFFCURVE",
"501 590 OFFCURVE",
"305 590 CURVE SMOOTH",
"109 590 OFFCURVE",
"63 528 OFFCURVE",
"63 362 CURVE",
"153 362 LINE",
"153 473 OFFCURVE",
"169 505 OFFCURVE",
"305 505 CURVE SMOOTH",
"441 505 OFFCURVE",
"457 473 OFFCURVE",
"457 362 CURVE"
);
},
{
closed = 1;
nodes = (
"63 228 LINE",
"153 228 LINE",
"153 362 LINE",
"63 362 LINE"
);
},
{
closed = 1;
nodes = (
"457 228 LINE",
"547 228 LINE",
"547 362 LINE",
"457 362 LINE"
);
}
);
width = 600;
},
{
associatedMasterId = "220D0E0B-3E90-41D6-A266-882B21BA5595";
layerId = "89137DBF-6BAC-462B-97B7-2703AD63012F";
paths = (
{
closed = 1;
nodes = (
"53 58 OFFCURVE",
"179 0 OFFCURVE",
"305 0 CURVE",
"443 0 OFFCURVE",
"557 76 OFFCURVE",
"557 292 CURVE",
"557 458 OFFCURVE",
"501 590 OFFCURVE",
"305 590 CURVE SMOOTH",
"109 590 OFFCURVE",
"53 448 OFFCURVE",
"53 282 CURVE"
);
},
{
closed = 1;
nodes = (
"196 85 OFFCURVE",
"143 169 OFFCURVE",
"143 282 CURVE",
"143 393 OFFCURVE",
"189 505 OFFCURVE",
"305 505 CURVE SMOOTH",
"421 505 OFFCURVE",
"467 403 OFFCURVE",
"467 292 CURVE",
"467 141 OFFCURVE",
"407 85 OFFCURVE",
"305 85 CURVE SMOOTH"
);
},
{
closed = 0;
nodes = (
"305 505 LINE SMOOTH"
);
}
);
width = 600;
},
{
associatedMasterId = "220D0E0B-3E90-41D6-A266-882B21BA5595";
layerId = "720A2E3A-71E2-4588-8622-30317BB267B6";
paths = (
{
closed = 1;
nodes = (
"149 97 OFFCURVE",
"130 164 OFFCURVE",
"130 290 CURVE SMOOTH",
"130 416 OFFCURVE",
"149 493 OFFCURVE",
"305 493 CURVE SMOOTH",
"461 493 OFFCURVE",
"476 416 OFFCURVE",
"476 290 CURVE SMOOTH",
"476 164 OFFCURVE",
"461 97 OFFCURVE",
"305 97 CURVE SMOOTH"
);
},
{
closed = 1;
nodes = (
"529 0 OFFCURVE",
"580 100 OFFCURVE",
"580 290 CURVE SMOOTH",
"580 480 OFFCURVE",
"529 590 OFFCURVE",
"305 590 CURVE SMOOTH",
"81 590 OFFCURVE",
"26 480 OFFCURVE",
"26 290 CURVE SMOOTH",
"26 100 OFFCURVE",
"81 0 OFFCURVE",
"305 0 CURVE SMOOTH"
);
}
);
width = 600;
},
{
anchors = (
{
name = top;
position = "{300, 603}";
}
);
layerId = "220D0E0B-3E90-41D6-A266-882B21BA5595";
name = Bold;
paths = (
{
closed = 1;
nodes = (
"93 603 OFFCURVE",
"37 513 OFFCURVE",
"37 315 CURVE SMOOTH",
"37 79 OFFCURVE",
"93 -13 OFFCURVE",
"299 -13 CURVE SMOOTH",
"505 -13 OFFCURVE",
"563 79 OFFCURVE",
"563 315 CURVE SMOOTH",
"563 513 OFFCURVE",
"505 603 OFFCURVE",
"299 603 CURVE SMOOTH"
);
},
{
closed = 1;
nodes = (
"143 82 OFFCURVE",
"137 139 OFFCURVE",
"137 314 CURVE SMOOTH",
"137 447 OFFCURVE",
"143 508 OFFCURVE",
"299 508 CURVE SMOOTH",
"455 508 OFFCURVE",
"463 447 OFFCURVE",
"463 314 CURVE SMOOTH",
"463 139 OFFCURVE",
"455 82 OFFCURVE",
"299 82 CURVE SMOOTH"
);
}
);
width = 600;
},
{
associatedMasterId = "220D0E0B-3E90-41D6-A266-882B21BA5595";
layerId = "3DDA6E95-598E-4958-AB4B-2FA0262C447B";
paths = (
{
closed = 1;
nodes = (
"109 590 OFFCURVE",
"47 491 OFFCURVE",
"47 305 CURVE SMOOTH",
"47 81 OFFCURVE",
"109 0 OFFCURVE",
"305 0 CURVE SMOOTH",
"501 0 OFFCURVE",
"563 81 OFFCURVE",
"563 305 CURVE SMOOTH",
"563 491 OFFCURVE",
"501 590 OFFCURVE",
"305 590 CURVE SMOOTH"
);
},
{
closed = 1;
nodes = (
"159 95 OFFCURVE",
"142 151 OFFCURVE",
"142 304 CURVE SMOOTH",
"142 415 OFFCURVE",
"159 495 OFFCURVE",
"305 495 CURVE SMOOTH",
"451 495 OFFCURVE",
"468 415 OFFCURVE",
"468 304 CURVE SMOOTH",
"468 151 OFFCURVE",
"451 95 OFFCURVE",
"305 95 CURVE SMOOTH"
);
}
);
width = 600;
},
{
associatedMasterId = "220D0E0B-3E90-41D6-A266-882B21BA5595";
layerId = "4AE491DB-4E66-450E-9856-CF79CBF3A47A";
paths = (
{
closed = 1;
nodes = (
"99 590 OFFCURVE",
"48 501 OFFCURVE",
"48 315 CURVE SMOOTH",
"48 91 OFFCURVE",
"99 0 OFFCURVE",
"305 0 CURVE SMOOTH",
"511 0 OFFCURVE",
"564 91 OFFCURVE",
"564 315 CURVE SMOOTH",
"564 501 OFFCURVE",
"511 590 OFFCURVE",
"305 590 CURVE SMOOTH"
);
},
{
closed = 1;
nodes = (
"149 95 OFFCURVE",
"143 151 OFFCURVE",
"143 314 CURVE SMOOTH",
"143 435 OFFCURVE",
"149 495 OFFCURVE",
"305 495 CURVE SMOOTH",
"461 495 OFFCURVE",
"469 435 OFFCURVE",
"469 314 CURVE SMOOTH",
"469 151 OFFCURVE",
"461 95 OFFCURVE",
"305 95 CURVE SMOOTH"
);
}
);
width = 600;
},
{
associatedMasterId = "220D0E0B-3E90-41D6-A266-882B21BA5595";
layerId = "F6CB6F8E-EDA9-4ED2-8F0E-E3497E74669B";
paths = (
{
closed = 1;
nodes = (
"99 595 OFFCURVE",
"43 501 OFFCURVE",
"43 315 CURVE SMOOTH",
"43 91 OFFCURVE",
"99 -5 OFFCURVE",
"305 -5 CURVE SMOOTH",
"511 -5 OFFCURVE",
"569 91 OFFCURVE",
"569 315 CURVE SMOOTH",
"569 501 OFFCURVE",
"511 595 OFFCURVE",
"305 595 CURVE SMOOTH"
);
},
{
closed = 1;
nodes = (
"149 95 OFFCURVE",
"143 151 OFFCURVE",
"143 314 CURVE SMOOTH",
"143 435 OFFCURVE",
"149 495 OFFCURVE",
"305 495 CURVE SMOOTH",
"461 495 OFFCURVE",
"469 435 OFFCURVE",
"469 314 CURVE SMOOTH",
"469 151 OFFCURVE",
"461 95 OFFCURVE",
"305 95 CURVE SMOOTH"
);
}
);
width = 600;
}
);
unicode = 004F;
},
{
glyphname = OE;
lastChange = "2018-06-11 00:11:37 +0200";
layers = (
{
layerId = "220D0E0B-3E90-41D6-A266-882B21BA5595";
name = Bold;
paths = (
{
closed = 1;
nodes = (
"600 500 LINE",
"600 590 LINE",
"231 590 LINE",
"52 590 OFFCURVE",
"0 513 OFFCURVE",
"0 315 CURVE SMOOTH",
"0 79 OFFCURVE",
"52 0 OFFCURVE",
"231 0 CURVE",
"600 0 LINE",
"600 90 LINE",
"368 90 LINE",
"368 254 LINE",
"554 254 LINE",
"554 344 LINE",
"368 344 LINE",
"368 500 LINE"
);
},
{
closed = 1;
nodes = (
"268 92 LINE",
"257 92 OFFCURVE",
"244 92 OFFCURVE",
"221 92 CURVE SMOOTH",
"112 92 OFFCURVE",
"93 139 OFFCURVE",
"93 314 CURVE SMOOTH",
"93 447 OFFCURVE",
"112 498 OFFCURVE",
"221 498 CURVE SMOOTH",
"244 498 OFFCURVE",
"256.704 497.575 OFFCURVE",
"268 496.701 CURVE"
);
}
);
width = 600;
},
{
associatedMasterId = "220D0E0B-3E90-41D6-A266-882B21BA5595";
layerId = "D66D4C9C-380C-40BE-BB16-9F0A0B34ED64";
paths = (
{
closed = 1;
nodes = (
"614 500 LINE",
"614 590 LINE",
"274 590 OFFCURVE",
"253 590 OFFCURVE",
"231 590 CURVE SMOOTH",
"35 590 OFFCURVE",
"-21 513 OFFCURVE",
"-21 315 CURVE SMOOTH",
"-21 79 OFFCURVE",
"35 0 OFFCURVE",
"231 0 CURVE SMOOTH",
"231 0 OFFCURVE",
"614 0 OFFCURVE",
"614 0 CURVE",
"614 90 LINE",
"368 90 LINE",
"368 254 LINE",
"565 254 LINE",
"565 344 LINE",
"368 344 LINE",
"368 500 LINE"
);
},
{
closed = 1;
nodes = (
"268 93.2986 LINE",
"256.704 92.4247 OFFCURVE",
"244.404 91.9999 OFFCURVE",
"231 91.9999 CURVE SMOOTH",
"85 91.9999 OFFCURVE",
"79 139 OFFCURVE",
"79 314 CURVE SMOOTH",
"79 447 OFFCURVE",
"85 498 OFFCURVE",
"231 498 CURVE SMOOTH",
"244.404 498 OFFCURVE",
"256.704 497.575 OFFCURVE",
"268 496.701 CURVE"
);
}
);
width = 600;
}
);
unicode = 0152;
},
{
glyphname = P;
lastChange = "2018-06-11 00:11:37 +0200";
layers = (
{
guideLines = (
{
angle = 270;
position = "{-4, 214}";
},
{
angle = 270;
position = "{110, 214}";
},
{
angle = 90;
position = "{56, 246}";
},
{
angle = 90;
position = "{149, 271}";
}
);
layerId = "220D0E0B-3E90-41D6-A266-882B21BA5595";
name = Bold;
paths = (
{
closed = 1;
nodes = (
"337 203 LINE SMOOTH",
"473 203 OFFCURVE",
"549 285 OFFCURVE",
"549 397 CURVE SMOOTH",
"549 529 OFFCURVE",
"473 590 OFFCURVE",
"337 590 CURVE SMOOTH",
"52 590 LINE",
"52 0 LINE",
"152 0 LINE",
"152 203 LINE"
);
},
{
closed = 1;
nodes = (
"152 495 LINE",
"335 495 LINE SMOOTH",
"403 495 OFFCURVE",
"449 469 OFFCURVE",
"449 398 CURVE SMOOTH",
"449 327 OFFCURVE",
"408 298 OFFCURVE",
"337 298 CURVE SMOOTH",
"152 298 LINE"
);
}
);
width = 600;
},
{
associatedMasterId = "220D0E0B-3E90-41D6-A266-882B21BA5595";
layerId = "DFE8F7EC-62E1-4714-AC20-5817034F21DE";
width = 600;
},
{
associatedMasterId = "220D0E0B-3E90-41D6-A266-882B21BA5595";
guideLines = (
{
angle = 270;
position = "{-4, 214}";
},
{
angle = 270;
position = "{110, 214}";
},
{
angle = 90;
position = "{56, 246}";
},
{
angle = 90;
position = "{149, 271}";
}
);
layerId = "C8316005-9F86-4E57-8AB9-4F20A36EE304";
paths = (
{
closed = 1;
nodes = (
"73 0 LINE",
"163 0 LINE",
"163 590 LINE",
"73 590 LINE"
);
},
{
closed = 1;
nodes = (
"94 500 LINE",
"304 500 LINE",
"304 590 LINE",
"94 590 LINE"
);
},
{
closed = 1;
nodes = (
"541 422 LINE",
"541 539 OFFCURVE",
"469 590 OFFCURVE",
"302 590 CURVE",
"302 500 LINE",
"405 500 OFFCURVE",
"451 479 OFFCURVE",
"451 423 CURVE"
);
},
{
closed = 1;
nodes = (
"451 368 OFFCURVE",
"404 347 OFFCURVE",
"301 349 CURVE",
"299 259 LINE",
"466 256 OFFCURVE",
"541 305 OFFCURVE",
"541 422 CURVE",
"451 423 LINE"
);
},
{
closed = 1;
nodes = (
"85 259 LINE",
"304 259 LINE",
"304 349 LINE",
"85 349 LINE"
);
}
);
width = 600;
},
{
associatedMasterId = "220D0E0B-3E90-41D6-A266-882B21BA5595";
guideLines = (
{
angle = 270;
position = "{-4, 214}";
},
{
angle = 270;
position = "{110, 214}";
},
{
angle = 90;
position = "{56, 246}";
},
{
angle = 90;
position = "{149, 271}";
}
);
layerId = "E7D2103D-F21C-4370-9B3E-720004E8E6A7";
paths = (
{
closed = 1;
nodes = (
"163 590 LINE",
"73 590 LINE",
"73 0 LINE",
"163 0 LINE",
"163 227 LINE",
"299 227 LINE SMOOTH",
"466 224 OFFCURVE",
"541 278 OFFCURVE",
"541 412 CURVE SMOOTH",
"541 544 OFFCURVE",
"470 590 OFFCURVE",
"304 590 CURVE SMOOTH"
);
},
{
closed = 1;
nodes = (
"163 317 LINE",
"163 500 LINE",
"302 500 LINE SMOOTH",
"405 500 OFFCURVE",
"451 484 OFFCURVE",
"451 413 CURVE SMOOTH",
"451 342 OFFCURVE",
"405 315 OFFCURVE",
"304 317 CURVE SMOOTH"
);
}
);
width = 600;
},
{
associatedMasterId = "220D0E0B-3E90-41D6-A266-882B21BA5595";
guideLines = (
{
angle = 270;
position = "{-4, 214}";
},
{
angle = 270;
position = "{110, 214}";
},
{
angle = 90;
position = "{56, 246}";
},
{
angle = 90;
position = "{149, 271}";
}
);
layerId = "86473C52-FDFB-4C14-80EF-25A94329CBC8";
paths = (
{
closed = 1;
nodes = (
"163 590 LINE",
"63 590 LINE",
"63 0 LINE",
"163 0 LINE",
"163 222 LINE",
"299 222 LINE SMOOTH",
"466 219 OFFCURVE",
"546 278 OFFCURVE",
"546 412 CURVE SMOOTH",
"546 544 OFFCURVE",
"470 590 OFFCURVE",
"304 590 CURVE SMOOTH"
);
},
{
closed = 1;
nodes = (
"163 317 LINE",
"163 495 LINE",
"302 495 LINE SMOOTH",
"405 495 OFFCURVE",
"451 484 OFFCURVE",
"451 413 CURVE SMOOTH",
"451 342 OFFCURVE",
"405 315 OFFCURVE",
"304 317 CURVE SMOOTH"
);
},
{
closed = 1;
nodes = (
"-29 0 LINE",
"-199 231 LINE",
"-102 243 OFFCURVE",
"-43 296 OFFCURVE",
"-43 408 CURVE SMOOTH",
"-43 540 OFFCURVE",
"-119 590 OFFCURVE",
"-255 590 CURVE SMOOTH",
"-526 590 LINE",
"-526 0 LINE",
"-426 0 LINE",
"-426 222 LINE",
"-314 222 LINE",
"-149 0 LINE"
);
},
{
closed = 1;
nodes = (
"-426 497 LINE",
"-257 497 LINE SMOOTH",
"-189 497 OFFCURVE",
"-143 480 OFFCURVE",
"-143 409 CURVE SMOOTH",
"-143 338 OFFCURVE",
"-184 312 OFFCURVE",
"-255 312 CURVE SMOOTH",
"-426 312 LINE"
);
}
);
width = 600;
}
);
unicode = 0050;
},
{
glyphname = Q;
lastChange = "2018-06-11 00:11:37 +0200";
layers = (
{
associatedMasterId = "220D0E0B-3E90-41D6-A266-882B21BA5595";
layerId = "DFE8F7EC-62E1-4714-AC20-5817034F21DE";
width = 600;
},
{
associatedMasterId = "220D0E0B-3E90-41D6-A266-882B21BA5595";
layerId = "8F9DB265-527E-4C91-B34D-DF4477C39DEF";
paths = (
{
closed = 1;
nodes = (
"457 228 LINE",
"457 117 OFFCURVE",
"441 85 OFFCURVE",
"305 85 CURVE SMOOTH",
"169 85 OFFCURVE",
"153 117 OFFCURVE",
"153 228 CURVE",
"63 228 LINE",
"63 62 OFFCURVE",
"109 0 OFFCURVE",
"305 0 CURVE SMOOTH",
"501 0 OFFCURVE",
"547 62 OFFCURVE",
"547 228 CURVE"
);
},
{
closed = 1;
nodes = (
"547 362 LINE",
"547 528 OFFCURVE",
"501 590 OFFCURVE",
"305 590 CURVE SMOOTH",
"109 590 OFFCURVE",
"63 528 OFFCURVE",
"63 362 CURVE",
"153 362 LINE",
"153 473 OFFCURVE",
"169 505 OFFCURVE",
"305 505 CURVE SMOOTH",
"441 505 OFFCURVE",
"457 473 OFFCURVE",
"457 362 CURVE"
);
},
{
closed = 1;
nodes = (
"63 228 LINE",
"153 228 LINE",
"153 362 LINE",
"63 362 LINE"
);
},
{
closed = 1;
nodes = (
"457 228 LINE",
"547 228 LINE",
"547 362 LINE",
"457 362 LINE"
);
},
{
closed = 1;
nodes = (
"533 -109 LINE",
"533 -19 LINE",
"244 -19 LINE",
"244 -109 LINE"
);
}
);
width = 600;
},
{
associatedMasterId = "220D0E0B-3E90-41D6-A266-882B21BA5595";
layerId = "4A313341-DA61-44F9-A6DD-0BD56E5C79E9";
paths = (
{
closed = 1;
nodes = (
"457 228 LINE",
"457 117 OFFCURVE",
"441 85 OFFCURVE",
"305 85 CURVE SMOOTH",
"169 85 OFFCURVE",
"153 117 OFFCURVE",
"153 228 CURVE",
"63 228 LINE",
"63 62 OFFCURVE",
"109 0 OFFCURVE",
"305 0 CURVE SMOOTH",
"501 0 OFFCURVE",
"547 62 OFFCURVE",
"547 228 CURVE"
);
},
{
closed = 1;
nodes = (
"547 362 LINE",
"547 528 OFFCURVE",
"501 590 OFFCURVE",
"305 590 CURVE SMOOTH",
"109 590 OFFCURVE",
"63 528 OFFCURVE",
"63 362 CURVE",
"153 362 LINE",
"153 473 OFFCURVE",
"169 505 OFFCURVE",
"305 505 CURVE SMOOTH",
"441 505 OFFCURVE",
"457 473 OFFCURVE",
"457 362 CURVE"
);
},
{
closed = 1;
nodes = (
"63 228 LINE",
"153 228 LINE",
"153 362 LINE",
"63 362 LINE"
);
},
{
closed = 1;
nodes = (
"457 228 LINE",
"547 228 LINE",
"547 362 LINE",
"457 362 LINE"
);
},
{
closed = 1;
nodes = (
"431 -68 LINE",
"509 -23 LINE",
"379 201 LINE",
"301 156 LINE"
);
}
);
width = 600;
},
{
associatedMasterId = "220D0E0B-3E90-41D6-A266-882B21BA5595";
layerId = "20C30C15-5876-4D9F-9ACC-8548D726088A";
paths = (
{
closed = 1;
nodes = (
"457 228 LINE",
"457 117 OFFCURVE",
"441 85 OFFCURVE",
"305 85 CURVE SMOOTH",
"169 85 OFFCURVE",
"153 117 OFFCURVE",
"153 228 CURVE",
"63 228 LINE",
"63 62 OFFCURVE",
"109 0 OFFCURVE",
"305 0 CURVE SMOOTH",
"501 0 OFFCURVE",
"547 62 OFFCURVE",
"547 228 CURVE"
);
},
{
closed = 1;
nodes = (
"547 362 LINE",
"547 528 OFFCURVE",
"501 590 OFFCURVE",
"305 590 CURVE SMOOTH",
"109 590 OFFCURVE",
"63 528 OFFCURVE",
"63 362 CURVE",
"153 362 LINE",
"153 473 OFFCURVE",
"169 505 OFFCURVE",
"305 505 CURVE SMOOTH",
"441 505 OFFCURVE",
"457 473 OFFCURVE",
"457 362 CURVE"
);
},
{
closed = 1;
nodes = (
"63 228 LINE",
"153 228 LINE",
"153 362 LINE",
"63 362 LINE"
);
},
{
closed = 1;
nodes = (
"457 228 LINE",
"547 228 LINE",
"547 362 LINE",
"457 362 LINE"
);
},
{
closed = 1;
nodes = (
"432 -38 LINE",
"510 7 LINE",
"373 241 LINE",
"295 196 LINE"
);
},
{
closed = 1;
nodes = (
"373 151 LINE",
"373 241 LINE",
"214 241 LINE",
"214 151 LINE"
);
}
);
width = 600;
},
{
layerId = "220D0E0B-3E90-41D6-A266-882B21BA5595";
name = Bold;
paths = (
{
closed = 1;
nodes = (
"79 591 OFFCURVE",
"23 501 OFFCURVE",
"23 315 CURVE SMOOTH",
"23 91 OFFCURVE",
"79 -1 OFFCURVE",
"285 -1 CURVE SMOOTH",
"491 -1 OFFCURVE",
"549 91 OFFCURVE",
"549 315 CURVE SMOOTH",
"549 501 OFFCURVE",
"491 591 OFFCURVE",
"285 591 CURVE SMOOTH"
);
},
{
closed = 1;
nodes = (
"129 99 OFFCURVE",
"123 151 OFFCURVE",
"123 314 CURVE SMOOTH",
"123 435 OFFCURVE",
"129 491 OFFCURVE",
"285 491 CURVE SMOOTH",
"441 491 OFFCURVE",
"449 435 OFFCURVE",
"449 314 CURVE SMOOTH",
"449 151 OFFCURVE",
"441 99 OFFCURVE",
"285 99 CURVE SMOOTH"
);
},
{
closed = 1;
nodes = (
"519 -13 LINE",
"578 47 LINE",
"334 290 LINE",
"275 230 LINE"
);
}
);
width = 600;
},
{
associatedMasterId = "220D0E0B-3E90-41D6-A266-882B21BA5595";
layerId = "1A71A6A1-1D3B-43B2-8C47-F8A5B35B7BB2";
paths = (
{
closed = 1;
nodes = (
"457 228 LINE",
"457 117 OFFCURVE",
"441 85 OFFCURVE",
"305 85 CURVE SMOOTH",
"169 85 OFFCURVE",
"153 117 OFFCURVE",
"153 228 CURVE",
"63 228 LINE",
"63 62 OFFCURVE",
"109 0 OFFCURVE",
"305 0 CURVE SMOOTH",
"501 0 OFFCURVE",
"547 62 OFFCURVE",
"547 228 CURVE"
);
},
{
closed = 1;
nodes = (
"547 362 LINE",
"547 528 OFFCURVE",
"501 590 OFFCURVE",
"305 590 CURVE SMOOTH",
"109 590 OFFCURVE",
"63 528 OFFCURVE",
"63 362 CURVE",
"153 362 LINE",
"153 473 OFFCURVE",
"169 505 OFFCURVE",
"305 505 CURVE SMOOTH",
"441 505 OFFCURVE",
"457 473 OFFCURVE",
"457 362 CURVE"
);
},
{
closed = 1;
nodes = (
"63 228 LINE",
"153 228 LINE",
"153 362 LINE",
"63 362 LINE"
);
},
{
closed = 1;
nodes = (
"457 228 LINE",
"547 228 LINE",
"547 362 LINE",
"457 362 LINE"
);
},
{
closed = 1;
nodes = (
"533 -109 LINE",
"533 -19 LINE",
"244 -19 LINE",
"244 -109 LINE"
);
}
);
width = 600;
}
);
unicode = 0051;
},
{
glyphname = R;
lastChange = "2018-06-11 00:11:37 +0200";
layers = (
{
associatedMasterId = "220D0E0B-3E90-41D6-A266-882B21BA5595";
guideLines = (
{
angle = 270;
position = "{520, 259}";
},
{
angle = 0;
position = "{648, 628}";
}
);
layerId = "16BD0CA3-D7B1-443D-B992-464B1621B167";
paths = (
{
closed = 1;
nodes = (
"419 379 OFFCURVE",
"467 414 OFFCURVE",
"467 504 CURVE SMOOTH",
"467 591 OFFCURVE",
"419 651 OFFCURVE",
"312 651 CURVE SMOOTH",
"133 651 LINE",
"133 379 LINE",
"312 379 LINE SMOOTH"
);
},
{
closed = 1;
nodes = (
"133 329 LINE",
"133 49 LINE",
"209 49 LINE",
"209 0 LINE",
"6 0 LINE",
"6 49 LINE",
"83 49 LINE",
"83 651 LINE",
"6 651 LINE",
"6 700 LINE",
"312 700 LINE SMOOTH",
"434 700 OFFCURVE",
"517 629 OFFCURVE",
"517 504 CURVE SMOOTH",
"517 379 OFFCURVE",
"435 329 OFFCURVE",
"312 329 CURVE SMOOTH"
);
},
{
closed = 1;
nodes = (
"446 327 OFFCURVE",
"448 292 OFFCURVE",
"448 185 CURVE SMOOTH",
"448 106 OFFCURVE",
"439 95 OFFCURVE",
"545 27 CURVE",
"521 -15 LINE",
"410 52 OFFCURVE",
"399 71 OFFCURVE",
"399 185 CURVE SMOOTH",
"399 282 OFFCURVE",
"378 306 OFFCURVE",
"278 331 CURVE",
"321 364 LINE"
);
}
);
width = 600;
},
{
associatedMasterId = "220D0E0B-3E90-41D6-A266-882B21BA5595";
guideLines = (
{
angle = 270;
position = "{360, 281}";
},
{
angle = 0;
position = "{648, 628}";
}
);
layerId = "B739D7E8-508F-47DA-A8E6-AAF455B0771F";
paths = (
{
closed = 1;
nodes = (
"419 379 OFFCURVE",
"467 414 OFFCURVE",
"467 504 CURVE SMOOTH",
"467 591 OFFCURVE",
"419 651 OFFCURVE",
"312 651 CURVE SMOOTH",
"133 651 LINE",
"133 379 LINE",
"312 379 LINE SMOOTH"
);
},
{
closed = 1;
nodes = (
"133 329 LINE",
"133 49 LINE",
"209 49 LINE",
"209 0 LINE",
"6 0 LINE",
"6 49 LINE",
"83 49 LINE",
"83 651 LINE",
"6 651 LINE",
"6 700 LINE",
"312 700 LINE SMOOTH",
"434 700 OFFCURVE",
"517 629 OFFCURVE",
"517 504 CURVE SMOOTH",
"517 379 OFFCURVE",
"435 329 OFFCURVE",
"312 329 CURVE SMOOTH"
);
},
{
closed = 1;
nodes = (
"461 325 OFFCURVE",
"447 311 OFFCURVE",
"447 170 CURVE SMOOTH",
"447 111 OFFCURVE",
"442 62 OFFCURVE",
"533 29 CURVE",
"509 -13 LINE",
"413 19 OFFCURVE",
"398 76 OFFCURVE",
"398 170 CURVE SMOOTH",
"398 288 OFFCURVE",
"387 313 OFFCURVE",
"286 342 CURVE",
"325 375 LINE"
);
}
);
width = 600;
},
{
associatedMasterId = "220D0E0B-3E90-41D6-A266-882B21BA5595";
layerId = "DFE8F7EC-62E1-4714-AC20-5817034F21DE";
width = 600;
},
{
associatedMasterId = "220D0E0B-3E90-41D6-A266-882B21BA5595";
guideLines = (
{
angle = 270;
position = "{520, 259}";
},
{
angle = 0;
position = "{648, 628}";
}
);
layerId = "F1DC79F1-5B11-40B3-8E48-31E19064458E";
paths = (
{
closed = 1;
nodes = (
"53 0 LINE",
"143 0 LINE",
"143 590 LINE",
"53 590 LINE"
);
},
{
closed = 1;
nodes = (
"74 500 LINE",
"284 500 LINE",
"284 590 LINE",
"74 590 LINE"
);
},
{
closed = 1;
nodes = (
"521 422 LINE",
"521 539 OFFCURVE",
"449 590 OFFCURVE",
"282 590 CURVE",
"282 500 LINE",
"385 500 OFFCURVE",
"431 479 OFFCURVE",
"431 423 CURVE"
);
},
{
closed = 1;
nodes = (
"431 368 OFFCURVE",
"384 347 OFFCURVE",
"281 349 CURVE",
"279 259 LINE",
"446 256 OFFCURVE",
"521 305 OFFCURVE",
"521 422 CURVE",
"431 423 LINE"
);
},
{
closed = 1;
nodes = (
"65 259 LINE",
"284 259 LINE",
"284 349 LINE",
"65 349 LINE"
);
},
{
closed = 1;
nodes = (
"242 321 LINE",
"450 0 LINE",
"556 0 LINE",
"349 321 LINE"
);
}
);
width = 600;
},
{
associatedMasterId = "220D0E0B-3E90-41D6-A266-882B21BA5595";
guideLines = (
{
angle = 270;
position = "{520, 259}";
},
{
angle = 0;
position = "{648, 628}";
}
);
layerId = "E21C5296-4E64-44B8-B9C1-4CF98038DD34";
paths = (
{
closed = 1;
nodes = (
"73 0 LINE",
"163 0 LINE",
"163 590 LINE",
"73 590 LINE"
);
},
{
closed = 1;
nodes = (
"94 500 LINE",
"304 500 LINE",
"304 590 LINE",
"94 590 LINE"
);
},
{
closed = 1;
nodes = (
"541 422 LINE",
"541 539 OFFCURVE",
"469 590 OFFCURVE",
"302 590 CURVE",
"302 500 LINE",
"405 500 OFFCURVE",
"451 479 OFFCURVE",
"451 423 CURVE"
);
},
{
closed = 1;
nodes = (
"451 368 OFFCURVE",
"404 347 OFFCURVE",
"301 349 CURVE",
"299 259 LINE",
"466 256 OFFCURVE",
"541 305 OFFCURVE",
"541 422 CURVE",
"451 423 LINE"
);
},
{
closed = 1;
nodes = (
"85 259 LINE",
"304 259 LINE",
"304 349 LINE",
"85 349 LINE"
);
},
{
closed = 1;
nodes = (
"117 259 LINE",
"327 259 LINE",
"327 349 LINE",
"117 349 LINE"
);
},
{
closed = 1;
nodes = (
"525 175 LINE",
"525 292 OFFCURVE",
"450 349 OFFCURVE",
"286 349 CURVE",
"286 259 LINE",
"389 259 OFFCURVE",
"435 241 OFFCURVE",
"435 176 CURVE"
);
},
{
closed = 1;
nodes = (
"435 0 LINE",
"525 0 LINE",
"525 176 LINE",
"435 176 LINE"
);
}
);
width = 600;
},
{
associatedMasterId = "220D0E0B-3E90-41D6-A266-882B21BA5595";
guideLines = (
{
angle = 270;
position = "{520, 259}";
},
{
angle = 0;
position = "{648, 628}";
}
);
layerId = "CBCF918F-8D06-4CDD-BAAC-07949D53BA7D";
paths = (
{
closed = 1;
nodes = (
"152 590 LINE",
"58 590 LINE",
"58 0 LINE",
"152 0 LINE",
"152 227 LINE",
"288 227 LINE SMOOTH",
"455 224 OFFCURVE",
"530 278 OFFCURVE",
"530 412 CURVE SMOOTH",
"530 544 OFFCURVE",
"459 590 OFFCURVE",
"293 590 CURVE SMOOTH"
);
},
{
closed = 1;
nodes = (
"152 317 LINE",
"152 500 LINE",
"291 500 LINE SMOOTH",
"394 500 OFFCURVE",
"440 484 OFFCURVE",
"440 413 CURVE SMOOTH",
"440 342 OFFCURVE",
"394 315 OFFCURVE",
"293 317 CURVE SMOOTH"
);
},
{
closed = 1;
nodes = (
"436 0 LINE",
"560 0 LINE",
"560 5 OFFCURVE",
"407 192 OFFCURVE",
"375 249 CURVE",
"251 249 LINE"
);
}
);
width = 600;
},
{
associatedMasterId = "220D0E0B-3E90-41D6-A266-882B21BA5595";
guideLines = (
{
angle = 270;
position = "{520, 259}";
},
{
angle = 0;
position = "{648, 628}";
}
);
layerId = "9AA51E6C-5452-485F-B25D-9A83BDEEF1E5";
paths = (
{
closed = 1;
nodes = (
"164 590 LINE",
"64 590 LINE",
"64 0 LINE",
"164 0 LINE",
"164 222 LINE",
"300 222 LINE SMOOTH",
"467 219 OFFCURVE",
"547 278 OFFCURVE",
"547 412 CURVE SMOOTH",
"547 544 OFFCURVE",
"471 590 OFFCURVE",
"305 590 CURVE SMOOTH"
);
},
{
closed = 1;
nodes = (
"164 317 LINE",
"164 495 LINE",
"303 495 LINE SMOOTH",
"406 495 OFFCURVE",
"452 484 OFFCURVE",
"452 413 CURVE SMOOTH",
"452 342 OFFCURVE",
"406 315 OFFCURVE",
"305 317 CURVE SMOOTH"
);
},
{
closed = 1;
nodes = (
"441 0 LINE",
"561 0 LINE",
"376 249 LINE",
"256 249 LINE"
);
}
);
width = 600;
},
{
associatedMasterId = "220D0E0B-3E90-41D6-A266-882B21BA5595";
guideLines = (
{
angle = 270;
position = "{520, 259}";
},
{
angle = 0;
position = "{648, 628}";
}
);
layerId = "8F17D040-D7B7-4A33-ACDE-F0B74D470D4B";
paths = (
{
closed = 1;
nodes = (
"561 0 LINE",
"391 231 LINE",
"488 243 OFFCURVE",
"547 296.024 OFFCURVE",
"547 408 CURVE SMOOTH",
"547 540 OFFCURVE",
"469 590 OFFCURVE",
"333 590 CURVE",
"64 590 LINE",
"64 0 LINE",
"164 0 LINE",
"164 222 LINE",
"276 222 LINE",
"441 0 LINE"
);
},
{
closed = 1;
nodes = (
"164 497 LINE",
"333 497 LINE SMOOTH",
"401 497 OFFCURVE",
"447 480 OFFCURVE",
"447 409 CURVE SMOOTH",
"447 338 OFFCURVE",
"404 312 OFFCURVE",
"333 312 CURVE SMOOTH",
"164 312 LINE"
);
}
);
width = 600;
},
{
associatedMasterId = "220D0E0B-3E90-41D6-A266-882B21BA5595";
guideLines = (
{
angle = 270;
position = "{520, 259}";
},
{
angle = 0;
position = "{648, 628}";
}
);
layerId = "EEAF66B6-C35F-4D36-A197-FFF697D07D34";
paths = (
{
closed = 1;
nodes = (
"561 0 LINE",
"385 232 LINE",
"482 244 OFFCURVE",
"547 296.024 OFFCURVE",
"547 408 CURVE SMOOTH",
"547 540 OFFCURVE",
"469 590 OFFCURVE",
"333 590 CURVE",
"64 590 LINE",
"64 0 LINE",
"164 0 LINE",
"164 222 LINE",
"276 222 LINE",
"441 0 LINE"
);
},
{
closed = 1;
nodes = (
"164 497 LINE",
"333 497 LINE SMOOTH",
"401 497 OFFCURVE",
"447 480 OFFCURVE",
"447 409 CURVE SMOOTH",
"447 338 OFFCURVE",
"404 312 OFFCURVE",
"333 312 CURVE SMOOTH",
"164 312 LINE"
);
}
);
width = 600;
},
{
guideLines = (
{
angle = 270;
position = "{520, 259}";
},
{
angle = 0;
position = "{648, 628}";
}
);
layerId = "220D0E0B-3E90-41D6-A266-882B21BA5595";
name = Bold;
paths = (
{
closed = 1;
nodes = (
"548 0 LINE",
"380 223 LINE",
"478 238 OFFCURVE",
"534 293 OFFCURVE",
"534 405 CURVE SMOOTH",
"534 537 OFFCURVE",
"458 590 OFFCURVE",
"322 590 CURVE SMOOTH",
"51 590 LINE",
"51 0 LINE",
"151 0 LINE",
"151 219 LINE",
"263 219 LINE",
"428 0 LINE"
);
},
{
closed = 1;
nodes = (
"151 495 LINE",
"320 495 LINE SMOOTH",
"388 495 OFFCURVE",
"434 477 OFFCURVE",
"434 406 CURVE SMOOTH",
"434 335 OFFCURVE",
"393 314 OFFCURVE",
"322 314 CURVE SMOOTH",
"151 314 LINE"
);
}
);
width = 600;
},
{
associatedMasterId = "220D0E0B-3E90-41D6-A266-882B21BA5595";
guideLines = (
{
angle = 270;
position = "{520, 259}";
},
{
angle = 0;
position = "{648, 628}";
}
);
layerId = "A5CEFC13-59E7-492D-A121-6F691ADA33CA";
paths = (
{
closed = 1;
nodes = (
"561 0 LINE",
"393 226 LINE",
"491 241 OFFCURVE",
"547 296.024 OFFCURVE",
"547 408 CURVE SMOOTH",
"547 540 OFFCURVE",
"471 590 OFFCURVE",
"335 590 CURVE SMOOTH",
"64 590 LINE",
"64 0 LINE",
"164 0 LINE",
"164 222 LINE",
"276 222 LINE",
"441 0 LINE"
);
},
{
closed = 1;
nodes = (
"164 497 LINE",
"333 497 LINE SMOOTH",
"401 497 OFFCURVE",
"447 480 OFFCURVE",
"447 409 CURVE SMOOTH",
"447 338 OFFCURVE",
"406 312 OFFCURVE",
"335 312 CURVE SMOOTH",
"164 312 LINE"
);
}
);
width = 600;
}
);
unicode = 0052;
},
{
glyphname = S;
lastChange = "2018-06-11 00:11:37 +0200";
layers = (
{
associatedMasterId = "220D0E0B-3E90-41D6-A266-882B21BA5595";
layerId = "DFE8F7EC-62E1-4714-AC20-5817034F21DE";
width = 600;
},
{
associatedMasterId = "220D0E0B-3E90-41D6-A266-882B21BA5595";
layerId = "09B6CE2D-36C9-44F9-9B05-1A93871E7CF5";
paths = (
{
closed = 1;
nodes = (
"449 0 OFFCURVE",
"555 35 OFFCURVE",
"555 176 CURVE SMOOTH",
"555 345 OFFCURVE",
"417 357 OFFCURVE",
"270 357 CURVE SMOOTH",
"171 357 OFFCURVE",
"148 396 OFFCURVE",
"148 429 CURVE SMOOTH",
"148 476 OFFCURVE",
"182 500 OFFCURVE",
"298 500 CURVE SMOOTH",
"377 500 OFFCURVE",
"509 477 OFFCURVE",
"509 477 CURVE",
"523 564 LINE",
"523 564 OFFCURVE",
"380 590 OFFCURVE",
"298 590 CURVE SMOOTH",
"180 590 OFFCURVE",
"55 556 OFFCURVE",
"55 430 CURVE SMOOTH",
"55 345 OFFCURVE",
"90 267 OFFCURVE",
"289 267 CURVE SMOOTH",
"424 267 OFFCURVE",
"465 240 OFFCURVE",
"465 176 CURVE SMOOTH",
"465 94 OFFCURVE",
"377 90 OFFCURVE",
"281 90 CURVE SMOOTH",
"186 90 OFFCURVE",
"90 137 OFFCURVE",
"90 137 CURVE",
"55 57 LINE",
"55 59 OFFCURVE",
"148 0 OFFCURVE",
"281 0 CURVE"
);
}
);
width = 600;
},
{
associatedMasterId = "220D0E0B-3E90-41D6-A266-882B21BA5595";
layerId = "F951EC13-A04E-477C-8BE5-B6B6B5792AFF";
paths = (
{
closed = 1;
nodes = (
"449 0 OFFCURVE",
"555 35 OFFCURVE",
"555 176 CURVE SMOOTH",
"555 345 OFFCURVE",
"429 357 OFFCURVE",
"270 357 CURVE SMOOTH",
"171 357 OFFCURVE",
"148 396 OFFCURVE",
"148 429 CURVE SMOOTH",
"148 476 OFFCURVE",
"182 500 OFFCURVE",
"298 500 CURVE SMOOTH",
"377 500 OFFCURVE",
"504 478 OFFCURVE",
"506 477 CURVE",
"523 564 LINE",
"523 564 OFFCURVE",
"380 590 OFFCURVE",
"298 590 CURVE SMOOTH",
"180 590 OFFCURVE",
"55 556 OFFCURVE",
"55 430 CURVE SMOOTH",
"55 345 OFFCURVE",
"90 267 OFFCURVE",
"289 267 CURVE SMOOTH",
"424 267 OFFCURVE",
"465 240 OFFCURVE",
"465 176 CURVE SMOOTH",
"465 88 OFFCURVE",
"377 89 OFFCURVE",
"281 89 CURVE SMOOTH",
"186 89 OFFCURVE",
"90 137 OFFCURVE",
"90 137 CURVE",
"55 57 LINE",
"55 59 OFFCURVE",
"148 0 OFFCURVE",
"281 0 CURVE"
);
}
);
width = 600;
},
{
associatedMasterId = "220D0E0B-3E90-41D6-A266-882B21BA5595";
layerId = "080D7825-2292-413F-8F71-1FE8FD28E392";
paths = (
{
closed = 1;
nodes = (
"221 261 OFFCURVE",
"141 256 OFFCURVE",
"141 297 CURVE SMOOTH",
"141 352 OFFCURVE",
"187 361 OFFCURVE",
"293 360 CURVE SMOOTH",
"403 359 OFFCURVE",
"442 355 OFFCURVE",
"445 281 CURVE",
"535 281 LINE",
"535 391 OFFCURVE",
"461 443 OFFCURVE",
"293 443 CURVE SMOOTH",
"103 443 OFFCURVE",
"51 398 OFFCURVE",
"51 297 CURVE SMOOTH",
"51 181 OFFCURVE",
"194 175 OFFCURVE",
"309 175 CURVE SMOOTH",
"421 175 OFFCURVE",
"444 157 OFFCURVE",
"444 123 CURVE SMOOTH",
"444 122 LINE SMOOTH",
"443 82 OFFCURVE",
"416 70 OFFCURVE",
"292 71 CURVE SMOOTH",
"168 72 OFFCURVE",
"143 76 OFFCURVE",
"140 150 CURVE",
"50 150 LINE",
"50 27 OFFCURVE",
"124 -12 OFFCURVE",
"292 -12 CURVE SMOOTH",
"478 -12 OFFCURVE",
"534 22 OFFCURVE",
"534 121 CURVE",
"534 123 LINE SMOOTH",
"534 218 OFFCURVE",
"472 261 OFFCURVE",
"310 261 CURVE SMOOTH"
);
}
);
width = 600;
},
{
anchors = (
{
name = top;
position = "{299, 603}";
}
);
layerId = "220D0E0B-3E90-41D6-A266-882B21BA5595";
name = Bold;
paths = (
{
closed = 1;
nodes = (
"559 416 LINE",
"559 547 OFFCURVE",
"486 603 OFFCURVE",
"295 603 CURVE SMOOTH",
"93 603 OFFCURVE",
"37 532 OFFCURVE",
"37 420 CURVE SMOOTH",
"37 288 OFFCURVE",
"135 256 OFFCURVE",
"296 249 CURVE SMOOTH",
"426 243 OFFCURVE",
"461 231 OFFCURVE",
"461 171 CURVE SMOOTH",
"461 100 OFFCURVE",
"420 82 OFFCURVE",
"299 82 CURVE SMOOTH",
"203 82 OFFCURVE",
"142 93 OFFCURVE",
"142 162 CURVE",
"42 162 LINE",
"42 40 OFFCURVE",
"120 -13 OFFCURVE",
"299 -13 CURVE SMOOTH",
"498 -13 OFFCURVE",
"562 39 OFFCURVE",
"561 171 CURVE SMOOTH",
"560 291 OFFCURVE",
"497 338 OFFCURVE",
"309 344 CURVE SMOOTH",
"173 348 OFFCURVE",
"137 360 OFFCURVE",
"137 423 CURVE SMOOTH",
"137 480 OFFCURVE",
"154 508 OFFCURVE",
"295 508 CURVE SMOOTH",
"406 508 OFFCURVE",
"459 493 OFFCURVE",
"459 416 CURVE"
);
}
);
width = 600;
},
{
associatedMasterId = "220D0E0B-3E90-41D6-A266-882B21BA5595";
layerId = "6EAC53B0-DE83-4F97-AEB9-650E690BDA31";
paths = (
{
closed = 1;
nodes = (
"556 403 LINE",
"556 529 OFFCURVE",
"483 590 OFFCURVE",
"302 590 CURVE SMOOTH",
"112 590 OFFCURVE",
"56 521 OFFCURVE",
"56 405 CURVE SMOOTH",
"56 286 OFFCURVE",
"122 242 OFFCURVE",
"306 242 CURVE SMOOTH",
"454 242 OFFCURVE",
"466 225 OFFCURVE",
"466 177 CURVE SMOOTH",
"466 98 OFFCURVE",
"428 95 OFFCURVE",
"302 95 CURVE SMOOTH",
"218 95 OFFCURVE",
"158 106 OFFCURVE",
"158 175 CURVE",
"61 175 LINE",
"61 35 OFFCURVE",
"156 0 OFFCURVE",
"302 0 CURVE SMOOTH",
"511 0 OFFCURVE",
"558 54 OFFCURVE",
"558 181 CURVE SMOOTH",
"558 313 OFFCURVE",
"480 333 OFFCURVE",
"315 333 CURVE SMOOTH",
"174 333 OFFCURVE",
"155 356 OFFCURVE",
"155 408 CURVE SMOOTH",
"155 471 OFFCURVE",
"172 495 OFFCURVE",
"302 495 CURVE SMOOTH",
"413 495 OFFCURVE",
"461 480 OFFCURVE",
"461 403 CURVE"
);
}
);
width = 600;
},
{
associatedMasterId = "220D0E0B-3E90-41D6-A266-882B21BA5595";
layerId = "65DB0404-4ED6-48E0-B461-AEEF6170A645";
paths = (
{
closed = 1;
nodes = (
"556 403 LINE",
"556 534 OFFCURVE",
"483 590 OFFCURVE",
"302 590 CURVE SMOOTH",
"112 590 OFFCURVE",
"56 521 OFFCURVE",
"56 405 CURVE SMOOTH",
"56 263 OFFCURVE",
"159 243 OFFCURVE",
"306 243 CURVE SMOOTH",
"414 243 OFFCURVE",
"458 224 OFFCURVE",
"458 182 CURVE SMOOTH",
"458 128 OFFCURVE",
"432 100 OFFCURVE",
"306 100 CURVE SMOOTH",
"222 100 OFFCURVE",
"161 106 OFFCURVE",
"161 175 CURVE",
"61 175 LINE",
"61 56 OFFCURVE",
"139 0 OFFCURVE",
"306 0 CURVE SMOOTH",
"495 0 OFFCURVE",
"558 41 OFFCURVE",
"558 186 CURVE SMOOTH",
"558 335 OFFCURVE",
"412 343 OFFCURVE",
"315 343 CURVE SMOOTH",
"196 343 OFFCURVE",
"156 356 OFFCURVE",
"156 408 CURVE SMOOTH",
"156 462 OFFCURVE",
"172 490 OFFCURVE",
"302 490 CURVE SMOOTH",
"413 490 OFFCURVE",
"456 480 OFFCURVE",
"456 403 CURVE"
);
}
);
width = 600;
},
{
associatedMasterId = "220D0E0B-3E90-41D6-A266-882B21BA5595";
layerId = "81BFB985-51C2-4612-8E54-1053AF7235AB";
paths = (
{
closed = 1;
nodes = (
"556 403 LINE",
"556 534 OFFCURVE",
"483 590 OFFCURVE",
"302 590 CURVE SMOOTH",
"112 590 OFFCURVE",
"56 521 OFFCURVE",
"56 405 CURVE SMOOTH",
"56 263 OFFCURVE",
"159 243 OFFCURVE",
"306 243 CURVE SMOOTH",
"414 243 OFFCURVE",
"458 221 OFFCURVE",
"458 179 CURVE SMOOTH",
"458 115 OFFCURVE",
"431 96 OFFCURVE",
"306 96 CURVE SMOOTH",
"222 96 OFFCURVE",
"161 106 OFFCURVE",
"161 175 CURVE",
"61 175 LINE",
"61 53 OFFCURVE",
"139 0 OFFCURVE",
"306 0 CURVE SMOOTH",
"495 0 OFFCURVE",
"559 38 OFFCURVE",
"558 183 CURVE SMOOTH",
"557 314 OFFCURVE",
"427 334 OFFCURVE",
"330 334 CURVE SMOOTH",
"191 334 OFFCURVE",
"156 356 OFFCURVE",
"156 408 CURVE SMOOTH",
"156 462 OFFCURVE",
"169 494 OFFCURVE",
"302 494 CURVE SMOOTH",
"413 494 OFFCURVE",
"456 480 OFFCURVE",
"456 403 CURVE"
);
}
);
width = 600;
},
{
associatedMasterId = "220D0E0B-3E90-41D6-A266-882B21BA5595";
layerId = "65FBDA72-A216-48A0-8AC4-D0917FE87CAF";
paths = (
{
closed = 1;
nodes = (
"561 416 LINE",
"561 547 OFFCURVE",
"488 603 OFFCURVE",
"297 603 CURVE SMOOTH",
"95 603 OFFCURVE",
"39 534 OFFCURVE",
"39 418 CURVE SMOOTH",
"39 276 OFFCURVE",
"142 243 OFFCURVE",
"301 243 CURVE SMOOTH",
"409 243 OFFCURVE",
"463 208 OFFCURVE",
"463 166 CURVE SMOOTH",
"463 102 OFFCURVE",
"436 83 OFFCURVE",
"301 83 CURVE SMOOTH",
"205 83 OFFCURVE",
"144 93 OFFCURVE",
"144 162 CURVE",
"44 162 LINE",
"44 40 OFFCURVE",
"122 -13 OFFCURVE",
"301 -13 CURVE SMOOTH",
"500 -13 OFFCURVE",
"564 25 OFFCURVE",
"563 170 CURVE SMOOTH",
"562 301 OFFCURVE",
"432 334 OFFCURVE",
"325 334 CURVE SMOOTH",
"174 334 OFFCURVE",
"139 369 OFFCURVE",
"139 421 CURVE SMOOTH",
"139 475 OFFCURVE",
"152 507 OFFCURVE",
"297 507 CURVE SMOOTH",
"408 507 OFFCURVE",
"461 493 OFFCURVE",
"461 416 CURVE"
);
}
);
width = 600;
},
{
anchors = (
{
name = top;
position = "{301, 562}";
}
);
associatedMasterId = "220D0E0B-3E90-41D6-A266-882B21BA5595";
layerId = "CFCB86F8-DBF3-4793-AC9C-76AD2F392613";
paths = (
{
closed = 1;
nodes = (
"561 416 LINE",
"561 547 OFFCURVE",
"488 603 OFFCURVE",
"297 603 CURVE SMOOTH",
"95 603 OFFCURVE",
"39 531 OFFCURVE",
"39 410 CURVE SMOOTH",
"39 284 OFFCURVE",
"152 249 OFFCURVE",
"301 249 CURVE SMOOTH",
"437 249 OFFCURVE",
"463 231 OFFCURVE",
"463 177 CURVE SMOOTH",
"463 93 OFFCURVE",
"422 82 OFFCURVE",
"301 82 CURVE SMOOTH",
"205 82 OFFCURVE",
"144 93 OFFCURVE",
"144 162 CURVE",
"44 162 LINE",
"44 40 OFFCURVE",
"122 -13 OFFCURVE",
"301 -13 CURVE SMOOTH",
"500 -13 OFFCURVE",
"564 32 OFFCURVE",
"563 177 CURVE SMOOTH",
"562 287 OFFCURVE",
"497 344 OFFCURVE",
"314 344 CURVE SMOOTH",
"178 344 OFFCURVE",
"139 356 OFFCURVE",
"139 413 CURVE SMOOTH",
"139 479 OFFCURVE",
"152 508 OFFCURVE",
"297 508 CURVE SMOOTH",
"408 508 OFFCURVE",
"461 493 OFFCURVE",
"461 416 CURVE"
);
}
);
width = 600;
}
);
unicode = 0053;
},
{
glyphname = T;
lastChange = "2018-06-11 00:11:37 +0200";
layers = (
{
associatedMasterId = "220D0E0B-3E90-41D6-A266-882B21BA5595";
guideLines = (
{
angle = 270;
position = "{327, 204}";
},
{
angle = 270;
position = "{475, 229}";
}
);
layerId = "C43DB6FF-634E-44F3-9DAF-F13B87017CAC";
paths = (
{
closed = 1;
nodes = (
"524 651 LINE",
"524 700 LINE",
"80 700 LINE",
"80 651 LINE",
"278 651 LINE",
"278 49 LINE",
"129 49 LINE",
"129 0 LINE",
"473 0 LINE",
"473 49 LINE",
"328 49 LINE",
"328 651 LINE"
);
},
{
closed = 1;
nodes = (
"550 475 LINE",
"599 475 LINE",
"524 700 LINE",
"475 700 LINE"
);
},
{
closed = 1;
nodes = (
"1 475 LINE",
"50 475 LINE",
"129 700 LINE",
"80 700 LINE"
);
}
);
width = 600;
},
{
layerId = "220D0E0B-3E90-41D6-A266-882B21BA5595";
name = Bold;
paths = (
{
closed = 1;
nodes = (
"564 590 LINE",
"37 590 LINE",
"37 495 LINE",
"251 495 LINE",
"251 0 LINE",
"351 0 LINE",
"351 495 LINE",
"564 495 LINE"
);
}
);
width = 600;
},
{
associatedMasterId = "220D0E0B-3E90-41D6-A266-882B21BA5595";
guideLines = (
{
angle = 270;
position = "{79, 148}";
},
{
angle = 270;
position = "{278, 164}";
}
);
layerId = "3441B6D9-6F8A-4B22-B1AA-7161CD022F91";
paths = (
{
closed = 1;
nodes = (
"577 651 LINE",
"577 700 LINE",
"30 700 LINE",
"30 651 LINE",
"278 651 LINE",
"278 49 LINE",
"163 49 LINE",
"163 0 LINE",
"444 0 LINE",
"444 49 LINE",
"328 49 LINE",
"328 651 LINE"
);
},
{
closed = 1;
nodes = (
"528 435 LINE",
"577 435 LINE",
"577 700 LINE",
"528 700 LINE"
);
},
{
closed = 1;
nodes = (
"30 435 LINE",
"79 435 LINE",
"79 700 LINE",
"30 700 LINE"
);
}
);
width = 600;
},
{
associatedMasterId = "220D0E0B-3E90-41D6-A266-882B21BA5595";
layerId = "DFE8F7EC-62E1-4714-AC20-5817034F21DE";
width = 600;
}
);
unicode = 0054;
},
{
glyphname = U;
lastChange = "2018-06-11 00:11:37 +0200";
layers = (
{
anchors = (
{
name = top;
position = "{300, 602}";
}
);
layerId = "220D0E0B-3E90-41D6-A266-882B21BA5595";
name = Bold;
paths = (
{
closed = 1;
nodes = (
"449 228 LINE SMOOTH",
"449 140 OFFCURVE",
"423 95 OFFCURVE",
"300 95 CURVE SMOOTH",
"181 95 OFFCURVE",
"151 140 OFFCURVE",
"151 228 CURVE SMOOTH",
"151 590 LINE",
"51 590 LINE",
"51 228 LINE SMOOTH",
"51 59 OFFCURVE",
"114 0 OFFCURVE",
"300 0 CURVE SMOOTH",
"486 0 OFFCURVE",
"549 59 OFFCURVE",
"549 228 CURVE SMOOTH",
"549 590 LINE",
"449 590 LINE"
);
}
);
width = 600;
},
{
associatedMasterId = "220D0E0B-3E90-41D6-A266-882B21BA5595";
layerId = "DFE8F7EC-62E1-4714-AC20-5817034F21DE";
width = 600;
},
{
associatedMasterId = "220D0E0B-3E90-41D6-A266-882B21BA5595";
layerId = "136F57A2-1193-461A-8A13-971A54AE3F04";
paths = (
{
closed = 1;
nodes = (
"457 228 LINE",
"457 117 OFFCURVE",
"432 90 OFFCURVE",
"305 90 CURVE SMOOTH",
"180 90 OFFCURVE",
"153 117 OFFCURVE",
"153 228 CURVE",
"63 228 LINE",
"63 62 OFFCURVE",
"119 0 OFFCURVE",
"305 0 CURVE SMOOTH",
"491 0 OFFCURVE",
"547 62 OFFCURVE",
"547 228 CURVE"
);
},
{
closed = 1;
nodes = (
"63 228 LINE",
"153 228 LINE",
"153 590 LINE",
"63 590 LINE"
);
},
{
closed = 1;
nodes = (
"457 228 LINE",
"547 228 LINE",
"547 590 LINE",
"457 590 LINE"
);
}
);
width = 600;
},
{
associatedMasterId = "220D0E0B-3E90-41D6-A266-882B21BA5595";
layerId = "8B424788-F736-4475-982B-5874C2022D94";
paths = (
{
closed = 1;
nodes = (
"457 228 LINE SMOOTH",
"457 140 OFFCURVE",
"432 88 OFFCURVE",
"305 88 CURVE SMOOTH",
"180 88 OFFCURVE",
"153 140 OFFCURVE",
"153 228 CURVE SMOOTH",
"153 590 LINE",
"63 590 LINE",
"63 228 LINE SMOOTH",
"63 62 OFFCURVE",
"119 0 OFFCURVE",
"305 0 CURVE SMOOTH",
"491 0 OFFCURVE",
"547 62 OFFCURVE",
"547 228 CURVE SMOOTH",
"547 590 LINE",
"457 590 LINE"
);
}
);
width = 600;
},
{
associatedMasterId = "220D0E0B-3E90-41D6-A266-882B21BA5595";
layerId = "E8C62667-462B-420F-A563-CA19100ECB09";
paths = (
{
closed = 1;
nodes = (
"446 228 LINE SMOOTH",
"446 140 OFFCURVE",
"417 95 OFFCURVE",
"294 95 CURVE SMOOTH",
"175 95 OFFCURVE",
"142 140 OFFCURVE",
"142 228 CURVE SMOOTH",
"142 590 LINE",
"42 590 LINE",
"42 228 LINE SMOOTH",
"42 59 OFFCURVE",
"108 0 OFFCURVE",
"294 0 CURVE SMOOTH",
"480 0 OFFCURVE",
"546 59 OFFCURVE",
"546 228 CURVE SMOOTH",
"546 590 LINE",
"446 590 LINE"
);
}
);
width = 600;
}
);
unicode = 0055;
},
{
glyphname = V;
lastChange = "2018-06-11 00:11:37 +0200";
layers = (
{
layerId = "220D0E0B-3E90-41D6-A266-882B21BA5595";
name = Bold;
paths = (
{
closed = 1;
nodes = (
"457 590 LINE",
"317 96 LINE",
"283 96 LINE",
"142 590 LINE",
"39 590 LINE",
"205 1 LINE",
"395 1 LINE",
"560 590 LINE"
);
}
);
width = 600;
},
{
associatedMasterId = "220D0E0B-3E90-41D6-A266-882B21BA5595";
layerId = "DFE8F7EC-62E1-4714-AC20-5817034F21DE";
width = 600;
},
{
associatedMasterId = "220D0E0B-3E90-41D6-A266-882B21BA5595";
layerId = "2C0CFDF1-D866-4770-95C5-D1A358F50084";
paths = (
{
closed = 1;
nodes = (
"311 1 LINE",
"406 1 LINE",
"534 590 LINE",
"439 590 LINE"
);
},
{
closed = 1;
nodes = (
"228 1 LINE",
"368 1 LINE",
"368 86 LINE",
"228 86 LINE"
);
},
{
closed = 1;
nodes = (
"63 590 LINE",
"191 1 LINE",
"286 1 LINE",
"158 590 LINE"
);
}
);
width = 600;
},
{
associatedMasterId = "220D0E0B-3E90-41D6-A266-882B21BA5595";
layerId = "8B065814-3E37-4280-9A22-17ACF16B6D13";
paths = (
{
closed = 1;
nodes = (
"300 1 LINE",
"403 1 LINE",
"561 590 LINE",
"458 590 LINE"
);
},
{
closed = 1;
nodes = (
"220 1 LINE",
"380 1 LINE",
"380 96 LINE",
"220 96 LINE"
);
},
{
closed = 1;
nodes = (
"40 590 LINE",
"198 1 LINE",
"301 1 LINE",
"143 590 LINE"
);
}
);
width = 600;
}
);
unicode = 0056;
},
{
glyphname = W;
lastChange = "2018-06-11 00:11:37 +0200";
layers = (
{
anchors = (
{
name = top;
position = "{300, 592}";
}
);
layerId = "220D0E0B-3E90-41D6-A266-882B21BA5595";
name = Bold;
paths = (
{
closed = 1;
nodes = (
"471 590 LINE",
"407 125 LINE",
"353 358 LINE",
"247 358 LINE",
"194 125 LINE",
"130 590 LINE",
"33 590 LINE",
"119 0 LINE",
"251 0 LINE",
"301 245 LINE",
"351 0 LINE",
"483 0 LINE",
"568 590 LINE"
);
}
);
width = 600;
},
{
associatedMasterId = "220D0E0B-3E90-41D6-A266-882B21BA5595";
layerId = "DFE8F7EC-62E1-4714-AC20-5817034F21DE";
width = 600;
},
{
associatedMasterId = "220D0E0B-3E90-41D6-A266-882B21BA5595";
layerId = "E8C11F98-B85B-4993-BE27-4FD2BD75025F";
paths = (
{
closed = 1;
nodes = (
"166 0 LINE",
"257 0 LINE",
"346 345 LINE",
"255 345 LINE"
);
},
{
closed = 1;
nodes = (
"205 0 LINE",
"143 590 LINE",
"52 590 LINE",
"114 0 LINE"
);
},
{
closed = 1;
nodes = (
"255 345 LINE",
"339 0 LINE",
"430 0 LINE",
"346 345 LINE"
);
},
{
closed = 1;
nodes = (
"545 590 LINE",
"454 590 LINE",
"391 0 LINE",
"482 0 LINE SMOOTH"
);
}
);
width = 600;
},
{
associatedMasterId = "220D0E0B-3E90-41D6-A266-882B21BA5595";
layerId = "20671A15-6D90-48E3-B1D5-88FE075B53C0";
paths = (
{
closed = 1;
nodes = (
"403 111 LINE",
"346 315 LINE",
"255 315 LINE",
"194 107 LINE",
"143 590 LINE",
"52 590 LINE",
"114 0 LINE",
"166 0 LINE",
"257 0 LINE",
"299 194 LINE",
"339 0 LINE",
"391 0 LINE",
"482 0 LINE",
"545 590 LINE",
"454 590 LINE"
);
}
);
width = 600;
}
);
unicode = 0057;
},
{
glyphname = X;
lastChange = "2018-06-11 00:11:37 +0200";
layers = (
{
layerId = "220D0E0B-3E90-41D6-A266-882B21BA5595";
name = Bold;
paths = (
{
closed = 1;
nodes = (
"555 590 LINE",
"436 590 LINE",
"300 395 LINE",
"164 590 LINE",
"45 590 LINE",
"241 302 LINE",
"56 0 LINE",
"174 0 LINE",
"300 209 LINE",
"426 0 LINE",
"544 0 LINE",
"359 302 LINE"
);
}
);
width = 600;
},
{
associatedMasterId = "220D0E0B-3E90-41D6-A266-882B21BA5595";
layerId = "DFE8F7EC-62E1-4714-AC20-5817034F21DE";
width = 600;
}
);
unicode = 0058;
},
{
glyphname = Y;
lastChange = "2018-06-11 00:11:37 +0200";
layers = (
{
anchors = (
{
name = top;
position = "{300, 603}";
}
);
layerId = "220D0E0B-3E90-41D6-A266-882B21BA5595";
name = Bold;
paths = (
{
closed = 1;
nodes = (
"454 590 LINE",
"300 326 LINE",
"142 590 LINE",
"36 590 LINE",
"250 221 LINE",
"250 0 LINE",
"350 0 LINE",
"350 221 LINE",
"564 590 LINE"
);
}
);
width = 600;
},
{
associatedMasterId = "220D0E0B-3E90-41D6-A266-882B21BA5595";
layerId = "DFE8F7EC-62E1-4714-AC20-5817034F21DE";
width = 600;
},
{
associatedMasterId = "220D0E0B-3E90-41D6-A266-882B21BA5595";
layerId = "E941FAE8-C341-4763-BA5D-253BB76A88EA";
paths = (
{
closed = 1;
nodes = (
"162 590 LINE",
"64 590 LINE",
"251 196 LINE",
"349 196 LINE"
);
},
{
closed = 1;
nodes = (
"349 196 LINE",
"531 590 LINE",
"433 590 LINE",
"251 196 LINE"
);
},
{
closed = 1;
nodes = (
"255 0 LINE",
"345 0 LINE",
"345 273 LINE",
"255 273 LINE"
);
}
);
width = 600;
},
{
associatedMasterId = "220D0E0B-3E90-41D6-A266-882B21BA5595";
layerId = "FB106A6E-26C0-477F-A3CE-EABFE9BE3099";
paths = (
{
closed = 1;
nodes = (
"159 590 LINE",
"52 590 LINE",
"249 273 LINE",
"349 273 LINE"
);
},
{
closed = 1;
nodes = (
"249 0 LINE",
"349 0 LINE",
"349 273 LINE",
"249 273 LINE"
);
},
{
closed = 1;
nodes = (
"349 273 LINE",
"546 590 LINE",
"439 590 LINE",
"249 273 LINE"
);
}
);
width = 600;
},
{
associatedMasterId = "220D0E0B-3E90-41D6-A266-882B21BA5595";
layerId = "5B7C4A15-76A2-4EAF-A3E1-CAF8ABE46B44";
paths = (
{
closed = 1;
nodes = (
"429 590 LINE",
"299 376 LINE",
"169 590 LINE",
"52 590 LINE",
"249 273 LINE",
"249 0 LINE",
"349 0 LINE",
"349 273 LINE",
"546 590 LINE"
);
}
);
width = 600;
},
{
associatedMasterId = "220D0E0B-3E90-41D6-A266-882B21BA5595";
layerId = "8E5A990D-FF21-411F-805F-77AC8B5880D1";
paths = (
{
closed = 1;
nodes = (
"438 590 LINE",
"299 339 LINE",
"156 590 LINE",
"50 590 LINE",
"249 233 LINE",
"249 0 LINE",
"349 0 LINE",
"349 233 LINE",
"548 590 LINE"
);
}
);
width = 600;
},
{
associatedMasterId = "220D0E0B-3E90-41D6-A266-882B21BA5595";
layerId = "5CBB49E1-2137-4500-9216-8A255DD8D588";
paths = (
{
closed = 1;
nodes = (
"448 590 LINE",
"299 339 LINE",
"146 590 LINE",
"40 590 LINE",
"249 233 LINE",
"249 0 LINE",
"349 0 LINE",
"349 233 LINE",
"558 590 LINE"
);
}
);
width = 600;
}
);
unicode = 0059;
},
{
glyphname = Z;
lastChange = "2018-06-11 00:11:37 +0200";
layers = (
{
anchors = (
{
name = top;
position = "{293, 603}";
}
);
layerId = "220D0E0B-3E90-41D6-A266-882B21BA5595";
name = Bold;
paths = (
{
closed = 1;
nodes = (
"540 590 LINE",
"61 590 LINE",
"61 490 LINE",
"408 490 LINE",
"61 100 LINE",
"61 0 LINE",
"540 0 LINE",
"540 100 LINE",
"192 100 LINE",
"540 490 LINE"
);
}
);
width = 600;
},
{
associatedMasterId = "220D0E0B-3E90-41D6-A266-882B21BA5595";
layerId = "DFE8F7EC-62E1-4714-AC20-5817034F21DE";
width = 600;
},
{
associatedMasterId = "220D0E0B-3E90-41D6-A266-882B21BA5595";
layerId = "9D03279A-C09A-4D0C-9234-3DA8903304A4";
paths = (
{
closed = 1;
nodes = (
"64 505 LINE",
"548 505 LINE",
"548 590 LINE",
"64 590 LINE"
);
},
{
closed = 1;
nodes = (
"63 0 LINE",
"542 0 LINE",
"542 78 LINE",
"63 78 LINE SMOOTH"
);
},
{
closed = 1;
nodes = (
"179 85 LINE",
"548 504 LINE",
"432 504 LINE",
"63 85 LINE"
);
}
);
width = 600;
},
{
associatedMasterId = "220D0E0B-3E90-41D6-A266-882B21BA5595";
layerId = "785AC10F-D936-490C-B631-9CD42EA0C4AD";
paths = (
{
closed = 1;
nodes = (
"543 590 LINE",
"64 590 LINE",
"64 490 LINE",
"416 490 LINE",
"64 100 LINE",
"64 0 LINE",
"543 0 LINE",
"543 100 LINE",
"190 100 LINE",
"543 490 LINE"
);
}
);
width = 600;
}
);
unicode = 005A;
},
{
glyphname = a;
lastChange = "2018-06-11 00:11:37 +0200";
layers = (
{
associatedMasterId = "220D0E0B-3E90-41D6-A266-882B21BA5595";
layerId = "C3559CF4-23B6-4766-9E01-637F7F2FC2FA";
paths = (
{
closed = 1;
nodes = (
"531 116 LINE",
"518 63 OFFCURVE",
"500 49 OFFCURVE",
"493 49 CURVE SMOOTH",
"482 49 OFFCURVE",
"482 60 OFFCURVE",
"482 78 CURVE SMOOTH",
"482 331 LINE SMOOTH",
"482 431 OFFCURVE",
"351 463 OFFCURVE",
"265 463 CURVE SMOOTH",
"157 463 OFFCURVE",
"48 442 OFFCURVE",
"48 348 CURVE SMOOTH",
"48 310 OFFCURVE",
"79 285 OFFCURVE",
"106 285 CURVE SMOOTH",
"133 285 OFFCURVE",
"156 306 OFFCURVE",
"156 333 CURVE SMOOTH",
"156 357 OFFCURVE",
"134 379 OFFCURVE",
"109 372 CURVE",
"113 388 OFFCURVE",
"176 413 OFFCURVE",
"270 413 CURVE SMOOTH",
"318 413 OFFCURVE",
"429 401 OFFCURVE",
"429 327 CURVE SMOOTH",
"429 278 OFFCURVE",
"334 277 OFFCURVE",
"258 277 CURVE SMOOTH",
"156 277 OFFCURVE",
"39 242 OFFCURVE",
"40 116 CURVE SMOOTH",
"41 29 OFFCURVE",
"118 -10 OFFCURVE",
"216 -10 CURVE SMOOTH",
"294 -10 OFFCURVE",
"370 12 OFFCURVE",
"431 59 CURVE",
"431 19 OFFCURVE",
"444 -8 OFFCURVE",
"474 -8 CURVE SMOOTH",
"548 -8 OFFCURVE",
"553 19 OFFCURVE",
"582 97 CURVE"
);
},
{
closed = 1;
nodes = (
"380 83 OFFCURVE",
"316 44 OFFCURVE",
"222 44 CURVE SMOOTH",
"145 44 OFFCURVE",
"96 73 OFFCURVE",
"95 118 CURVE SMOOTH",
"93 207 OFFCURVE",
"178 223 OFFCURVE",
"259 223 CURVE SMOOTH",
"335 223 OFFCURVE",
"373 222 OFFCURVE",
"427 247 CURVE",
"430 131 LINE"
);
}
);
width = 600;
},
{
associatedMasterId = "220D0E0B-3E90-41D6-A266-882B21BA5595";
layerId = "12B5BE15-FEE8-451D-A159-19F191490F7A";
paths = (
{
closed = 1;
nodes = (
"437 24 OFFCURVE",
"455 -1 OFFCURVE",
"489 -1 CURVE SMOOTH",
"522 -1 OFFCURVE",
"544 7 OFFCURVE",
"577 95 CURVE",
"531 116 LINE",
"511 65 OFFCURVE",
"500 44 OFFCURVE",
"493 44 CURVE SMOOTH",
"482 44 OFFCURVE",
"482 55 OFFCURVE",
"482 73 CURVE SMOOTH",
"482 331 LINE SMOOTH",
"482 431 OFFCURVE",
"351 463 OFFCURVE",
"265 463 CURVE SMOOTH",
"157 463 OFFCURVE",
"48 442 OFFCURVE",
"48 348 CURVE SMOOTH",
"48 310 OFFCURVE",
"79 285 OFFCURVE",
"106 285 CURVE SMOOTH",
"133 285 OFFCURVE",
"156 306 OFFCURVE",
"156 333 CURVE SMOOTH",
"156 357 OFFCURVE",
"134 379 OFFCURVE",
"109 372 CURVE",
"113 388 OFFCURVE",
"176 413 OFFCURVE",
"270 413 CURVE SMOOTH",
"318 413 OFFCURVE",
"429 401 OFFCURVE",
"429 327 CURVE SMOOTH",
"429 278 OFFCURVE",
"334 277 OFFCURVE",
"258 277 CURVE SMOOTH",
"156 277 OFFCURVE",
"39 242 OFFCURVE",
"40 116 CURVE SMOOTH",
"41 29 OFFCURVE",
"118 -10 OFFCURVE",
"216 -10 CURVE SMOOTH",
"294 -10 OFFCURVE",
"370 12 OFFCURVE",
"431 59 CURVE"
);
},
{
closed = 1;
nodes = (
"380 83 OFFCURVE",
"316 44 OFFCURVE",
"222 44 CURVE SMOOTH",
"145 44 OFFCURVE",
"96 73 OFFCURVE",
"95 118 CURVE SMOOTH",
"93 207 OFFCURVE",
"178 223 OFFCURVE",
"259 223 CURVE SMOOTH",
"335 223 OFFCURVE",
"373 222 OFFCURVE",
"427 247 CURVE",
"430 131 LINE"
);
}
);
width = 600;
},
{
associatedMasterId = "220D0E0B-3E90-41D6-A266-882B21BA5595";
layerId = "5883F2AD-BBE2-41BE-ACFF-A601F3CB571B";
paths = (
{
closed = 1;
nodes = (
"431 19 OFFCURVE",
"459 -8 OFFCURVE",
"489 -8 CURVE SMOOTH",
"522 -8 OFFCURVE",
"557 19 OFFCURVE",
"579 68 CURVE",
"546 91 LINE",
"530 65 OFFCURVE",
"515 46 OFFCURVE",
"501 44 CURVE SMOOTH",
"490 43 OFFCURVE",
"482 55 OFFCURVE",
"482 73 CURVE SMOOTH",
"482 331 LINE SMOOTH",
"482 431 OFFCURVE",
"351 463 OFFCURVE",
"265 463 CURVE SMOOTH",
"172 463 OFFCURVE",
"63 442 OFFCURVE",
"63 348 CURVE SMOOTH",
"63 310 OFFCURVE",
"94 285 OFFCURVE",
"121 285 CURVE SMOOTH",
"148 285 OFFCURVE",
"171 306 OFFCURVE",
"171 333 CURVE SMOOTH",
"171 357 OFFCURVE",
"149 379 OFFCURVE",
"124 372 CURVE",
"128 388 OFFCURVE",
"191 413 OFFCURVE",
"270 413 CURVE SMOOTH",
"318 413 OFFCURVE",
"429 401 OFFCURVE",
"429 327 CURVE SMOOTH",
"429 278 OFFCURVE",
"334 277 OFFCURVE",
"258 277 CURVE SMOOTH",
"156 277 OFFCURVE",
"39 242 OFFCURVE",
"40 116 CURVE SMOOTH",
"41 29 OFFCURVE",
"118 -10 OFFCURVE",
"216 -10 CURVE SMOOTH",
"294 -10 OFFCURVE",
"370 12 OFFCURVE",
"431 59 CURVE"
);
},
{
closed = 1;
nodes = (
"380 83 OFFCURVE",
"316 44 OFFCURVE",
"222 44 CURVE SMOOTH",
"145 44 OFFCURVE",
"96 73 OFFCURVE",
"95 118 CURVE SMOOTH",
"93 207 OFFCURVE",
"178 223 OFFCURVE",
"259 223 CURVE SMOOTH",
"335 223 OFFCURVE",
"373 222 OFFCURVE",
"427 247 CURVE",
"430 131 LINE"
);
}
);
width = 600;
},
{
associatedMasterId = "220D0E0B-3E90-41D6-A266-882B21BA5595";
layerId = "793C58B2-16E6-4A84-A716-50758DF14FE7";
paths = (
{
closed = 1;
nodes = (
"537 128 LINE",
"525 75 OFFCURVE",
"510 54 OFFCURVE",
"497 54 CURVE SMOOTH",
"488 54 OFFCURVE",
"482 63 OFFCURVE",
"482 89 CURVE SMOOTH",
"482 331 LINE SMOOTH",
"482 431 OFFCURVE",
"351 463 OFFCURVE",
"265 463 CURVE SMOOTH",
"181 463 OFFCURVE",
"72 442 OFFCURVE",
"72 348 CURVE SMOOTH",
"72 310 OFFCURVE",
"103 285 OFFCURVE",
"130 285 CURVE SMOOTH",
"157 285 OFFCURVE",
"180 306 OFFCURVE",
"180 333 CURVE SMOOTH",
"180 357 OFFCURVE",
"158 379 OFFCURVE",
"133 372 CURVE",
"137 388 OFFCURVE",
"200 413 OFFCURVE",
"270 413 CURVE SMOOTH",
"318 413 OFFCURVE",
"429 401 OFFCURVE",
"429 327 CURVE SMOOTH",
"429 278 OFFCURVE",
"334 277 OFFCURVE",
"258 277 CURVE SMOOTH",
"156 277 OFFCURVE",
"39 242 OFFCURVE",
"40 116 CURVE SMOOTH",
"41 29 OFFCURVE",
"118 -10 OFFCURVE",
"216 -10 CURVE SMOOTH",
"294 -10 OFFCURVE",
"365 6 OFFCURVE",
"426 53 CURVE",
"436 28 LINE SMOOTH",
"448 -2 OFFCURVE",
"478 -5 OFFCURVE",
"499 -5 CURVE SMOOTH",
"523 -5 OFFCURVE",
"556 13 OFFCURVE",
"573 64 CURVE SMOOTH",
"588 109 LINE"
);
},
{
closed = 1;
nodes = (
"377 80 OFFCURVE",
"316 44 OFFCURVE",
"222 44 CURVE SMOOTH",
"145 44 OFFCURVE",
"96 73 OFFCURVE",
"95 118 CURVE SMOOTH",
"93 207 OFFCURVE",
"178 223 OFFCURVE",
"259 223 CURVE SMOOTH",
"335 223 OFFCURVE",
"373 222 OFFCURVE",
"427 247 CURVE",
"427 128 LINE"
);
}
);
width = 600;
},
{
associatedMasterId = "220D0E0B-3E90-41D6-A266-882B21BA5595";
layerId = "CC463851-7A05-4FC5-8B76-37028F1FC54D";
paths = (
{
closed = 1;
nodes = (
"531 116 LINE",
"510 67 OFFCURVE",
"500 49 OFFCURVE",
"493 49 CURVE SMOOTH",
"482 49 OFFCURVE",
"482 60 OFFCURVE",
"482 78 CURVE SMOOTH",
"482 331 LINE SMOOTH",
"482 431 OFFCURVE",
"351 463 OFFCURVE",
"265 463 CURVE SMOOTH",
"184 463 OFFCURVE",
"75 442 OFFCURVE",
"75 348 CURVE SMOOTH",
"75 310 OFFCURVE",
"106 285 OFFCURVE",
"133 285 CURVE SMOOTH",
"160 285 OFFCURVE",
"183 306 OFFCURVE",
"183 333 CURVE SMOOTH",
"183 357 OFFCURVE",
"161 379 OFFCURVE",
"136 372 CURVE",
"140 388 OFFCURVE",
"203 413 OFFCURVE",
"270 413 CURVE SMOOTH",
"318 413 OFFCURVE",
"429 401 OFFCURVE",
"429 327 CURVE SMOOTH",
"429 278 OFFCURVE",
"334 277 OFFCURVE",
"258 277 CURVE SMOOTH",
"156 277 OFFCURVE",
"39 242 OFFCURVE",
"40 116 CURVE SMOOTH",
"41 29 OFFCURVE",
"118 -10 OFFCURVE",
"216 -10 CURVE SMOOTH",
"294 -10 OFFCURVE",
"370 12 OFFCURVE",
"431 59 CURVE",
"431 19 OFFCURVE",
"459 -5 OFFCURVE",
"489 -5 CURVE SMOOTH",
"519 -5 OFFCURVE",
"535 1 OFFCURVE",
"548 27 CURVE SMOOTH",
"582 97 LINE"
);
},
{
closed = 1;
nodes = (
"380 83 OFFCURVE",
"316 44 OFFCURVE",
"222 44 CURVE SMOOTH",
"145 44 OFFCURVE",
"96 73 OFFCURVE",
"95 118 CURVE SMOOTH",
"93 207 OFFCURVE",
"178 223 OFFCURVE",
"259 223 CURVE SMOOTH",
"335 223 OFFCURVE",
"373 222 OFFCURVE",
"427 247 CURVE",
"430 131 LINE"
);
}
);
width = 600;
},
{
associatedMasterId = "220D0E0B-3E90-41D6-A266-882B21BA5595";
layerId = "5E55D25E-E7A6-42E7-AD3C-A583AF4D179F";
paths = (
{
closed = 1;
nodes = (
"603 155 LINE",
"571 79 OFFCURVE",
"552 40 OFFCURVE",
"516 40 CURVE SMOOTH",
"482 40 OFFCURVE",
"482 73 OFFCURVE",
"482 162 CURVE SMOOTH",
"482 331 LINE SMOOTH",
"482 431 OFFCURVE",
"351 463 OFFCURVE",
"265 463 CURVE SMOOTH",
"184 463 OFFCURVE",
"75 442 OFFCURVE",
"75 348 CURVE SMOOTH",
"75 310 OFFCURVE",
"106 285 OFFCURVE",
"133 285 CURVE SMOOTH",
"160 285 OFFCURVE",
"183 306 OFFCURVE",
"183 333 CURVE SMOOTH",
"183 357 OFFCURVE",
"161 379 OFFCURVE",
"136 372 CURVE",
"140 388 OFFCURVE",
"203 413 OFFCURVE",
"270 413 CURVE SMOOTH",
"318 413 OFFCURVE",
"429 401 OFFCURVE",
"429 327 CURVE SMOOTH",
"429 278 OFFCURVE",
"334 277 OFFCURVE",
"258 277 CURVE SMOOTH",
"156 277 OFFCURVE",
"39 242 OFFCURVE",
"40 116 CURVE SMOOTH",
"41 29 OFFCURVE",
"118 -10 OFFCURVE",
"216 -10 CURVE SMOOTH",
"294 -10 OFFCURVE",
"372 16 OFFCURVE",
"434 93 CURVE",
"434 9 OFFCURVE",
"479 -8 OFFCURVE",
"509 -8 CURVE SMOOTH",
"569 -8 OFFCURVE",
"592 22 OFFCURVE",
"613 66 CURVE SMOOTH",
"638 118 LINE"
);
},
{
closed = 1;
nodes = (
"377 123 OFFCURVE",
"316 44 OFFCURVE",
"222 44 CURVE SMOOTH",
"145 44 OFFCURVE",
"96 73 OFFCURVE",
"95 118 CURVE SMOOTH",
"93 207 OFFCURVE",
"178 223 OFFCURVE",
"259 223 CURVE SMOOTH",
"335 223 OFFCURVE",
"373 222 OFFCURVE",
"427 247 CURVE",
"427 171 LINE"
);
}
);
width = 600;
},
{
associatedMasterId = "220D0E0B-3E90-41D6-A266-882B21BA5595";
layerId = "11C8910D-7CBB-4482-84E2-8FE9E22BD354";
paths = (
{
closed = 1;
nodes = (
"570 163 LINE",
"530 63 OFFCURVE",
"521 44 OFFCURVE",
"503 44 CURVE SMOOTH",
"486 44 OFFCURVE",
"482 60 OFFCURVE",
"482 126 CURVE SMOOTH",
"482 331 LINE SMOOTH",
"482 431 OFFCURVE",
"351 463 OFFCURVE",
"265 463 CURVE SMOOTH",
"184 463 OFFCURVE",
"75 442 OFFCURVE",
"75 348 CURVE SMOOTH",
"75 310 OFFCURVE",
"106 285 OFFCURVE",
"133 285 CURVE SMOOTH",
"160 285 OFFCURVE",
"183 306 OFFCURVE",
"183 333 CURVE SMOOTH",
"183 357 OFFCURVE",
"161 379 OFFCURVE",
"136 372 CURVE",
"140 388 OFFCURVE",
"203 413 OFFCURVE",
"270 413 CURVE SMOOTH",
"318 413 OFFCURVE",
"429 401 OFFCURVE",
"429 327 CURVE SMOOTH",
"429 278 OFFCURVE",
"334 277 OFFCURVE",
"258 277 CURVE SMOOTH",
"156 277 OFFCURVE",
"39 242 OFFCURVE",
"40 116 CURVE SMOOTH",
"41 29 OFFCURVE",
"118 -10 OFFCURVE",
"216 -10 CURVE SMOOTH",
"294 -10 OFFCURVE",
"370 19 OFFCURVE",
"431 88 CURVE",
"434 18 OFFCURVE",
"456 -8 OFFCURVE",
"500 -8 CURVE SMOOTH",
"542 -8 OFFCURVE",
"569 16 OFFCURVE",
"594 78 CURVE SMOOTH",
"621 144 LINE"
);
},
{
closed = 1;
nodes = (
"380 114 OFFCURVE",
"316 44 OFFCURVE",
"222 44 CURVE SMOOTH",
"145 44 OFFCURVE",
"96 73 OFFCURVE",
"95 118 CURVE SMOOTH",
"93 207 OFFCURVE",
"178 223 OFFCURVE",
"259 223 CURVE SMOOTH",
"335 223 OFFCURVE",
"373 222 OFFCURVE",
"427 247 CURVE",
"430 162 LINE"
);
}
);
width = 600;
},
{
associatedMasterId = "220D0E0B-3E90-41D6-A266-882B21BA5595";
layerId = "960EDF14-23BC-49A6-A489-F4953A58AD6A";
paths = (
{
closed = 1;
nodes = (
"572 161 LINE",
"543 96 LINE SMOOTH",
"525 55 OFFCURVE",
"516 43 OFFCURVE",
"503 43 CURVE SMOOTH",
"487 43 OFFCURVE",
"482 60 OFFCURVE",
"482 126 CURVE SMOOTH",
"482 331 LINE SMOOTH",
"482 431 OFFCURVE",
"351 463 OFFCURVE",
"265 463 CURVE SMOOTH",
"184 463 OFFCURVE",
"75 442 OFFCURVE",
"75 348 CURVE SMOOTH",
"75 310 OFFCURVE",
"106 285 OFFCURVE",
"133 285 CURVE SMOOTH",
"160 285 OFFCURVE",
"183 306 OFFCURVE",
"183 333 CURVE SMOOTH",
"183 357 OFFCURVE",
"161 379 OFFCURVE",
"136 372 CURVE",
"140 388 OFFCURVE",
"203 413 OFFCURVE",
"270 413 CURVE SMOOTH",
"318 413 OFFCURVE",
"429 401 OFFCURVE",
"429 327 CURVE SMOOTH",
"429 278 OFFCURVE",
"334 277 OFFCURVE",
"258 277 CURVE SMOOTH",
"156 277 OFFCURVE",
"39 242 OFFCURVE",
"40 116 CURVE SMOOTH",
"41 29 OFFCURVE",
"118 -10 OFFCURVE",
"216 -10 CURVE SMOOTH",
"294 -10 OFFCURVE",
"372 21 OFFCURVE",
"433 90 CURVE",
"429 5 OFFCURVE",
"468 -8 OFFCURVE",
"501 -8 CURVE SMOOTH",
"545 -8 OFFCURVE",
"565 15 OFFCURVE",
"585 59 CURVE SMOOTH",
"623 142 LINE"
);
},
{
closed = 1;
nodes = (
"380 114 OFFCURVE",
"316 44 OFFCURVE",
"222 44 CURVE SMOOTH",
"145 44 OFFCURVE",
"96 73 OFFCURVE",
"95 118 CURVE SMOOTH",
"93 207 OFFCURVE",
"178 223 OFFCURVE",
"259 223 CURVE SMOOTH",
"335 223 OFFCURVE",
"373 222 OFFCURVE",
"427 247 CURVE",
"430 162 LINE"
);
}
);
width = 600;
},
{
associatedMasterId = "220D0E0B-3E90-41D6-A266-882B21BA5595";
layerId = "A6E95E8D-0177-4048-8F79-2A3B263E4595";
paths = (
{
closed = 1;
nodes = (
"531 116 LINE",
"510 67 OFFCURVE",
"500 49 OFFCURVE",
"493 49 CURVE SMOOTH",
"482 49 OFFCURVE",
"482 60 OFFCURVE",
"482 78 CURVE SMOOTH",
"482 331 LINE SMOOTH",
"482 431 OFFCURVE",
"351 463 OFFCURVE",
"265 463 CURVE SMOOTH",
"184 463 OFFCURVE",
"75 442 OFFCURVE",
"75 348 CURVE SMOOTH",
"75 310 OFFCURVE",
"106 285 OFFCURVE",
"133 285 CURVE SMOOTH",
"160 285 OFFCURVE",
"183 306 OFFCURVE",
"183 333 CURVE SMOOTH",
"183 357 OFFCURVE",
"161 379 OFFCURVE",
"136 372 CURVE",
"140 388 OFFCURVE",
"203 413 OFFCURVE",
"270 413 CURVE SMOOTH",
"318 413 OFFCURVE",
"429 401 OFFCURVE",
"429 327 CURVE SMOOTH",
"429 278 OFFCURVE",
"334 277 OFFCURVE",
"258 277 CURVE SMOOTH",
"156 277 OFFCURVE",
"39 242 OFFCURVE",
"40 116 CURVE SMOOTH",
"41 29 OFFCURVE",
"118 -10 OFFCURVE",
"216 -10 CURVE SMOOTH",
"294 -10 OFFCURVE",
"370 12 OFFCURVE",
"431 59 CURVE",
"431 19 OFFCURVE",
"459 -5 OFFCURVE",
"489 -5 CURVE SMOOTH",
"519 -5 OFFCURVE",
"535 1 OFFCURVE",
"548 27 CURVE SMOOTH",
"582 97 LINE"
);
},
{
closed = 1;
nodes = (
"380 83 OFFCURVE",
"316 44 OFFCURVE",
"222 44 CURVE SMOOTH",
"145 44 OFFCURVE",
"96 73 OFFCURVE",
"95 118 CURVE SMOOTH",
"93 207 OFFCURVE",
"178 223 OFFCURVE",
"259 223 CURVE SMOOTH",
"335 223 OFFCURVE",
"373 222 OFFCURVE",
"427 247 CURVE",
"430 131 LINE"
);
}
);
width = 600;
},
{
associatedMasterId = "220D0E0B-3E90-41D6-A266-882B21BA5595";
layerId = "AF546767-1E94-4227-84F4-A693037B334C";
paths = (
{
closed = 1;
nodes = (
"531 116 LINE",
"510 67 OFFCURVE",
"500 49 OFFCURVE",
"493 49 CURVE SMOOTH",
"482 49 OFFCURVE",
"482 60 OFFCURVE",
"482 78 CURVE SMOOTH",
"482 331 LINE SMOOTH",
"482 431 OFFCURVE",
"351 463 OFFCURVE",
"265 463 CURVE SMOOTH",
"204 463 OFFCURVE",
"95 442 OFFCURVE",
"95 348 CURVE SMOOTH",
"95 310 OFFCURVE",
"126 285 OFFCURVE",
"153 285 CURVE SMOOTH",
"180 285 OFFCURVE",
"203 306 OFFCURVE",
"203 333 CURVE SMOOTH",
"203 357 OFFCURVE",
"181 379 OFFCURVE",
"156 372 CURVE",
"160 388 OFFCURVE",
"223 413 OFFCURVE",
"270 413 CURVE SMOOTH",
"318 413 OFFCURVE",
"429 401 OFFCURVE",
"429 327 CURVE SMOOTH",
"429 278 OFFCURVE",
"334 277 OFFCURVE",
"258 277 CURVE SMOOTH",
"156 277 OFFCURVE",
"39 242 OFFCURVE",
"40 116 CURVE SMOOTH",
"41 29 OFFCURVE",
"118 -10 OFFCURVE",
"216 -10 CURVE SMOOTH",
"294 -10 OFFCURVE",
"370 12 OFFCURVE",
"431 59 CURVE",
"431 19 OFFCURVE",
"459 -5 OFFCURVE",
"489 -5 CURVE SMOOTH",
"519 -5 OFFCURVE",
"535 1 OFFCURVE",
"548 27 CURVE SMOOTH",
"582 97 LINE"
);
},
{
closed = 1;
nodes = (
"380 83 OFFCURVE",
"316 44 OFFCURVE",
"222 44 CURVE SMOOTH",
"145 44 OFFCURVE",
"96 73 OFFCURVE",
"95 118 CURVE SMOOTH",
"93 207 OFFCURVE",
"178 223 OFFCURVE",
"259 223 CURVE SMOOTH",
"335 223 OFFCURVE",
"373 222 OFFCURVE",
"427 247 CURVE",
"430 131 LINE"
);
}
);
width = 600;
},
{
associatedMasterId = "220D0E0B-3E90-41D6-A266-882B21BA5595";
layerId = "9F371E5D-F126-4D6F-B4A7-74ED48CF69F6";
width = 600;
},
{
associatedMasterId = "220D0E0B-3E90-41D6-A266-882B21BA5595";
layerId = "647AEE16-9579-45F2-9E8F-92767207FA01";
paths = (
{
closed = 1;
nodes = (
"89 382 LINE",
"378 382 LINE",
"378 432 LINE",
"89 432 LINE"
);
},
{
closed = 1;
nodes = (
"435 0 LINE",
"485 0 LINE",
"485 309 LINE",
"435 309 LINE"
);
}
);
width = 600;
},
{
associatedMasterId = "220D0E0B-3E90-41D6-A266-882B21BA5595";
layerId = "AC000F49-71C7-4CCE-86C3-CF20F84D2BD7";
paths = (
{
closed = 1;
nodes = (
"488 410 LINE",
"488 0 LINE",
"538 0 LINE",
"538 410 LINE"
);
},
{
closed = 1;
nodes = (
"532 139 OFFCURVE",
"552 184 OFFCURVE",
"488 243 CURVE SMOOTH",
"437 290 OFFCURVE",
"386 349 OFFCURVE",
"289 350 CURVE SMOOTH",
"72 352 OFFCURVE",
"56 359 OFFCURVE",
"56 189 CURVE SMOOTH",
"56 83 OFFCURVE",
"121 -6 OFFCURVE",
"298 -2 CURVE SMOOTH",
"377 0 OFFCURVE",
"533 8 OFFCURVE",
"533 139 CURVE SMOOTH"
);
},
{
closed = 1;
nodes = (
"401 49 OFFCURVE",
"298 48 CURVE SMOOTH",
"149 47 OFFCURVE",
"106 122 OFFCURVE",
"106 189 CURVE SMOOTH",
"106 322 OFFCURVE",
"107 300 OFFCURVE",
"289 300 CURVE SMOOTH",
"368 300 OFFCURVE",
"452 213 OFFCURVE",
"486 179 CURVE SMOOTH",
"568 95 OFFCURVE"
);
},
{
closed = 1;
nodes = (
"538 410 LINE",
"538 557 OFFCURVE",
"372 547 OFFCURVE",
"279 547 CURVE SMOOTH",
"195 547 OFFCURVE",
"97 504 OFFCURVE",
"97 430 CURVE SMOOTH",
"97 430 OFFCURVE",
"147 430 OFFCURVE",
"147 430 CURVE SMOOTH",
"147 451 OFFCURVE",
"187 499 OFFCURVE",
"279 499 CURVE SMOOTH",
"356 499 OFFCURVE",
"488 514 OFFCURVE",
"488 410 CURVE"
);
}
);
width = 600;
},
{
associatedMasterId = "220D0E0B-3E90-41D6-A266-882B21BA5595";
layerId = "C2D4A198-499D-43CA-B8CB-78DD289D69E3";
paths = (
{
closed = 1;
nodes = (
"474 348 LINE",
"474 2 LINE",
"521 2 LINE",
"521 127 OFFCURVE",
"521 251 OFFCURVE",
"521 376 CURVE"
);
},
{
closed = 1;
nodes = (
"521 270 OFFCURVE",
"397 300 OFFCURVE",
"292 301 CURVE SMOOTH",
"113 304 OFFCURVE",
"73 226 OFFCURVE",
"73 174 CURVE SMOOTH",
"73 27 OFFCURVE",
"86 -6 OFFCURVE",
"299 -3 CURVE SMOOTH",
"473 -1 OFFCURVE",
"521 25 OFFCURVE",
"521 144 CURVE SMOOTH"
);
},
{
closed = 1;
nodes = (
"482 50 OFFCURVE",
"401 48 OFFCURVE",
"294 47 CURVE SMOOTH",
"125 46 OFFCURVE",
"118 56 OFFCURVE",
"118 174 CURVE SMOOTH",
"118 203 OFFCURVE",
"139 251 OFFCURVE",
"291 251 CURVE SMOOTH",
"372 251 OFFCURVE",
"482 225 OFFCURVE",
"482 143 CURVE SMOOTH"
);
},
{
closed = 1;
nodes = (
"521 413 OFFCURVE",
"528 430 OFFCURVE",
"481 430 CURVE SMOOTH",
"439 430 OFFCURVE",
"407 433 OFFCURVE",
"312 433 CURVE SMOOTH",
"81 433 LINE",
"81 383 LINE",
"312 383 LINE SMOOTH",
"339 383 OFFCURVE",
"473 390 OFFCURVE",
"473 364 CURVE SMOOTH",
"473 364 OFFCURVE",
"474 329 OFFCURVE",
"474 297 CURVE SMOOTH",
"474 297 OFFCURVE",
"511 353 OFFCURVE",
"521 337 CURVE"
);
}
);
width = 600;
},
{
associatedMasterId = "220D0E0B-3E90-41D6-A266-882B21BA5595";
layerId = "22530E13-22D9-4075-9E37-BF31B4A2C110";
paths = (
{
closed = 1;
nodes = (
"474 348 LINE",
"474 2 LINE",
"521 2 LINE",
"521 127 OFFCURVE",
"521 251 OFFCURVE",
"521 376 CURVE"
);
},
{
closed = 1;
nodes = (
"521 270 OFFCURVE",
"397 300 OFFCURVE",
"292 301 CURVE SMOOTH",
"113 304 OFFCURVE",
"73 226 OFFCURVE",
"73 174 CURVE SMOOTH",
"73 27 OFFCURVE",
"86 -6 OFFCURVE",
"299 -3 CURVE SMOOTH",
"473 -1 OFFCURVE",
"521 25 OFFCURVE",
"521 144 CURVE SMOOTH"
);
},
{
closed = 1;
nodes = (
"482 50 OFFCURVE",
"401 48 OFFCURVE",
"294 47 CURVE SMOOTH",
"125 46 OFFCURVE",
"118 56 OFFCURVE",
"118 174 CURVE SMOOTH",
"118 203 OFFCURVE",
"139 251 OFFCURVE",
"291 251 CURVE SMOOTH",
"372 251 OFFCURVE",
"482 225 OFFCURVE",
"482 143 CURVE SMOOTH"
);
},
{
closed = 1;
nodes = (
"521 413 OFFCURVE",
"528 430 OFFCURVE",
"481 430 CURVE SMOOTH",
"439 430 OFFCURVE",
"407 433 OFFCURVE",
"312 433 CURVE SMOOTH",
"81 433 LINE",
"81 383 LINE",
"312 383 LINE SMOOTH",
"339 383 OFFCURVE",
"473 390 OFFCURVE",
"473 364 CURVE SMOOTH",
"473 364 OFFCURVE",
"474 329 OFFCURVE",
"474 297 CURVE SMOOTH",
"474 297 OFFCURVE",
"511 353 OFFCURVE",
"521 337 CURVE"
);
}
);
width = 600;
},
{
associatedMasterId = "220D0E0B-3E90-41D6-A266-882B21BA5595";
layerId = "43596BE5-02D4-4035-95AE-55B1C365D919";
paths = (
{
closed = 1;
nodes = (
"488 298 LINE",
"488 0 LINE",
"538 0 LINE",
"538 298 LINE"
);
},
{
closed = 1;
nodes = (
"522 70 OFFCURVE",
"556 155 OFFCURVE",
"488 205 CURVE SMOOTH",
"446 236 OFFCURVE",
"386 259 OFFCURVE",
"289 260 CURVE SMOOTH",
"92 262 OFFCURVE",
"86 233 OFFCURVE",
"86 142 CURVE SMOOTH",
"86 41 OFFCURVE",
"121 0 OFFCURVE",
"298 -2 CURVE SMOOTH",
"487 0 OFFCURVE",
"551 66 OFFCURVE",
"530 69 CURVE"
);
},
{
closed = 1;
nodes = (
"460 179 OFFCURVE",
"488 145 CURVE SMOOTH",
"488 145 OFFCURVE",
"488 103 OFFCURVE",
"488 87 CURVE SMOOTH",
"488 87 OFFCURVE",
"448 46 OFFCURVE",
"298 48 CURVE SMOOTH",
"159 50 OFFCURVE",
"136 70 OFFCURVE",
"136 142 CURVE SMOOTH",
"136 195 OFFCURVE",
"137 210 OFFCURVE",
"289 210 CURVE SMOOTH",
"348 210 OFFCURVE"
);
},
{
closed = 1;
nodes = (
"538 298 LINE",
"538 445 OFFCURVE",
"389 438 OFFCURVE",
"256 438 CURVE SMOOTH",
"172 438 OFFCURVE",
"104 392 OFFCURVE",
"104 318 CURVE SMOOTH",
"104 318 OFFCURVE",
"154 318 OFFCURVE",
"154 318 CURVE SMOOTH",
"154 339 OFFCURVE",
"164 390 OFFCURVE",
"256 390 CURVE SMOOTH",
"373 390 OFFCURVE",
"488 402 OFFCURVE",
"488 298 CURVE"
);
}
);
width = 600;
},
{
associatedMasterId = "220D0E0B-3E90-41D6-A266-882B21BA5595";
layerId = "A0E66FE3-0BE1-4D37-8B49-15FB4CECC895";
paths = (
{
closed = 1;
nodes = (
"478 294 LINE",
"478 0 LINE",
"548 0 LINE",
"548 294 LINE"
);
},
{
closed = 1;
nodes = (
"535.286 78.417 OFFCURVE",
"568.124 158.498 OFFCURVE",
"493.924 213.057 CURVE",
"450.847 244.852 OFFCURVE",
"387.901 268.981 OFFCURVE",
"289.103 269.999 CURVE",
"83.874 272.083 OFFCURVE",
"76 234.024 OFFCURVE",
"76 142 CURVE",
"76 37.312 OFFCURVE",
"116 0 OFFCURVE",
"298 -2 CURVE",
"504 0 OFFCURVE",
"585.271 71.206 OFFCURVE",
"531.414 78.9 CURVE"
);
},
{
closed = 1;
nodes = (
"345.085 200 OFFCURVE",
"448.513 171.792 OFFCURVE",
"478 141.195 CURVE",
"478 130.495 OFFCURVE",
"478 100.071 OFFCURVE",
"478 87 CURVE",
"481.067 94.207 LINE",
"481.067 94.214 OFFCURVE",
"443.84 56.056 OFFCURVE",
"298.133 58 CURVE",
"164.83 59.917 OFFCURVE",
"146 76.614 OFFCURVE",
"146 142 CURVE",
"146 192.594 OFFCURVE",
"148.383 200 OFFCURVE",
"289 200 CURVE"
);
},
{
closed = 1;
nodes = (
"548 274 LINE",
"555 442 OFFCURVE",
"392 434 OFFCURVE",
"256 434 CURVE",
"155 434 OFFCURVE",
"94 381 OFFCURVE",
"94 294 CURVE",
"94 294 OFFCURVE",
"164 294 OFFCURVE",
"164 294 CURVE",
"174 324 OFFCURVE",
"172 366 OFFCURVE",
"256 366 CURVE",
"378 366 OFFCURVE",
"485 378 OFFCURVE",
"478 274 CURVE"
);
}
);
width = 600;
},
{
associatedMasterId = "220D0E0B-3E90-41D6-A266-882B21BA5595";
layerId = "626C422F-CD43-40DF-9504-6939D659775D";
paths = (
{
closed = 1;
nodes = (
"478 294 LINE",
"478 0 LINE",
"548 0 LINE",
"548 294 LINE"
);
},
{
closed = 1;
nodes = (
"535.286 78.417 OFFCURVE",
"568.124 158.498 OFFCURVE",
"493.924 213.057 CURVE",
"450.847 244.852 OFFCURVE",
"387.901 268.981 OFFCURVE",
"289.103 269.999 CURVE",
"83.874 272.083 OFFCURVE",
"76 234.024 OFFCURVE",
"76 142 CURVE",
"76 37.312 OFFCURVE",
"116 0 OFFCURVE",
"298 -2 CURVE",
"504 0 OFFCURVE",
"585.271 71.206 OFFCURVE",
"531.414 78.9 CURVE"
);
},
{
closed = 1;
nodes = (
"345.085 200 OFFCURVE",
"448.513 171.792 OFFCURVE",
"478 141.195 CURVE",
"478 130.495 OFFCURVE",
"478 100.071 OFFCURVE",
"478 87 CURVE",
"481.067 94.207 LINE",
"481.067 94.214 OFFCURVE",
"443.84 56.056 OFFCURVE",
"298.133 58 CURVE",
"164.83 59.917 OFFCURVE",
"146 76.614 OFFCURVE",
"146 142 CURVE",
"146 192.594 OFFCURVE",
"148.383 200 OFFCURVE",
"289 200 CURVE"
);
},
{
closed = 1;
nodes = (
"548 274 LINE",
"555 442 OFFCURVE",
"392 434 OFFCURVE",
"256 434 CURVE",
"155 434 OFFCURVE",
"94 381 OFFCURVE",
"94 294 CURVE",
"94 294 OFFCURVE",
"164 294 OFFCURVE",
"164 294 CURVE",
"174 324 OFFCURVE",
"172 366 OFFCURVE",
"256 366 CURVE",
"378 366 OFFCURVE",
"485 378 OFFCURVE",
"478 274 CURVE"
);
}
);
width = 600;
},
{
associatedMasterId = "220D0E0B-3E90-41D6-A266-882B21BA5595";
layerId = "2EFE10D2-39D4-44E5-BE2E-AB37B328D627";
paths = (
{
closed = 1;
nodes = (
"478 294 LINE",
"478 0 LINE",
"548 0 LINE",
"548 294 LINE"
);
},
{
closed = 1;
nodes = (
"535.286 78.417 OFFCURVE",
"568.124 158.498 OFFCURVE",
"493.924 213.057 CURVE",
"450.847 244.852 OFFCURVE",
"387.901 268.981 OFFCURVE",
"289.103 269.999 CURVE",
"83.874 272.083 OFFCURVE",
"76 234.024 OFFCURVE",
"76 142 CURVE",
"76 37.312 OFFCURVE",
"116 0 OFFCURVE",
"298 -2 CURVE",
"504 0 OFFCURVE",
"585.271 71.206 OFFCURVE",
"531.414 78.9 CURVE"
);
},
{
closed = 1;
nodes = (
"345.085 200 OFFCURVE",
"448.513 171.792 OFFCURVE",
"478 141.195 CURVE",
"478 130.495 OFFCURVE",
"478 100.071 OFFCURVE",
"478 87 CURVE",
"481.067 94.207 LINE",
"481.067 94.214 OFFCURVE",
"443.84 56.056 OFFCURVE",
"298.133 58 CURVE",
"164.83 59.917 OFFCURVE",
"146 76.614 OFFCURVE",
"146 142 CURVE",
"146 192.594 OFFCURVE",
"148.383 200 OFFCURVE",
"289 200 CURVE"
);
},
{
closed = 1;
nodes = (
"548 274 LINE",
"555 442 OFFCURVE",
"392 434 OFFCURVE",
"256 434 CURVE",
"155 434 OFFCURVE",
"94 381 OFFCURVE",
"94 294 CURVE",
"94 294 OFFCURVE",
"164 294 OFFCURVE",
"164 294 CURVE",
"174 324 OFFCURVE",
"172 366 OFFCURVE",
"256 366 CURVE",
"378 366 OFFCURVE",
"485 378 OFFCURVE",
"478 274 CURVE"
);
}
);
width = 600;
},
{
associatedMasterId = "220D0E0B-3E90-41D6-A266-882B21BA5595";
layerId = "C0E37601-26CF-4507-BF40-F33AC4627A05";
paths = (
{
closed = 1;
nodes = (
"478 294 LINE",
"478 0 LINE",
"548 0 LINE",
"548 294 LINE"
);
},
{
closed = 1;
nodes = (
"535.286 78.417 OFFCURVE",
"568.124 158.498 OFFCURVE",
"493.924 213.057 CURVE",
"450.847 244.852 OFFCURVE",
"387.901 268.981 OFFCURVE",
"289.103 269.999 CURVE",
"83.874 272.083 OFFCURVE",
"76 234.024 OFFCURVE",
"76 142 CURVE",
"76 37.312 OFFCURVE",
"116 0 OFFCURVE",
"298 -2 CURVE",
"504 0 OFFCURVE",
"585.271 71.206 OFFCURVE",
"531.414 78.9 CURVE"
);
},
{
closed = 1;
nodes = (
"345.085 200 OFFCURVE",
"448.513 171.792 OFFCURVE",
"478 141.195 CURVE",
"478 130.495 OFFCURVE",
"478 100.071 OFFCURVE",
"478 87 CURVE",
"481.067 94.207 LINE",
"481.067 94.214 OFFCURVE",
"443.84 56.056 OFFCURVE",
"298.133 58 CURVE",
"164.83 59.917 OFFCURVE",
"146 76.614 OFFCURVE",
"146 142 CURVE",
"146 192.594 OFFCURVE",
"148.383 200 OFFCURVE",
"289 200 CURVE"
);
},
{
closed = 1;
nodes = (
"548 274 LINE",
"555 442 OFFCURVE",
"392 434 OFFCURVE",
"256 434 CURVE",
"155 434 OFFCURVE",
"94 381 OFFCURVE",
"94 294 CURVE",
"94 294 OFFCURVE",
"164 294 OFFCURVE",
"164 294 CURVE",
"174 324 OFFCURVE",
"172 366 OFFCURVE",
"256 366 CURVE",
"378 366 OFFCURVE",
"485 378 OFFCURVE",
"478 274 CURVE"
);
}
);
width = 600;
},
{
associatedMasterId = "220D0E0B-3E90-41D6-A266-882B21BA5595";
layerId = "2B4A79A3-E035-438B-B5AD-3E3AC301518D";
paths = (
{
closed = 1;
nodes = (
"468 284 LINE",
"468 -10 LINE",
"558 -10 LINE",
"558 304 LINE"
);
},
{
closed = 1;
nodes = (
"550.986 107.052 LINE",
"556.183 139.12 OFFCURVE",
"517 235 OFFCURVE",
"468 271 CURVE",
"424 254 OFFCURVE",
"390 256 OFFCURVE",
"289 257 CURVE",
"96 259 OFFCURVE",
"66 244 OFFCURVE",
"66 142 CURVE",
"66 32.965 OFFCURVE",
"112.014 -10 OFFCURVE",
"297.89 -12 CURVE",
"461.823 -10 OFFCURVE",
"548 38 OFFCURVE",
"552 68 CURVE"
);
},
{
closed = 1;
nodes = (
"342 170 OFFCURVE",
"437 170 OFFCURVE",
"468 187 CURVE",
"468 174 OFFCURVE",
"468 98.616 OFFCURVE",
"468 87 CURVE",
"487.201 83.084 LINE",
"490.268 90.291 LINE",
"474.158 101.436 LINE",
"474.158 101.452 OFFCURVE",
"439.68 66.113 OFFCURVE",
"298.266 67.998 CURVE",
"170.717 69.833 OFFCURVE",
"156 83.175 OFFCURVE",
"156 142 CURVE",
"156 187.031 OFFCURVE",
"160 170 OFFCURVE",
"289 170 CURVE"
);
},
{
closed = 1;
nodes = (
"557.431 264 LINE",
"571.548 452.826 OFFCURVE",
"394.134 444 OFFCURVE",
"256 444 CURVE",
"127 444 OFFCURVE",
"74 394 OFFCURVE",
"74 284 CURVE SMOOTH",
"74 284 OFFCURVE",
"164 284 OFFCURVE",
"164 284 CURVE",
"164 343 OFFCURVE",
"182 356 OFFCURVE",
"256 356 CURVE",
"383.104 356 OFFCURVE",
"481.277 367.539 OFFCURVE",
"466.909 264 CURVE"
);
}
);
width = 600;
},
{
associatedMasterId = "220D0E0B-3E90-41D6-A266-882B21BA5595";
layerId = "1BCB5E8E-99EF-4A2D-87BE-6E30591C213C";
paths = (
{
closed = 1;
nodes = (
"468 284 LINE",
"468 0 LINE",
"558 0 LINE",
"558 304 LINE"
);
},
{
closed = 1;
nodes = (
"551 117 LINE",
"556 149 OFFCURVE",
"517 235 OFFCURVE",
"468 271 CURVE",
"407 259 OFFCURVE",
"320 255 OFFCURVE",
"289 256 CURVE",
"96 258 OFFCURVE",
"62 211 OFFCURVE",
"62 139 CURVE",
"62 30 OFFCURVE",
"94 0 OFFCURVE",
"298 -2 CURVE",
"462 0 OFFCURVE",
"548 48 OFFCURVE",
"552 78 CURVE"
);
},
{
closed = 1;
nodes = (
"342 170 OFFCURVE",
"436 177 OFFCURVE",
"468 187 CURVE SMOOTH",
"505 199 OFFCURVE",
"509 135 OFFCURVE",
"509 135 CURVE",
"509 135 OFFCURVE",
"457 76 OFFCURVE",
"298 78 CURVE",
"171 80 OFFCURVE",
"148 82 OFFCURVE",
"148 131 CURVE",
"148 156 OFFCURVE",
"160 170 OFFCURVE",
"289 170 CURVE"
);
},
{
closed = 1;
nodes = (
"557.431 264 LINE",
"571.548 452.826 OFFCURVE",
"394 434 OFFCURVE",
"256 434 CURVE SMOOTH",
"138 434 OFFCURVE",
"74 387 OFFCURVE",
"74 277 CURVE SMOOTH",
"74 277 OFFCURVE",
"164 277 OFFCURVE",
"164 277 CURVE",
"167 336 OFFCURVE",
"182 349 OFFCURVE",
"256 349 CURVE",
"383 349 OFFCURVE",
"481.277 367.539 OFFCURVE",
"466.909 264 CURVE"
);
}
);
width = 600;
},
{
associatedMasterId = "220D0E0B-3E90-41D6-A266-882B21BA5595";
layerId = "9CC0CC09-37A8-451D-BB98-D98B5F4675C8";
paths = (
{
closed = 1;
nodes = (
"542 400 OFFCURVE",
"497 434 OFFCURVE",
"300 434 CURVE SMOOTH",
"132 434 OFFCURVE",
"58 382 OFFCURVE",
"58 272 CURVE",
"148 272 LINE",
"151 329 OFFCURVE",
"176 350 OFFCURVE",
"300 351 CURVE SMOOTH",
"424 352 OFFCURVE",
"451 331 OFFCURVE",
"452 291 CURVE",
"412 271 OFFCURVE",
"378 260 OFFCURVE",
"266 250 CURVE SMOOTH",
"148 239 OFFCURVE",
"46 211 OFFCURVE",
"48 138 CURVE SMOOTH",
"51 18 OFFCURVE",
"112 0 OFFCURVE",
"223 -2 CURVE SMOOTH",
"298 -3 OFFCURVE",
"348 19 OFFCURVE",
"452 73 CURVE",
"452 0 LINE",
"542 0 LINE",
"542 293 LINE SMOOTH"
);
},
{
closed = 1;
nodes = (
"452 150 LINE",
"327 89 OFFCURVE",
"273 69 OFFCURVE",
"222 69 CURVE SMOOTH",
"175 69 OFFCURVE",
"132 69 OFFCURVE",
"132 118 CURVE SMOOTH",
"132 161 OFFCURVE",
"168 159 OFFCURVE",
"273 175 CURVE SMOOTH",
"345 186 OFFCURVE",
"352 186 OFFCURVE",
"452 212 CURVE"
);
}
);
width = 600;
},
{
associatedMasterId = "220D0E0B-3E90-41D6-A266-882B21BA5595";
layerId = "47F7D6EB-0956-487E-ACDF-65C6EB3CB7F8";
paths = (
{
closed = 1;
nodes = (
"542 400 OFFCURVE",
"497 434 OFFCURVE",
"300 434 CURVE SMOOTH",
"132 434 OFFCURVE",
"58 382 OFFCURVE",
"58 272 CURVE",
"148 272 LINE",
"151 329 OFFCURVE",
"176 350 OFFCURVE",
"300 351 CURVE SMOOTH",
"424 352 OFFCURVE",
"451 333 OFFCURVE",
"452 293 CURVE",
"266 255 LINE",
"179 235 OFFCURVE",
"52 215 OFFCURVE",
"52 120 CURVE SMOOTH",
"52 26 OFFCURVE",
"112 0 OFFCURVE",
"223 -1 CURVE SMOOTH",
"310 -2 OFFCURVE",
"368 28 OFFCURVE",
"452 63 CURVE",
"452 0 LINE",
"542 0 LINE",
"542 293 LINE SMOOTH"
);
},
{
closed = 1;
nodes = (
"452 157 LINE",
"346 108 OFFCURVE",
"309 91 OFFCURVE",
"249 83 CURVE SMOOTH",
"202 77 OFFCURVE",
"142 70 OFFCURVE",
"142 118 CURVE SMOOTH",
"142 149 OFFCURVE",
"220 163 OFFCURVE",
"276 177 CURVE",
"452 213 LINE"
);
}
);
width = 600;
},
{
associatedMasterId = "220D0E0B-3E90-41D6-A266-882B21BA5595";
layerId = "9273DFA4-5204-48C8-85B8-BD0C28EB95AF";
paths = (
{
closed = 1;
nodes = (
"542 400 OFFCURVE",
"497 434 OFFCURVE",
"300 434 CURVE SMOOTH",
"132 434 OFFCURVE",
"58 382 OFFCURVE",
"58 272 CURVE",
"148 272 LINE",
"151 329 OFFCURVE",
"176 350 OFFCURVE",
"300 351 CURVE SMOOTH",
"424 352 OFFCURVE",
"451 333 OFFCURVE",
"452 293 CURVE",
"266 255 LINE",
"179 235 OFFCURVE",
"52 215 OFFCURVE",
"52 120 CURVE SMOOTH",
"52 26 OFFCURVE",
"112 0 OFFCURVE",
"223 -1 CURVE SMOOTH",
"310 -2 OFFCURVE",
"368 28 OFFCURVE",
"452 63 CURVE",
"452 0 LINE",
"542 0 LINE",
"542 293 LINE SMOOTH"
);
},
{
closed = 1;
nodes = (
"452 157 LINE",
"346 108 OFFCURVE",
"309 91 OFFCURVE",
"249 83 CURVE SMOOTH",
"202 77 OFFCURVE",
"142 70 OFFCURVE",
"142 118 CURVE SMOOTH",
"142 149 OFFCURVE",
"220 163 OFFCURVE",
"276 177 CURVE",
"452 213 LINE"
);
}
);
width = 600;
},
{
associatedMasterId = "220D0E0B-3E90-41D6-A266-882B21BA5595";
layerId = "24C23FB3-D6CC-4E32-B596-9B899695CAE5";
paths = (
{
closed = 1;
nodes = (
"542 400 OFFCURVE",
"497 434 OFFCURVE",
"300 434 CURVE SMOOTH",
"132 434 OFFCURVE",
"58 382 OFFCURVE",
"58 272 CURVE",
"148 272 LINE",
"151 329 OFFCURVE",
"176 350 OFFCURVE",
"300 351 CURVE SMOOTH",
"424 352 OFFCURVE",
"451 328 OFFCURVE",
"452 288 CURVE",
"416 267 OFFCURVE",
"385 259 OFFCURVE",
"266 252 CURVE SMOOTH",
"85 242 OFFCURVE",
"46 191 OFFCURVE",
"46 135 CURVE SMOOTH",
"46 29 OFFCURVE",
"103 0 OFFCURVE",
"223 -2 CURVE SMOOTH",
"288 -3 OFFCURVE",
"348 19 OFFCURVE",
"452 73 CURVE",
"452 0 LINE",
"542 0 LINE",
"542 293 LINE SMOOTH"
);
},
{
closed = 1;
nodes = (
"452 153 LINE",
"403 130 LINE SMOOTH",
"333 97 OFFCURVE",
"304 73 OFFCURVE",
"232 73 CURVE SMOOTH",
"156 73 OFFCURVE",
"129 79 OFFCURVE",
"129 128 CURVE SMOOTH",
"129 160 OFFCURVE",
"155 172 OFFCURVE",
"273 179 CURVE SMOOTH",
"331 182 OFFCURVE",
"371 183 OFFCURVE",
"452 212 CURVE"
);
}
);
width = 600;
},
{
associatedMasterId = "220D0E0B-3E90-41D6-A266-882B21BA5595";
layerId = "45C4E262-C490-4283-974B-24DC1B8C2BFB";
paths = (
{
closed = 1;
nodes = (
"542 400 OFFCURVE",
"497 434 OFFCURVE",
"300 434 CURVE SMOOTH",
"132 434 OFFCURVE",
"58 382 OFFCURVE",
"58 272 CURVE",
"148 272 LINE",
"151 329 OFFCURVE",
"176 350 OFFCURVE",
"300 351 CURVE SMOOTH",
"424 352 OFFCURVE",
"451 328 OFFCURVE",
"452 288 CURVE",
"416 267 OFFCURVE",
"385 261 OFFCURVE",
"266 255 CURVE SMOOTH",
"69 245 OFFCURVE",
"45 212 OFFCURVE",
"46 128 CURVE SMOOTH",
"47 32 OFFCURVE",
"72 0 OFFCURVE",
"223 -2 CURVE SMOOTH",
"288 -3 OFFCURVE",
"348 19 OFFCURVE",
"452 73 CURVE",
"452 0 LINE",
"542 0 LINE",
"542 293 LINE SMOOTH"
);
},
{
closed = 1;
nodes = (
"452 153 LINE",
"403 131 LINE SMOOTH",
"332 99 OFFCURVE",
"291 71 OFFCURVE",
"232 73 CURVE SMOOTH",
"155 76 OFFCURVE",
"137 82 OFFCURVE",
"137 131 CURVE SMOOTH",
"137 156 OFFCURVE",
"145 168 OFFCURVE",
"273 175 CURVE SMOOTH",
"331 178 OFFCURVE",
"371 183 OFFCURVE",
"452 212 CURVE"
);
}
);
width = 600;
},
{
associatedMasterId = "220D0E0B-3E90-41D6-A266-882B21BA5595";
layerId = "CA18FF14-32C4-4A84-ACD9-19B7B91B8D5E";
paths = (
{
closed = 1;
nodes = (
"542 400 OFFCURVE",
"497 434 OFFCURVE",
"300 434 CURVE SMOOTH",
"132 434 OFFCURVE",
"58 382 OFFCURVE",
"58 272 CURVE",
"148 272 LINE",
"151 329 OFFCURVE",
"176 350 OFFCURVE",
"300 351 CURVE SMOOTH",
"424 352 OFFCURVE",
"451 328 OFFCURVE",
"452 288 CURVE",
"416 267 OFFCURVE",
"385 261 OFFCURVE",
"266 255 CURVE SMOOTH",
"69 245 OFFCURVE",
"45 212 OFFCURVE",
"46 128 CURVE SMOOTH",
"47 32 OFFCURVE",
"72 0 OFFCURVE",
"223 -2 CURVE SMOOTH",
"288 -3 OFFCURVE",
"348 19 OFFCURVE",
"452 73 CURVE",
"452 0 LINE",
"542 0 LINE",
"542 293 LINE SMOOTH"
);
},
{
closed = 1;
nodes = (
"452 153 LINE",
"403 131 LINE SMOOTH",
"332 99 OFFCURVE",
"291 71 OFFCURVE",
"232 73 CURVE SMOOTH",
"155 76 OFFCURVE",
"137 82 OFFCURVE",
"137 131 CURVE SMOOTH",
"137 156 OFFCURVE",
"145 168 OFFCURVE",
"273 175 CURVE SMOOTH",
"331 178 OFFCURVE",
"371 183 OFFCURVE",
"452 212 CURVE"
);
}
);
width = 600;
},
{
associatedMasterId = "220D0E0B-3E90-41D6-A266-882B21BA5595";
layerId = "59394722-78D8-4590-8BCB-DA2BA161C016";
paths = (
{
closed = 1;
nodes = (
"547 6 OFFCURVE",
"547 215 CURVE SMOOTH",
"547 381 OFFCURVE",
"501 443 OFFCURVE",
"305 443 CURVE SMOOTH",
"131 443 OFFCURVE",
"74 387 OFFCURVE",
"64 259 CURVE",
"155 261 LINE",
"161 335 OFFCURVE",
"190 358 OFFCURVE",
"305 358 CURVE SMOOTH",
"441 358 OFFCURVE",
"457 326 OFFCURVE",
"457 215 CURVE SMOOTH",
"457 4 OFFCURVE"
);
},
{
closed = 1;
nodes = (
"457 0 LINE",
"547 0 LINE",
"547 205 LINE",
"457 205 LINE"
);
},
{
closed = 1;
nodes = (
"479 184 LINE",
"356 120 LINE",
"341 115 OFFCURVE",
"310 105 OFFCURVE",
"277 97 CURVE SMOOTH",
"234 86 OFFCURVE",
"188 78 OFFCURVE",
"165 85 CURVE SMOOTH",
"121 99 OFFCURVE",
"131 145 OFFCURVE",
"161 157 CURVE SMOOTH",
"228 185 OFFCURVE",
"296 186 OFFCURVE",
"363 201 CURVE",
"489 215 LINE",
"483 291 LINE",
"321 271 LINE",
"228 255 OFFCURVE",
"180 251 OFFCURVE",
"104 213 CURVE SMOOTH",
"59 191 OFFCURVE",
"55 141 OFFCURVE",
"55 116 CURVE SMOOTH",
"55 80 OFFCURVE",
"69 0 OFFCURVE",
"180 0 CURVE SMOOTH",
"212 0 OFFCURVE",
"243 2 OFFCURVE",
"275 10 CURVE SMOOTH",
"308 18 OFFCURVE",
"435 71 OFFCURVE",
"503 95 CURVE"
);
}
);
width = 600;
},
{
associatedMasterId = "220D0E0B-3E90-41D6-A266-882B21BA5595";
layerId = "0EB5253B-C96D-481B-8A43-C98F9B8C65A0";
paths = (
{
closed = 1;
nodes = (
"542 394 OFFCURVE",
"490 434 OFFCURVE",
"300 434 CURVE SMOOTH",
"132 434 OFFCURVE",
"58 382 OFFCURVE",
"58 272 CURVE",
"148 272 LINE",
"151 346 OFFCURVE",
"176 350 OFFCURVE",
"300 351 CURVE SMOOTH",
"424 352 OFFCURVE",
"451 328 OFFCURVE",
"452 288 CURVE",
"383 267 OFFCURVE",
"385 259 OFFCURVE",
"266 252 CURVE SMOOTH",
"94 242 OFFCURVE",
"46 196 OFFCURVE",
"46 133 CURVE SMOOTH",
"46 27 OFFCURVE",
"96 0 OFFCURVE",
"200 -2 CURVE SMOOTH",
"265 -3 OFFCURVE",
"348 17 OFFCURVE",
"452 71 CURVE",
"452 0 LINE",
"542 0 LINE",
"542 293 LINE SMOOTH"
);
},
{
closed = 1;
nodes = (
"452 149 LINE",
"405 130 LINE SMOOTH",
"333 101 OFFCURVE",
"292 76 OFFCURVE",
"232 76 CURVE SMOOTH",
"156 76 OFFCURVE",
"129 79 OFFCURVE",
"129 128 CURVE SMOOTH",
"129 160 OFFCURVE",
"155 172 OFFCURVE",
"273 179 CURVE SMOOTH",
"331 182 OFFCURVE",
"371 183 OFFCURVE",
"452 212 CURVE"
);
}
);
width = 600;
},
{
associatedMasterId = "220D0E0B-3E90-41D6-A266-882B21BA5595";
layerId = "83CF631C-B48D-4A31-B32B-633A8E5E4EAF";
paths = (
{
closed = 1;
nodes = (
"547 6 OFFCURVE",
"547 215 CURVE SMOOTH",
"547 381 OFFCURVE",
"501 443 OFFCURVE",
"305 443 CURVE SMOOTH",
"131 443 OFFCURVE",
"74 387 OFFCURVE",
"64 259 CURVE",
"155 261 LINE",
"161 335 OFFCURVE",
"190 358 OFFCURVE",
"305 358 CURVE SMOOTH",
"441 358 OFFCURVE",
"457 326 OFFCURVE",
"457 215 CURVE SMOOTH",
"457 4 OFFCURVE"
);
},
{
closed = 1;
nodes = (
"457 0 LINE",
"547 0 LINE",
"547 205 LINE",
"457 205 LINE"
);
},
{
closed = 1;
nodes = (
"479 184 LINE",
"446 130 OFFCURVE",
"381 91 OFFCURVE",
"318 77 CURVE SMOOTH",
"257 63 OFFCURVE",
"194 74 OFFCURVE",
"165 88 CURVE SMOOTH",
"138 101 OFFCURVE",
"132 142 OFFCURVE",
"161 155 CURVE SMOOTH",
"218 181 OFFCURVE",
"296 161 OFFCURVE",
"363 176 CURVE",
"481 208 LINE",
"483 298 LINE",
"354 257 LINE",
"261 241 OFFCURVE",
"180 255 OFFCURVE",
"104 217 CURVE SMOOTH",
"59 195 OFFCURVE",
"59 143 OFFCURVE",
"59 118 CURVE SMOOTH",
"59 78 OFFCURVE",
"108 20 OFFCURVE",
"167 7 CURVE SMOOTH",
"199 0 OFFCURVE",
"319 -3 OFFCURVE",
"351 5 CURVE SMOOTH",
"391 15 OFFCURVE",
"459 52 OFFCURVE",
"503 95 CURVE"
);
}
);
width = 600;
},
{
associatedMasterId = "220D0E0B-3E90-41D6-A266-882B21BA5595";
layerId = "D61B90E4-4449-4B5F-B586-8527FA150E0E";
paths = (
{
closed = 1;
nodes = (
"542 394 OFFCURVE",
"490 434 OFFCURVE",
"300 434 CURVE SMOOTH",
"132 434 OFFCURVE",
"58 382 OFFCURVE",
"58 272 CURVE",
"148 272 LINE",
"151 346 OFFCURVE",
"176 350 OFFCURVE",
"300 351 CURVE SMOOTH",
"424 352 OFFCURVE",
"451 328 OFFCURVE",
"452 288 CURVE",
"383 267 OFFCURVE",
"385 259 OFFCURVE",
"266 252 CURVE SMOOTH",
"94 242 OFFCURVE",
"46 196 OFFCURVE",
"46 133 CURVE SMOOTH",
"46 27 OFFCURVE",
"96 0 OFFCURVE",
"200 -2 CURVE SMOOTH",
"265 -3 OFFCURVE",
"348 17 OFFCURVE",
"452 71 CURVE",
"452 0 LINE",
"542 0 LINE",
"542 293 LINE SMOOTH"
);
},
{
closed = 1;
nodes = (
"452 149 LINE",
"405 130 LINE SMOOTH",
"333 101 OFFCURVE",
"292 76 OFFCURVE",
"232 76 CURVE SMOOTH",
"156 76 OFFCURVE",
"129 79 OFFCURVE",
"129 128 CURVE SMOOTH",
"129 160 OFFCURVE",
"155 172 OFFCURVE",
"273 179 CURVE SMOOTH",
"331 182 OFFCURVE",
"371 183 OFFCURVE",
"452 212 CURVE"
);
}
);
width = 600;
},
{
associatedMasterId = "220D0E0B-3E90-41D6-A266-882B21BA5595";
layerId = "017B63B1-0786-4580-AB43-90F0D18A8D90";
paths = (
{
closed = 1;
nodes = (
"542 394 OFFCURVE",
"490 434 OFFCURVE",
"300 434 CURVE SMOOTH",
"132 434 OFFCURVE",
"58 382 OFFCURVE",
"58 272 CURVE",
"148 272 LINE",
"151 346 OFFCURVE",
"176 350 OFFCURVE",
"300 351 CURVE SMOOTH",
"424 352 OFFCURVE",
"451 328 OFFCURVE",
"452 288 CURVE",
"383 267 OFFCURVE",
"385 259 OFFCURVE",
"266 252 CURVE SMOOTH",
"94 242 OFFCURVE",
"46 196 OFFCURVE",
"46 133 CURVE SMOOTH",
"46 27 OFFCURVE",
"96 0 OFFCURVE",
"200 -2 CURVE SMOOTH",
"265 -3 OFFCURVE",
"348 17 OFFCURVE",
"452 71 CURVE",
"452 0 LINE",
"542 0 LINE",
"542 293 LINE SMOOTH"
);
},
{
closed = 1;
nodes = (
"452 149 LINE",
"405 130 LINE SMOOTH",
"333 101 OFFCURVE",
"292 76 OFFCURVE",
"232 76 CURVE SMOOTH",
"156 76 OFFCURVE",
"129 79 OFFCURVE",
"129 128 CURVE SMOOTH",
"129 160 OFFCURVE",
"155 172 OFFCURVE",
"273 179 CURVE SMOOTH",
"331 182 OFFCURVE",
"371 183 OFFCURVE",
"452 212 CURVE"
);
},
{
closed = 1;
nodes = (
"510 0 LINE",
"626 0 LINE",
"626 90 LINE",
"510 90 LINE"
);
}
);
width = 600;
},
{
associatedMasterId = "220D0E0B-3E90-41D6-A266-882B21BA5595";
layerId = "DFE8F7EC-62E1-4714-AC20-5817034F21DE";
width = 600;
},
{
associatedMasterId = "220D0E0B-3E90-41D6-A266-882B21BA5595";
layerId = "7F09FF11-3643-4B6C-A766-80AECBCF01DC";
paths = (
{
closed = 1;
nodes = (
"542 394 OFFCURVE",
"490 434 OFFCURVE",
"300 434 CURVE SMOOTH",
"132 434 OFFCURVE",
"58 382 OFFCURVE",
"58 272 CURVE",
"148 272 LINE",
"151 346 OFFCURVE",
"176 350 OFFCURVE",
"300 351 CURVE SMOOTH",
"424 352 OFFCURVE",
"451 328 OFFCURVE",
"452 288 CURVE",
"383 267 OFFCURVE",
"334 262 OFFCURVE",
"266 262 CURVE SMOOTH",
"115 262 OFFCURVE",
"50 210 OFFCURVE",
"50 129 CURVE SMOOTH",
"50 30 OFFCURVE",
"95 0 OFFCURVE",
"200 -2 CURVE SMOOTH",
"265 -3 OFFCURVE",
"345 -5 OFFCURVE",
"452 65 CURVE",
"452 0 LINE",
"542 0 LINE",
"542 293 LINE SMOOTH"
);
},
{
closed = 1;
nodes = (
"452 154 LINE",
"335 88 OFFCURVE",
"303 82 OFFCURVE",
"227 82 CURVE SMOOTH",
"151 82 OFFCURVE",
"140 93 OFFCURVE",
"140 128 CURVE SMOOTH",
"140 159 OFFCURVE",
"173 172 OFFCURVE",
"273 172 CURVE SMOOTH",
"346 172 OFFCURVE",
"381 179 OFFCURVE",
"452 198 CURVE"
);
}
);
width = 600;
},
{
associatedMasterId = "220D0E0B-3E90-41D6-A266-882B21BA5595";
layerId = "3A78689E-4DCB-46FE-8061-57BB87F094DA";
paths = (
{
closed = 1;
nodes = (
"543 394 OFFCURVE",
"491 434 OFFCURVE",
"301 434 CURVE SMOOTH",
"133 434 OFFCURVE",
"59 382 OFFCURVE",
"59 272 CURVE",
"149 272 LINE",
"152 346 OFFCURVE",
"177 350 OFFCURVE",
"301 351 CURVE SMOOTH",
"425 352 OFFCURVE",
"452 328 OFFCURVE",
"453 288 CURVE",
"430 278 OFFCURVE",
"412 271 OFFCURVE",
"351 266 CURVE SMOOTH",
"243 257 LINE SMOOTH",
"98 245 OFFCURVE",
"51 208 OFFCURVE",
"51 124 CURVE SMOOTH",
"51 37 OFFCURVE",
"104 0 OFFCURVE",
"201 -2 CURVE SMOOTH",
"255 -3 OFFCURVE",
"316 3 OFFCURVE",
"400 41 CURVE SMOOTH",
"453 65 LINE",
"453 0 LINE",
"543 0 LINE",
"543 293 LINE SMOOTH"
);
},
{
closed = 1;
nodes = (
"453 148 LINE",
"344 89 OFFCURVE",
"282 77 OFFCURVE",
"222 77 CURVE SMOOTH",
"156 77 OFFCURVE",
"141 92 OFFCURVE",
"141 126 CURVE SMOOTH",
"141 156 OFFCURVE",
"167 173 OFFCURVE",
"266 182 CURVE SMOOTH",
"365 191 LINE SMOOTH",
"415 196 OFFCURVE",
"436 203 OFFCURVE",
"453 210 CURVE"
);
}
);
width = 600;
},
{
associatedMasterId = "220D0E0B-3E90-41D6-A266-882B21BA5595";
layerId = "AEC9514E-0AD3-4493-ADC1-6D0818EBAB6F";
paths = (
{
closed = 1;
nodes = (
"563 407.884 OFFCURVE",
"502 443 OFFCURVE",
"301 443 CURVE",
"115 443 OFFCURVE",
"40 418 OFFCURVE",
"40 287 CURVE",
"168 287 LINE",
"170 336 OFFCURVE",
"218 330 OFFCURVE",
"301.161 331 CURVE",
"403.369 331.726 OFFCURVE",
"426 317 OFFCURVE",
"431 288 CURVE",
"241.481 276.942 LINE",
"90.3554 264.436 OFFCURVE",
"31 217.709 OFFCURVE",
"31 124 CURVE",
"31 26.5708 OFFCURVE",
"98 -11 OFFCURVE",
"201 -13 CURVE",
"256 -14 OFFCURVE",
"321 3 OFFCURVE",
"408 43 CURVE",
"433 54 LINE",
"433 0 LINE",
"563 0 LINE",
"563 293 LINE"
);
},
{
closed = 1;
nodes = (
"433 159.982 LINE",
"333.37 107.326 OFFCURVE",
"278.144 97 OFFCURVE",
"222 97 CURVE",
"168.28 97 OFFCURVE",
"161 104.261 OFFCURVE",
"161 126 CURVE",
"161 141.222 OFFCURVE",
"178 159 OFFCURVE",
"268 167 CURVE",
"433 176 LINE"
);
}
);
width = 600;
},
{
associatedMasterId = "220D0E0B-3E90-41D6-A266-882B21BA5595";
layerId = "79245870-6F55-41C2-8694-F6534587582B";
paths = (
{
closed = 1;
nodes = (
"563 407.884 OFFCURVE",
"502 443 OFFCURVE",
"301 443 CURVE",
"115 443 OFFCURVE",
"40 418 OFFCURVE",
"40 287 CURVE",
"168 287 LINE",
"170 336 OFFCURVE",
"218 330 OFFCURVE",
"301.161 331 CURVE",
"403.369 331.726 OFFCURVE",
"426 317 OFFCURVE",
"431 288 CURVE",
"241.481 276.942 LINE",
"90.3554 264.436 OFFCURVE",
"31 217.709 OFFCURVE",
"31 124 CURVE",
"31 26.5708 OFFCURVE",
"98 -11 OFFCURVE",
"201 -13 CURVE",
"256 -14 OFFCURVE",
"321 3 OFFCURVE",
"408 43 CURVE",
"433 54 LINE",
"433 0 LINE",
"563 0 LINE",
"563 293 LINE"
);
},
{
closed = 1;
nodes = (
"433 159.982 LINE",
"333.37 107.326 OFFCURVE",
"278.144 97 OFFCURVE",
"222 97 CURVE",
"168.28 97 OFFCURVE",
"161 104.261 OFFCURVE",
"161 126 CURVE",
"161 141.222 OFFCURVE",
"178 159 OFFCURVE",
"268 167 CURVE",
"433 176 LINE"
);
}
);
width = 600;
},
{
anchors = (
{
name = top;
position = "{300, 443}";
}
);
layerId = "220D0E0B-3E90-41D6-A266-882B21BA5595";
name = Bold;
paths = (
{
closed = 1;
nodes = (
"546 394 OFFCURVE",
"494 434 OFFCURVE",
"304 434 CURVE SMOOTH",
"136 434 OFFCURVE",
"62 382 OFFCURVE",
"62 272 CURVE",
"152 272 LINE",
"155 346 OFFCURVE",
"180 350 OFFCURVE",
"304 351 CURVE SMOOTH",
"445 352 OFFCURVE",
"455 322 OFFCURVE",
"456 273 CURVE",
"246 257 LINE",
"101 245 OFFCURVE",
"54 208 OFFCURVE",
"54 124 CURVE SMOOTH",
"54 37 OFFCURVE",
"107 0 OFFCURVE",
"204 -2 CURVE SMOOTH",
"258 -3 OFFCURVE",
"319 3 OFFCURVE",
"403 41 CURVE SMOOTH",
"456 65 LINE",
"456 0 LINE",
"546 0 LINE",
"546 293 LINE SMOOTH"
);
},
{
closed = 1;
nodes = (
"456 148 LINE",
"347 89 OFFCURVE",
"285 77 OFFCURVE",
"225 77 CURVE SMOOTH",
"159 77 OFFCURVE",
"144 92 OFFCURVE",
"144 126 CURVE SMOOTH",
"144 156 OFFCURVE",
"170 173 OFFCURVE",
"269 182 CURVE",
"456 195 LINE"
);
}
);
width = 600;
}
);
unicode = 0061;
},
{
glyphname = ae;
lastChange = "2018-06-11 00:11:37 +0200";
layers = (
{
layerId = "220D0E0B-3E90-41D6-A266-882B21BA5595";
name = Bold;
paths = (
{
closed = 1;
nodes = (
"609 261 LINE",
"600 393 OFFCURVE",
"539 443 OFFCURVE",
"443 443 CURVE SMOOTH",
"384.552 443 OFFCURVE",
"344 424 OFFCURVE",
"315 399 CURVE",
"290 424 OFFCURVE",
"257 443 OFFCURVE",
"178 443 CURVE SMOOTH",
"60 443 OFFCURVE",
"2 382 OFFCURVE",
"2 282 CURVE",
"93 282 LINE",
"93 336 OFFCURVE",
"118 356 OFFCURVE",
"191 358 CURVE SMOOTH",
"257 360 OFFCURVE",
"280 335 OFFCURVE",
"280 268 CURVE",
"170 256 LINE SMOOTH",
"61 244 OFFCURVE",
"-6 192 OFFCURVE",
"-6 113 CURVE SMOOTH",
"-6 32 OFFCURVE",
"77 -13 OFFCURVE",
"150 -13 CURVE SMOOTH",
"226 -13 OFFCURVE",
"252 13 OFFCURVE",
"306 51 CURVE",
"334 19 OFFCURVE",
"367 -13 OFFCURVE",
"439 -13 CURVE SMOOTH",
"523 -13 OFFCURVE",
"583 28 OFFCURVE",
"605 134 CURVE",
"518 134 LINE",
"504 87 OFFCURVE",
"479 72 OFFCURVE",
"439 72 CURVE SMOOTH",
"379 72 OFFCURVE",
"357 96 OFFCURVE",
"352 176 CURVE",
"609 176 LINE"
);
},
{
closed = 1;
nodes = (
"353 261 LINE",
"359 335 OFFCURVE",
"387 359 OFFCURVE",
"438 359 CURVE SMOOTH",
"482 359 OFFCURVE",
"513 335 OFFCURVE",
"519 261 CURVE"
);
},
{
closed = 1;
nodes = (
"280 130 LINE",
"242 93 OFFCURVE",
"202 64 OFFCURVE",
"152 64 CURVE SMOOTH",
"110 64 OFFCURVE",
"79 85 OFFCURVE",
"79 122 CURVE SMOOTH",
"79 161 OFFCURVE",
"134 175 OFFCURVE",
"198 182 CURVE SMOOTH",
"280 191 LINE"
);
}
);
width = 600;
},
{
associatedMasterId = "220D0E0B-3E90-41D6-A266-882B21BA5595";
layerId = "D2CD8E2A-3223-4BC3-9CD5-45D6DF1E281F";
paths = (
{
closed = 1;
nodes = (
"354 394 OFFCURVE",
"302 434 OFFCURVE",
"182 434 CURVE SMOOTH",
"84 434 OFFCURVE",
"10 382 OFFCURVE",
"10 272 CURVE",
"100 272 LINE",
"100 346 OFFCURVE",
"128 349 OFFCURVE",
"182 351 CURVE SMOOTH",
"253 354 OFFCURVE",
"263 322 OFFCURVE",
"264 273 CURVE",
"174 257 LINE",
"49 232 OFFCURVE",
"2 208 OFFCURVE",
"2 124 CURVE SMOOTH",
"2 37 OFFCURVE",
"58 -2 OFFCURVE",
"140 -2 CURVE SMOOTH",
"202 -2 OFFCURVE",
"231 36 OFFCURVE",
"264 65 CURVE",
"354 65 LINE",
"354 293 LINE SMOOTH"
);
},
{
closed = 1;
nodes = (
"264 148 LINE",
"222 103 OFFCURVE",
"183 77 OFFCURVE",
"138 77 CURVE SMOOTH",
"107 77 OFFCURVE",
"92 92 OFFCURVE",
"92 120 CURVE SMOOTH",
"92 141 OFFCURVE",
"118 167 OFFCURVE",
"197 182 CURVE",
"264 195 LINE"
);
},
{
closed = 1;
nodes = (
"597 261 LINE",
"597 393 OFFCURVE",
"532 443 OFFCURVE",
"436 443 CURVE SMOOTH",
"310 443 OFFCURVE",
"264 381 OFFCURVE",
"264 215 CURVE SMOOTH",
"264 49 OFFCURVE",
"310 -13 OFFCURVE",
"436 -13 CURVE SMOOTH",
"516 -13 OFFCURVE",
"593 28 OFFCURVE",
"593 134 CURVE",
"501 134 LINE",
"501 87 OFFCURVE",
"450 72 OFFCURVE",
"436 72 CURVE SMOOTH",
"387 72 OFFCURVE",
"355 96 OFFCURVE",
"355 176 CURVE",
"597 176 LINE"
);
},
{
closed = 1;
nodes = (
"356 261 LINE",
"356 335 OFFCURVE",
"391 358 OFFCURVE",
"436 358 CURVE SMOOTH",
"471 358 OFFCURVE",
"507 335 OFFCURVE",
"507 261 CURVE"
);
}
);
width = 600;
},
{
associatedMasterId = "220D0E0B-3E90-41D6-A266-882B21BA5595";
layerId = "2E0903DB-DA34-4230-8045-20399F61474C";
paths = (
{
closed = 1;
nodes = (
"597 275 LINE",
"597 407 OFFCURVE",
"527 443 OFFCURVE",
"431 443 CURVE SMOOTH",
"375 443 OFFCURVE",
"339 428 OFFCURVE",
"312 399 CURVE",
"279 427 OFFCURVE",
"241 443 OFFCURVE",
"182 443 CURVE SMOOTH",
"84 443 OFFCURVE",
"10 382 OFFCURVE",
"10 272 CURVE",
"100 272 LINE",
"100 346 OFFCURVE",
"138 358 OFFCURVE",
"196 358 CURVE SMOOTH",
"261 358 OFFCURVE",
"277 323 OFFCURVE",
"278 274 CURVE",
"174 257 LINE SMOOTH",
"65 239 OFFCURVE",
"2 199 OFFCURVE",
"2 124 CURVE SMOOTH",
"2 37 OFFCURVE",
"58 -1 OFFCURVE",
"133 -1 CURVE SMOOTH",
"202 -1 OFFCURVE",
"290 48 OFFCURVE",
"312 77 CURVE",
"323 42 OFFCURVE",
"363 -1 OFFCURVE",
"441 -1 CURVE SMOOTH",
"507 -1 OFFCURVE",
"593 28 OFFCURVE",
"593 134 CURVE",
"501 134 LINE",
"501 92 OFFCURVE",
"473 72 OFFCURVE",
"428 72 CURVE SMOOTH",
"351 72 OFFCURVE",
"355 141 OFFCURVE",
"355 190 CURVE",
"597 190 LINE"
);
},
{
closed = 1;
nodes = (
"356 275 LINE",
"356 339 OFFCURVE",
"382 358 OFFCURVE",
"431 358 CURVE SMOOTH",
"480 358 OFFCURVE",
"507 339 OFFCURVE",
"507 275 CURVE"
);
},
{
closed = 1;
nodes = (
"278 148 LINE",
"253 103 OFFCURVE",
"183 77 OFFCURVE",
"145 77 CURVE SMOOTH",
"107 77 OFFCURVE",
"92 94 OFFCURVE",
"92 122 CURVE SMOOTH",
"92 143 OFFCURVE",
"112 174 OFFCURVE",
"197 182 CURVE SMOOTH",
"278 190 LINE"
);
}
);
width = 600;
},
{
associatedMasterId = "220D0E0B-3E90-41D6-A266-882B21BA5595";
layerId = "34DB9411-9DA2-4F93-AAB7-A09CD274FF91";
paths = (
{
closed = 1;
nodes = (
"605 258 LINE",
"596 390 OFFCURVE",
"535 443 OFFCURVE",
"439 443 CURVE SMOOTH",
"378 443 OFFCURVE",
"347 423 OFFCURVE",
"318 396 CURVE",
"293 422 OFFCURVE",
"260 443 OFFCURVE",
"178 443 CURVE SMOOTH",
"60 443 OFFCURVE",
"2 382 OFFCURVE",
"2 282 CURVE",
"93 282 LINE",
"93 336 OFFCURVE",
"118 356 OFFCURVE",
"191 358 CURVE SMOOTH",
"257 360 OFFCURVE",
"280 336 OFFCURVE",
"280 269 CURVE",
"170 257 LINE SMOOTH",
"61 245 OFFCURVE",
"-6 208 OFFCURVE",
"-6 124 CURVE SMOOTH",
"-6 27 OFFCURVE",
"77 -13 OFFCURVE",
"138 -13 CURVE SMOOTH",
"196 -13 OFFCURVE",
"240 12 OFFCURVE",
"305 64 CURVE",
"345 0 OFFCURVE",
"374 -13 OFFCURVE",
"439 -13 CURVE SMOOTH",
"519 -13 OFFCURVE",
"579 28 OFFCURVE",
"601 134 CURVE",
"518 134 LINE",
"504 87 OFFCURVE",
"476 70 OFFCURVE",
"429 70 CURVE SMOOTH",
"384 70 OFFCURVE",
"353 109 OFFCURVE",
"348 181 CURVE",
"605 181 LINE"
);
},
{
closed = 1;
nodes = (
"349 258 LINE",
"349 312 OFFCURVE",
"366 359 OFFCURVE",
"437 359 CURVE SMOOTH",
"501 359 OFFCURVE",
"518 312 OFFCURVE",
"519 258 CURVE"
);
},
{
closed = 1;
nodes = (
"280 145 LINE",
"247 108 OFFCURVE",
"202 73 OFFCURVE",
"152 71 CURVE SMOOTH",
"110 69 OFFCURVE",
"84 93 OFFCURVE",
"84 122 CURVE SMOOTH",
"84 156 OFFCURVE",
"134 175 OFFCURVE",
"198 182 CURVE SMOOTH",
"280 191 LINE"
);
}
);
width = 600;
}
);
unicode = 00E6;
},
{
glyphname = b;
lastChange = "2018-06-11 00:11:37 +0200";
layers = (
{
associatedMasterId = "220D0E0B-3E90-41D6-A266-882B21BA5595";
layerId = "05AB4B79-ABDB-47EA-8931-DDDCD85E0765";
paths = (
{
closed = 1;
nodes = (
"233 423 OFFCURVE",
"291 444 OFFCURVE",
"345 444 CURVE SMOOTH",
"475 444 OFFCURVE",
"566 352 OFFCURVE",
"566 212 CURVE SMOOTH",
"566 86 OFFCURVE",
"494 -13 OFFCURVE",
"353 -13 CURVE SMOOTH",
"270 -13 OFFCURVE",
"205 45 OFFCURVE",
"193 70 CURVE",
"193 0 LINE",
"142 0 LINE",
"142 540 LINE",
"14 540 LINE",
"14 590 LINE",
"193 590 LINE",
"193 389 LINE"
);
},
{
closed = 1;
nodes = (
"193 144 LINE",
"229 85 OFFCURVE",
"286 35 OFFCURVE",
"353 35 CURVE SMOOTH",
"452 35 OFFCURVE",
"514 106 OFFCURVE",
"514 212 CURVE SMOOTH",
"514 324 OFFCURVE",
"433 391 OFFCURVE",
"345 391 CURVE SMOOTH",
"285 391 OFFCURVE",
"250 372 OFFCURVE",
"193 320 CURVE"
);
}
);
width = 600;
},
{
associatedMasterId = "220D0E0B-3E90-41D6-A266-882B21BA5595";
layerId = "3D13B2DB-B9AE-44DD-B536-0128D7A8DC20";
paths = (
{
closed = 1;
nodes = (
"45 540 LINE",
"134 540 LINE",
"134 50 LINE",
"45 50 LINE",
"45 0 LINE",
"184 0 LINE",
"184 65 LINE",
"223 17 OFFCURVE",
"282 -13 OFFCURVE",
"350 -13 CURVE SMOOTH",
"475 -13 OFFCURVE",
"567 89 OFFCURVE",
"567 215 CURVE SMOOTH",
"567 341 OFFCURVE",
"475 443 OFFCURVE",
"350 443 CURVE SMOOTH",
"281 443 OFFCURVE",
"223 413 OFFCURVE",
"184 365 CURVE",
"184 540 LINE",
"267 540 LINE",
"267 590 LINE",
"45 590 LINE"
);
},
{
closed = 1;
nodes = (
"196 328 OFFCURVE",
"261 391 OFFCURVE",
"349 391 CURVE SMOOTH",
"447 391 OFFCURVE",
"515 313 OFFCURVE",
"516 215 CURVE SMOOTH",
"517 117 OFFCURVE",
"447 39 OFFCURVE",
"349 38 CURVE SMOOTH",
"261 37 OFFCURVE",
"196 102 OFFCURVE",
"184 186 CURVE",
"184 244 LINE"
);
}
);
width = 600;
},
{
associatedMasterId = "220D0E0B-3E90-41D6-A266-882B21BA5595";
layerId = "F8DF1116-F3F7-4BAA-BF45-0EBD5B0924BF";
paths = (
{
closed = 1;
nodes = (
"45 540 LINE",
"134 540 LINE",
"134 50 LINE",
"45 50 LINE",
"45 0 LINE",
"184 0 LINE",
"184 65 LINE",
"223 17 OFFCURVE",
"282 -13 OFFCURVE",
"350 -13 CURVE SMOOTH",
"475 -13 OFFCURVE",
"567 89 OFFCURVE",
"567 215 CURVE SMOOTH",
"567 341 OFFCURVE",
"475 443 OFFCURVE",
"350 443 CURVE SMOOTH",
"281 443 OFFCURVE",
"223 413 OFFCURVE",
"184 365 CURVE",
"184 590 LINE",
"45 590 LINE"
);
},
{
closed = 1;
nodes = (
"196 328 OFFCURVE",
"261 391 OFFCURVE",
"349 391 CURVE SMOOTH",
"447 391 OFFCURVE",
"515 313 OFFCURVE",
"516 215 CURVE SMOOTH",
"517 117 OFFCURVE",
"447 39 OFFCURVE",
"349 38 CURVE SMOOTH",
"261 37 OFFCURVE",
"196 102 OFFCURVE",
"184 186 CURVE",
"184 244 LINE"
);
}
);
width = 600;
},
{
associatedMasterId = "220D0E0B-3E90-41D6-A266-882B21BA5595";
layerId = "B2840AE9-7E25-40EF-BA49-B54D39CAF9C3";
paths = (
{
closed = 1;
nodes = (
"88 0 LINE",
"138 0 LINE",
"138 590 LINE",
"88 590 LINE"
);
},
{
closed = 1;
nodes = (
"88 82 OFFCURVE",
"147 -1 OFFCURVE",
"250 -1 CURVE SMOOTH",
"293 -2 LINE",
"328 -3 LINE SMOOTH",
"505 -1 OFFCURVE",
"568 38 OFFCURVE",
"568 199 CURVE SMOOTH",
"568 322 OFFCURVE",
"546 368 OFFCURVE",
"519 388 CURVE SMOOTH",
"493 411 OFFCURVE",
"474 430 OFFCURVE",
"334 428 CURVE SMOOTH",
"257 427 OFFCURVE",
"201 378 OFFCURVE",
"167 347 CURVE SMOOTH",
"102 288 OFFCURVE",
"89 199 OFFCURVE",
"88 199 CURVE SMOOTH"
);
},
{
closed = 1;
nodes = (
"132 208 OFFCURVE",
"144 263 OFFCURVE",
"203 314 CURVE SMOOTH",
"238 344 OFFCURVE",
"274 375 OFFCURVE",
"328 382 CURVE SMOOTH",
"423 394 OFFCURVE",
"473 366 OFFCURVE",
"488 352 CURVE SMOOTH",
"505 341 OFFCURVE",
"523 308 OFFCURVE",
"523 199 CURVE SMOOTH",
"523 69 OFFCURVE",
"477 50 OFFCURVE",
"328 48 CURVE SMOOTH",
"188 49 OFFCURVE",
"132 71 OFFCURVE",
"132 199 CURVE SMOOTH"
);
}
);
width = 600;
},
{
associatedMasterId = "220D0E0B-3E90-41D6-A266-882B21BA5595";
layerId = "B13B4A8D-E3B9-4AB7-A900-B76186E52B34";
paths = (
{
closed = 1;
nodes = (
"68 -20 LINE",
"158 -20 LINE",
"158 610 LINE",
"68 610 LINE"
);
},
{
closed = 1;
nodes = (
"68.59 218.965 LINE",
"61 82 OFFCURVE",
"150 -21 OFFCURVE",
"322 -22 CURVE",
"542 -21 OFFCURVE",
"588 19 OFFCURVE",
"588 199 CURVE",
"588 389 OFFCURVE",
"543 446 OFFCURVE",
"334 443 CURVE",
"249 442 OFFCURVE",
"187.676 392.917 OFFCURVE",
"153.525 361.779 CURVE",
"93.748 307.52 OFFCURVE",
"76.467 242.257 OFFCURVE",
"82.666 223.972 CURVE"
);
},
{
closed = 1;
nodes = (
"152 205 OFFCURVE",
"154 249 OFFCURVE",
"208 296 CURVE",
"243 326 OFFCURVE",
"283 356 OFFCURVE",
"331 362 CURVE",
"467 379 OFFCURVE",
"503 351 OFFCURVE",
"503 199 CURVE",
"503 84 OFFCURVE",
"471 70 OFFCURVE",
"328 68 CURVE",
"194 69 OFFCURVE",
"152 87 OFFCURVE",
"152 199 CURVE"
);
}
);
width = 600;
},
{
associatedMasterId = "220D0E0B-3E90-41D6-A266-882B21BA5595";
layerId = "DFE8F7EC-62E1-4714-AC20-5817034F21DE";
width = 600;
},
{
associatedMasterId = "220D0E0B-3E90-41D6-A266-882B21BA5595";
layerId = "5AC8FFF0-27F7-4D28-A011-1653AF8C6D1D";
paths = (
{
closed = 1;
nodes = (
"142 214 OFFCURVE",
"185 357 OFFCURVE",
"303 358 CURVE SMOOTH",
"439 359 OFFCURVE",
"455 326 OFFCURVE",
"455 215 CURVE SMOOTH",
"455 104 OFFCURVE",
"439 72 OFFCURVE",
"303 72 CURVE",
"191 72 OFFCURVE",
"127 163 OFFCURVE",
"127 163 CURVE",
"109 78 LINE",
"161 17 OFFCURVE",
"242 -13 OFFCURVE",
"303 -13 CURVE SMOOTH",
"499 -13 OFFCURVE",
"545 49 OFFCURVE",
"545 215 CURVE SMOOTH",
"545 381 OFFCURVE",
"499 443 OFFCURVE",
"303 441 CURVE SMOOTH",
"174 440 OFFCURVE",
"120 351 OFFCURVE",
"120 310 CURVE",
"120 204 LINE"
);
},
{
closed = 1;
nodes = (
"59 603 LINE",
"59 0 LINE",
"149 0 LINE",
"149 603 LINE"
);
}
);
width = 600;
},
{
associatedMasterId = "220D0E0B-3E90-41D6-A266-882B21BA5595";
layerId = "29187AA3-E4A8-45B5-8CAC-EBBBEA647BA7";
paths = (
{
closed = 1;
nodes = (
"76 603 LINE",
"76 0 LINE",
"166 0 LINE",
"166 603 LINE"
);
},
{
closed = 1;
nodes = (
"464 221 LINE",
"464 110 OFFCURVE",
"448 78 OFFCURVE",
"312 78 CURVE SMOOTH",
"243 78 OFFCURVE",
"125 220 OFFCURVE",
"104 242 CURVE",
"76 158 LINE",
"111 116 OFFCURVE",
"208 -7 OFFCURVE",
"312 -7 CURVE SMOOTH",
"508 -7 OFFCURVE",
"554 55 OFFCURVE",
"554 221 CURVE"
);
},
{
closed = 1;
nodes = (
"554 387 OFFCURVE",
"508 449 OFFCURVE",
"312 449 CURVE SMOOTH",
"208 449 OFFCURVE",
"111 326 OFFCURVE",
"76 284 CURVE",
"104 200 LINE",
"125 222 OFFCURVE",
"243 364 OFFCURVE",
"312 364 CURVE SMOOTH",
"448 364 OFFCURVE",
"464 332 OFFCURVE",
"464 221 CURVE",
"554 221 LINE"
);
}
);
width = 600;
},
{
associatedMasterId = "220D0E0B-3E90-41D6-A266-882B21BA5595";
layerId = "825BC576-32C5-4099-98B7-ECA6D1BEB93E";
paths = (
{
closed = 1;
nodes = (
"76 603 LINE",
"76 0 LINE",
"166 0 LINE",
"166 603 LINE"
);
},
{
closed = 1;
nodes = (
"464 221 LINE",
"464 110 OFFCURVE",
"448 78 OFFCURVE",
"312 78 CURVE SMOOTH",
"243 78 OFFCURVE",
"125 220 OFFCURVE",
"104 242 CURVE",
"76 158 LINE",
"111 116 OFFCURVE",
"208 -7 OFFCURVE",
"312 -7 CURVE SMOOTH",
"508 -7 OFFCURVE",
"554 55 OFFCURVE",
"554 221 CURVE"
);
},
{
closed = 1;
nodes = (
"554 387 OFFCURVE",
"508 449 OFFCURVE",
"312 449 CURVE SMOOTH",
"208 449 OFFCURVE",
"111 326 OFFCURVE",
"76 284 CURVE",
"104 200 LINE",
"125 222 OFFCURVE",
"243 364 OFFCURVE",
"312 364 CURVE SMOOTH",
"448 364 OFFCURVE",
"464 332 OFFCURVE",
"464 221 CURVE",
"554 221 LINE"
);
}
);
width = 600;
},
{
layerId = "220D0E0B-3E90-41D6-A266-882B21BA5595";
name = Bold;
paths = (
{
closed = 1;
nodes = (
"247 346 OFFCURVE",
"278 363 OFFCURVE",
"342 363 CURVE SMOOTH",
"424 363 OFFCURVE",
"449 325 OFFCURVE",
"449 216 CURVE",
"449 107 OFFCURVE",
"424 69 OFFCURVE",
"342 69 CURVE SMOOTH",
"278 69 OFFCURVE",
"247 86 OFFCURVE",
"151 155 CURVE",
"151 277 LINE"
);
},
{
closed = 1;
nodes = (
"151 603 LINE",
"61 603 LINE",
"61 0 LINE",
"151 0 LINE",
"151 54 LINE",
"228 6 OFFCURVE",
"262 -12 OFFCURVE",
"345 -12 CURVE SMOOTH",
"480 -12 OFFCURVE",
"539 36 OFFCURVE",
"539 216 CURVE",
"539 396 OFFCURVE",
"480 444 OFFCURVE",
"345 444 CURVE SMOOTH",
"262 444 OFFCURVE",
"228 426 OFFCURVE",
"151 378 CURVE"
);
}
);
width = 600;
},
{
associatedMasterId = "220D0E0B-3E90-41D6-A266-882B21BA5595";
layerId = "CB27AADF-63CF-4888-A755-4CB241FB53CA";
paths = (
{
closed = 1;
nodes = (
"76 603 LINE",
"76 0 LINE",
"166 0 LINE",
"166 603 LINE"
);
},
{
closed = 1;
nodes = (
"464 221 LINE",
"464 110 OFFCURVE",
"448 78 OFFCURVE",
"312 78 CURVE SMOOTH",
"243 78 OFFCURVE",
"125 190 OFFCURVE",
"104 212 CURVE",
"76 138 LINE",
"111 96 OFFCURVE",
"208 -7 OFFCURVE",
"312 -7 CURVE SMOOTH",
"508 -7 OFFCURVE",
"554 55 OFFCURVE",
"554 221 CURVE"
);
},
{
closed = 1;
nodes = (
"554 387 OFFCURVE",
"508 449 OFFCURVE",
"312 449 CURVE SMOOTH",
"208 449 OFFCURVE",
"111 346 OFFCURVE",
"76 304 CURVE",
"104 230 LINE",
"125 252 OFFCURVE",
"243 364 OFFCURVE",
"312 364 CURVE SMOOTH",
"448 364 OFFCURVE",
"464 332 OFFCURVE",
"464 221 CURVE",
"554 221 LINE"
);
}
);
width = 600;
},
{
associatedMasterId = "220D0E0B-3E90-41D6-A266-882B21BA5595";
layerId = "98F585C3-5B8C-4170-886C-F532D4CC3E6B";
paths = (
{
closed = 1;
nodes = (
"76 603 LINE",
"76 0 LINE",
"166 0 LINE",
"166 603 LINE"
);
},
{
closed = 1;
nodes = (
"464 221 LINE",
"464 110 OFFCURVE",
"448 78 OFFCURVE",
"312 78 CURVE SMOOTH",
"243 78 OFFCURVE",
"125 190 OFFCURVE",
"104 212 CURVE",
"76 128 LINE",
"111 86 OFFCURVE",
"208 -7 OFFCURVE",
"312 -7 CURVE SMOOTH",
"508 -7 OFFCURVE",
"554 55 OFFCURVE",
"554 221 CURVE"
);
},
{
closed = 1;
nodes = (
"554 387 OFFCURVE",
"508 449 OFFCURVE",
"312 449 CURVE SMOOTH",
"208 449 OFFCURVE",
"111 356 OFFCURVE",
"76 314 CURVE",
"104 230 LINE",
"125 252 OFFCURVE",
"243 364 OFFCURVE",
"312 364 CURVE SMOOTH",
"448 364 OFFCURVE",
"464 332 OFFCURVE",
"464 221 CURVE",
"554 221 LINE"
);
}
);
width = 600;
},
{
associatedMasterId = "220D0E0B-3E90-41D6-A266-882B21BA5595";
layerId = "F2571819-5836-45FE-A49A-80D9A493BCED";
paths = (
{
closed = 1;
nodes = (
"76 603 LINE",
"76 0 LINE",
"166 0 LINE",
"166 603 LINE"
);
},
{
closed = 1;
nodes = (
"464 221 LINE",
"464 110 OFFCURVE",
"448 78 OFFCURVE",
"312 78 CURVE SMOOTH",
"243 78 OFFCURVE",
"125 190 OFFCURVE",
"104 212 CURVE",
"76 158 LINE",
"111 116 OFFCURVE",
"208 -7 OFFCURVE",
"312 -7 CURVE SMOOTH",
"508 -7 OFFCURVE",
"554 55 OFFCURVE",
"554 221 CURVE"
);
},
{
closed = 1;
nodes = (
"554 387 OFFCURVE",
"508 449 OFFCURVE",
"312 449 CURVE SMOOTH",
"208 449 OFFCURVE",
"111 326 OFFCURVE",
"76 284 CURVE",
"104 230 LINE",
"125 252 OFFCURVE",
"243 364 OFFCURVE",
"312 364 CURVE SMOOTH",
"448 364 OFFCURVE",
"464 332 OFFCURVE",
"464 221 CURVE",
"554 221 LINE"
);
}
);
width = 600;
}
);
unicode = 0062;
},
{
glyphname = c;
lastChange = "2018-06-11 00:11:37 +0200";
layers = (
{
layerId = "220D0E0B-3E90-41D6-A266-882B21BA5595";
name = Bold;
paths = (
{
closed = 1;
nodes = (
"448 147 LINE",
"437 90 OFFCURVE",
"403 72 OFFCURVE",
"300 72 CURVE SMOOTH",
"164 72 OFFCURVE",
"148 104 OFFCURVE",
"148 215 CURVE SMOOTH",
"148 326 OFFCURVE",
"164 358 OFFCURVE",
"300 358 CURVE SMOOTH",
"419 358 OFFCURVE",
"446 333 OFFCURVE",
"451 253 CURVE",
"541 253 LINE",
"534 391 OFFCURVE",
"480 443 OFFCURVE",
"300 443 CURVE SMOOTH",
"104 443 OFFCURVE",
"58 381 OFFCURVE",
"58 215 CURVE SMOOTH",
"58 49 OFFCURVE",
"104 -13 OFFCURVE",
"300 -13 CURVE SMOOTH",
"467 -13 OFFCURVE",
"525 32 OFFCURVE",
"539 147 CURVE"
);
}
);
width = 600;
},
{
associatedMasterId = "220D0E0B-3E90-41D6-A266-882B21BA5595";
layerId = "A865AA20-0A17-40E6-8AE2-722A2A66398E";
paths = (
{
closed = 1;
nodes = (
"559 317 OFFCURVE",
"526 427 OFFCURVE",
"302 430 CURVE",
"132 433 OFFCURVE",
"41 390 OFFCURVE",
"41 220 CURVE",
"41 79 OFFCURVE",
"162 -1 OFFCURVE",
"310 -1 CURVE",
"310 -1 OFFCURVE",
"525 -1 OFFCURVE",
"525 -1 CURVE",
"525 89 LINE",
"525 89 OFFCURVE",
"310 89 OFFCURVE",
"310 89 CURVE",
"213 89 OFFCURVE",
"131 136 OFFCURVE",
"131 220 CURVE",
"131 357 OFFCURVE",
"195 338 OFFCURVE",
"302 338 CURVE",
"404 338 OFFCURVE",
"470 310 OFFCURVE",
"470 253 CURVE",
"559 252 LINE"
);
}
);
width = 600;
},
{
associatedMasterId = "220D0E0B-3E90-41D6-A266-882B21BA5595";
layerId = "65F4DC50-F466-4253-92D3-33078FBA1D81";
paths = (
{
closed = 1;
nodes = (
"548 327 OFFCURVE",
"515 427 OFFCURVE",
"291 430 CURVE",
"121 433 OFFCURVE",
"41 390 OFFCURVE",
"41 220 CURVE",
"41 79 OFFCURVE",
"122 -1 OFFCURVE",
"310 -1 CURVE",
"310 -1 OFFCURVE",
"527 -1 OFFCURVE",
"527 -1 CURVE",
"527 89 LINE",
"527 89 OFFCURVE",
"310 89 OFFCURVE",
"310 89 CURVE",
"173 89 OFFCURVE",
"131 136 OFFCURVE",
"131 220 CURVE",
"131 339 OFFCURVE",
"184 338 OFFCURVE",
"291 338 CURVE",
"393 338 OFFCURVE",
"459 320 OFFCURVE",
"459 223 CURVE",
"548 222 LINE"
);
}
);
width = 600;
},
{
associatedMasterId = "220D0E0B-3E90-41D6-A266-882B21BA5595";
layerId = "DFE8F7EC-62E1-4714-AC20-5817034F21DE";
width = 600;
},
{
associatedMasterId = "220D0E0B-3E90-41D6-A266-882B21BA5595";
layerId = "633DC651-71CC-4E0F-94A5-92956FEB5CC5";
paths = (
{
closed = 1;
nodes = (
"446 124 LINE",
"430 85 OFFCURVE",
"392 72 OFFCURVE",
"305 72 CURVE SMOOTH",
"169 72 OFFCURVE",
"153 104 OFFCURVE",
"153 215 CURVE SMOOTH",
"153 326 OFFCURVE",
"169 358 OFFCURVE",
"305 358 CURVE SMOOTH",
"414 358 OFFCURVE",
"446 338 OFFCURVE",
"454 273 CURVE",
"545 273 LINE",
"533 396 OFFCURVE",
"476 443 OFFCURVE",
"305 443 CURVE SMOOTH",
"109 443 OFFCURVE",
"63 381 OFFCURVE",
"63 215 CURVE SMOOTH",
"63 49 OFFCURVE",
"109 -13 OFFCURVE",
"305 -13 CURVE SMOOTH",
"460 -13 OFFCURVE",
"521 26 OFFCURVE",
"540 124 CURVE"
);
}
);
width = 600;
}
);
unicode = 0063;
},
{
glyphname = d;
lastChange = "2018-06-11 00:11:37 +0200";
layers = (
{
layerId = "220D0E0B-3E90-41D6-A266-882B21BA5595";
name = Bold;
paths = (
{
closed = 1;
nodes = (
"449 155 LINE",
"353 86 OFFCURVE",
"322 69 OFFCURVE",
"258 69 CURVE SMOOTH",
"176 69 OFFCURVE",
"151 107 OFFCURVE",
"151 216 CURVE",
"151 325 OFFCURVE",
"176 363 OFFCURVE",
"258 363 CURVE SMOOTH",
"322 363 OFFCURVE",
"353 346 OFFCURVE",
"449 277 CURVE"
);
},
{
closed = 1;
nodes = (
"372 426 OFFCURVE",
"338 444 OFFCURVE",
"255 444 CURVE SMOOTH",
"120 444 OFFCURVE",
"61 396 OFFCURVE",
"61 216 CURVE",
"61 36 OFFCURVE",
"120 -12 OFFCURVE",
"255 -12 CURVE SMOOTH",
"338 -12 OFFCURVE",
"372 6 OFFCURVE",
"449 54 CURVE",
"449 0 LINE",
"539 0 LINE",
"539 603 LINE",
"449 603 LINE",
"449 378 LINE"
);
}
);
width = 600;
},
{
associatedMasterId = "220D0E0B-3E90-41D6-A266-882B21BA5595";
layerId = "4623FB18-C913-41E2-A5D8-DC0AB49A6133";
paths = (
{
closed = 1;
nodes = (
"339 590 LINE",
"339 540 LINE",
"422 540 LINE",
"422 365 LINE",
"383 413 OFFCURVE",
"325 443 OFFCURVE",
"256 443 CURVE SMOOTH",
"131 443 OFFCURVE",
"39 341 OFFCURVE",
"39 215 CURVE SMOOTH",
"39 89 OFFCURVE",
"131 -13 OFFCURVE",
"256 -13 CURVE SMOOTH",
"324 -13 OFFCURVE",
"383 17 OFFCURVE",
"422 65 CURVE",
"422 0 LINE",
"561 0 LINE",
"561 50 LINE",
"472 50 LINE",
"472 540 LINE",
"472 590 LINE"
);
},
{
closed = 1;
nodes = (
"422 186 LINE",
"410 102 OFFCURVE",
"345 37 OFFCURVE",
"257 38 CURVE SMOOTH",
"159 39 OFFCURVE",
"89 117 OFFCURVE",
"90 215 CURVE SMOOTH",
"91 313 OFFCURVE",
"159 391 OFFCURVE",
"257 391 CURVE SMOOTH",
"345 391 OFFCURVE",
"410 328 OFFCURVE",
"422 244 CURVE"
);
}
);
width = 600;
},
{
associatedMasterId = "220D0E0B-3E90-41D6-A266-882B21BA5595";
layerId = "2009B2B6-C850-4906-BD92-7470212D49EB";
paths = (
{
closed = 1;
nodes = (
"305 590 LINE",
"305 540 LINE",
"428 540 LINE",
"428 345 LINE",
"389 393 OFFCURVE",
"331 443 OFFCURVE",
"262 443 CURVE SMOOTH",
"137 443 OFFCURVE",
"45 343 OFFCURVE",
"45 215 CURVE SMOOTH",
"45 89 OFFCURVE",
"137 -13 OFFCURVE",
"262 -13 CURVE SMOOTH",
"330 -13 OFFCURVE",
"389 37 OFFCURVE",
"428 85 CURVE",
"428 0 LINE",
"567 0 LINE",
"567 50 LINE",
"478 50 LINE",
"478 590 LINE"
);
},
{
closed = 1;
nodes = (
"428 151 LINE",
"373 93 OFFCURVE",
"331 37 OFFCURVE",
"263 38 CURVE SMOOTH",
"164 39 OFFCURVE",
"95 117 OFFCURVE",
"96 215 CURVE SMOOTH",
"96 215 OFFCURVE",
"96 216 OFFCURVE",
"96 216 CURVE SMOOTH",
"96 217 LINE SMOOTH",
"96 315 OFFCURVE",
"165 393 OFFCURVE",
"263 394 CURVE SMOOTH",
"331 395 OFFCURVE",
"373 339 OFFCURVE",
"428 281 CURVE"
);
}
);
width = 600;
},
{
associatedMasterId = "220D0E0B-3E90-41D6-A266-882B21BA5595";
layerId = "907E76B9-10EB-42A7-A67D-615D9179EB39";
paths = (
{
closed = 1;
nodes = (
"489 590 LINE",
"489 0 LINE",
"539 0 LINE",
"539 590 LINE"
);
},
{
closed = 1;
nodes = (
"538 199 OFFCURVE",
"525 288 OFFCURVE",
"460 347 CURVE SMOOTH",
"426 378 OFFCURVE",
"370 427 OFFCURVE",
"293 428 CURVE SMOOTH",
"153 430 OFFCURVE",
"134 411 OFFCURVE",
"108 388 CURVE SMOOTH",
"81 368 OFFCURVE",
"59 322 OFFCURVE",
"59 199 CURVE SMOOTH",
"59 38 OFFCURVE",
"122 -1 OFFCURVE",
"299 -3 CURVE SMOOTH",
"334 -2 LINE",
"377 -1 LINE SMOOTH",
"480 -1 OFFCURVE",
"539 82 OFFCURVE",
"539 199 CURVE SMOOTH"
);
},
{
closed = 1;
nodes = (
"495 71 OFFCURVE",
"439 49 OFFCURVE",
"299 48 CURVE SMOOTH",
"150 50 OFFCURVE",
"104 69 OFFCURVE",
"104 199 CURVE SMOOTH",
"104 308 OFFCURVE",
"122 341 OFFCURVE",
"139 352 CURVE SMOOTH",
"154 366 OFFCURVE",
"204 394 OFFCURVE",
"299 382 CURVE SMOOTH",
"353 375 OFFCURVE",
"389 344 OFFCURVE",
"424 314 CURVE SMOOTH",
"483 263 OFFCURVE",
"495 208 OFFCURVE",
"495 199 CURVE SMOOTH"
);
}
);
width = 600;
},
{
associatedMasterId = "220D0E0B-3E90-41D6-A266-882B21BA5595";
layerId = "2FB1EBE5-2F62-4248-A147-50F00D8E75F5";
paths = (
{
closed = 1;
nodes = (
"169 72 OFFCURVE",
"153 104 OFFCURVE",
"153 215 CURVE SMOOTH",
"153 326 OFFCURVE",
"169 358 OFFCURVE",
"305 358 CURVE SMOOTH",
"441 358 OFFCURVE",
"457 326 OFFCURVE",
"457 215 CURVE SMOOTH",
"457 104 OFFCURVE",
"441 72 OFFCURVE",
"305 72 CURVE SMOOTH"
);
},
{
closed = 1;
nodes = (
"501 -13 OFFCURVE",
"547 49 OFFCURVE",
"547 215 CURVE SMOOTH",
"547 381 OFFCURVE",
"501 443 OFFCURVE",
"305 443 CURVE SMOOTH",
"109 443 OFFCURVE",
"63 381 OFFCURVE",
"63 215 CURVE SMOOTH",
"63 49 OFFCURVE",
"109 -13 OFFCURVE",
"305 -13 CURVE SMOOTH"
);
},
{
closed = 1;
nodes = (
"459 0 LINE",
"549 0 LINE",
"549 603 LINE",
"459 603 LINE"
);
}
);
width = 600;
},
{
associatedMasterId = "220D0E0B-3E90-41D6-A266-882B21BA5595";
layerId = "DFE8F7EC-62E1-4714-AC20-5817034F21DE";
width = 600;
},
{
associatedMasterId = "220D0E0B-3E90-41D6-A266-882B21BA5595";
layerId = "FCB2D9C5-CF67-4BCC-9D4F-3319FC098803";
paths = (
{
closed = 1;
nodes = (
"478 310 LINE",
"478 351 OFFCURVE",
"424 440 OFFCURVE",
"295 441 CURVE SMOOTH",
"99 443 OFFCURVE",
"53 381 OFFCURVE",
"53 215 CURVE SMOOTH",
"53 49 OFFCURVE",
"99 -13 OFFCURVE",
"295 -13 CURVE SMOOTH",
"356 -13 OFFCURVE",
"437 17 OFFCURVE",
"489 78 CURVE",
"471 163 LINE",
"471 163 OFFCURVE",
"407 72 OFFCURVE",
"295 72 CURVE",
"159 72 OFFCURVE",
"143 104 OFFCURVE",
"143 215 CURVE SMOOTH",
"143 326 OFFCURVE",
"159 359 OFFCURVE",
"295 358 CURVE SMOOTH",
"413 357 OFFCURVE",
"456 214 OFFCURVE",
"478 204 CURVE"
);
},
{
closed = 1;
nodes = (
"449 0 LINE",
"539 0 LINE",
"539 603 LINE",
"449 603 LINE"
);
}
);
width = 600;
},
{
associatedMasterId = "220D0E0B-3E90-41D6-A266-882B21BA5595";
layerId = "06D047BD-FA4A-4F3B-85AC-9F49FAEB4622";
paths = (
{
closed = 1;
nodes = (
"446 0 LINE",
"536 0 LINE",
"536 603 LINE",
"446 603 LINE"
);
},
{
closed = 1;
nodes = (
"536 304 LINE",
"501 346 OFFCURVE",
"404 449 OFFCURVE",
"300 449 CURVE SMOOTH",
"104 449 OFFCURVE",
"58 387 OFFCURVE",
"58 221 CURVE SMOOTH",
"58 55 OFFCURVE",
"104 -7 OFFCURVE",
"300 -7 CURVE SMOOTH",
"404 -7 OFFCURVE",
"501 96 OFFCURVE",
"536 138 CURVE",
"508 212 LINE",
"487 190 OFFCURVE",
"369 78 OFFCURVE",
"300 78 CURVE SMOOTH",
"164 78 OFFCURVE",
"148 110 OFFCURVE",
"148 221 CURVE SMOOTH",
"148 332 OFFCURVE",
"164 364 OFFCURVE",
"300 364 CURVE SMOOTH",
"369 364 OFFCURVE",
"487 252 OFFCURVE",
"508 230 CURVE"
);
}
);
width = 600;
}
);
unicode = 0064;
},
{
glyphname = e;
lastChange = "2018-06-11 00:11:37 +0200";
layers = (
{
associatedMasterId = "220D0E0B-3E90-41D6-A266-882B21BA5595";
layerId = "3686E9EE-9B6D-40BC-89BF-C61F8B008E08";
paths = (
{
closed = 1;
nodes = (
"36 108 OFFCURVE",
"132 -12 OFFCURVE",
"307 -12 CURVE SMOOTH",
"427 -12 OFFCURVE",
"566 69 OFFCURVE",
"575 211 CURVE",
"524 230 LINE",
"524 118 OFFCURVE",
"411 40 OFFCURVE",
"307 40 CURVE SMOOTH",
"176 40 OFFCURVE",
"90 129 OFFCURVE",
"90 230 CURVE SMOOTH",
"90 237.878 OFFCURVE",
"90 246 OFFCURVE",
"91 253 CURVE",
"476 253 LINE",
"476 290 LINE SMOOTH",
"476 394 OFFCURVE",
"394 470 OFFCURVE",
"283 470 CURVE SMOOTH",
"122 470 OFFCURVE",
"36 376 OFFCURVE",
"36 230 CURVE SMOOTH"
);
},
{
closed = 1;
nodes = (
"131 377 OFFCURVE",
"195 418 OFFCURVE",
"283 418 CURVE SMOOTH",
"354 418 OFFCURVE",
"425 371 OFFCURVE",
"425 304 CURVE",
"103 305 LINE"
);
}
);
width = 600;
},
{
associatedMasterId = "220D0E0B-3E90-41D6-A266-882B21BA5595";
layerId = "B582A7A8-CC41-440E-9190-A14527356B9E";
paths = (
{
closed = 1;
nodes = (
"476 257 LINE SMOOTH",
"476 392 OFFCURVE",
"388 468 OFFCURVE",
"277 468 CURVE SMOOTH",
"116 468 OFFCURVE",
"35 376 OFFCURVE",
"35 230 CURVE SMOOTH",
"35 108 OFFCURVE",
"132 -12 OFFCURVE",
"307 -12 CURVE SMOOTH",
"427 -12 OFFCURVE",
"566 69 OFFCURVE",
"575 211 CURVE",
"524 230 LINE",
"524 118 OFFCURVE",
"411 40 OFFCURVE",
"307 40 CURVE SMOOTH",
"176 40 OFFCURVE",
"90 129 OFFCURVE",
"90 230 CURVE SMOOTH",
"90 345 OFFCURVE",
"165 414 OFFCURVE",
"277 414 CURVE SMOOTH",
"348 414 OFFCURVE",
"425 369 OFFCURVE",
"425 271 CURVE",
"427 217 LINE",
"476 216 LINE"
);
},
{
closed = 1;
nodes = (
"56 177 LINE",
"476 177 LINE",
"476 229 LINE",
"56 229 LINE"
);
}
);
width = 600;
},
{
associatedMasterId = "220D0E0B-3E90-41D6-A266-882B21BA5595";
layerId = "034D9EEC-DDA2-42BE-80CA-263D92C7895D";
width = 600;
},
{
associatedMasterId = "220D0E0B-3E90-41D6-A266-882B21BA5595";
guideLines = (
{
angle = 270;
position = "{77, 205}";
}
);
hints = (
{
place = "{-40.000000, 21.000000}";
}
);
layerId = "A0F75A14-E697-40B9-9508-1F3C67CD8FFD";
paths = (
{
closed = 1;
nodes = (
"512 420 OFFCURVE",
"467 456 OFFCURVE",
"292 459 CURVE SMOOTH",
"100 462 OFFCURVE",
"81 380 OFFCURVE",
"81 226 CURVE SMOOTH",
"81 33 OFFCURVE",
"104 -12 OFFCURVE",
"292 -12 CURVE SMOOTH",
"375 -12 OFFCURVE",
"448 0 OFFCURVE",
"502 76 CURVE",
"472 113 LINE",
"408 43 OFFCURVE",
"366 38 OFFCURVE",
"292 38 CURVE SMOOTH",
"153 38 OFFCURVE",
"131 85 OFFCURVE",
"131 226 CURVE SMOOTH",
"131 382 OFFCURVE",
"140 407 OFFCURVE",
"292 407 CURVE SMOOTH",
"405 407 OFFCURVE",
"461 421 OFFCURVE",
"470 251 CURVE",
"519 250 LINE"
);
},
{
closed = 1;
nodes = (
"99 202 LINE",
"519 202 LINE",
"519 254 LINE",
"99 254 LINE"
);
}
);
width = 600;
},
{
associatedMasterId = "220D0E0B-3E90-41D6-A266-882B21BA5595";
guideLines = (
{
angle = 270;
position = "{77, 205}";
}
);
hints = (
{
place = "{-40.000000, 21.000000}";
}
);
layerId = "196033B4-BD7B-4DA8-BFE8-F1CACCA3148B";
paths = (
{
closed = 1;
nodes = (
"512 420 OFFCURVE",
"467 456 OFFCURVE",
"292 459 CURVE SMOOTH",
"100 462 OFFCURVE",
"81 380 OFFCURVE",
"81 226 CURVE SMOOTH",
"81 121 OFFCURVE",
"95 82 OFFCURVE",
"192 37 CURVE SMOOTH",
"229 20 OFFCURVE",
"290 0 OFFCURVE",
"380 0 CURVE SMOOTH",
"380 0 OFFCURVE",
"512 0 OFFCURVE",
"512 0 CURVE",
"512 50 LINE",
"512 50 OFFCURVE",
"380 50 OFFCURVE",
"380 50 CURVE SMOOTH",
"287 50 OFFCURVE",
"262 63 OFFCURVE",
"215 82 CURVE SMOOTH",
"121 121 OFFCURVE",
"131 164 OFFCURVE",
"131 226 CURVE SMOOTH",
"131 382 OFFCURVE",
"140 407 OFFCURVE",
"292 407 CURVE SMOOTH",
"405 407 OFFCURVE",
"461 421 OFFCURVE",
"470 251 CURVE",
"519 250 LINE"
);
},
{
closed = 1;
nodes = (
"99 202 LINE",
"519 202 LINE",
"519 254 LINE",
"99 254 LINE"
);
}
);
width = 600;
},
{
associatedMasterId = "220D0E0B-3E90-41D6-A266-882B21BA5595";
guideLines = (
{
angle = 270;
position = "{77, 205}";
}
);
hints = (
{
place = "{-40.000000, 21.000000}";
}
);
layerId = "91C6B9E2-1F3A-4949-B2CD-12D02DF87640";
paths = (
{
closed = 1;
nodes = (
"512 396 OFFCURVE",
"467 432 OFFCURVE",
"292 435 CURVE SMOOTH",
"100 438 OFFCURVE",
"81 380 OFFCURVE",
"81 226 CURVE SMOOTH",
"81 121 OFFCURVE",
"95 82 OFFCURVE",
"192 37 CURVE SMOOTH",
"229 20 OFFCURVE",
"290 0 OFFCURVE",
"380 0 CURVE SMOOTH",
"380 0 OFFCURVE",
"512 0 OFFCURVE",
"512 0 CURVE",
"512 50 LINE",
"512 50 OFFCURVE",
"380 50 OFFCURVE",
"380 50 CURVE SMOOTH",
"287 50 OFFCURVE",
"262 63 OFFCURVE",
"215 82 CURVE SMOOTH",
"121 121 OFFCURVE",
"131 164 OFFCURVE",
"131 226 CURVE SMOOTH",
"131 382 OFFCURVE",
"140 383 OFFCURVE",
"292 383 CURVE SMOOTH",
"405 383 OFFCURVE",
"461 397 OFFCURVE",
"470 227 CURVE",
"519 226 LINE"
);
},
{
closed = 1;
nodes = (
"99 178 LINE",
"519 178 LINE",
"519 230 LINE",
"99 230 LINE"
);
}
);
width = 600;
},
{
associatedMasterId = "220D0E0B-3E90-41D6-A266-882B21BA5595";
guideLines = (
{
angle = 270;
position = "{77, 205}";
}
);
hints = (
{
place = "{-40.000000, 21.000000}";
}
);
layerId = "28F8F7F5-F61F-4062-9B8C-1C71D60B6ED5";
paths = (
{
closed = 1;
nodes = (
"512 396 OFFCURVE",
"467 432 OFFCURVE",
"292 435 CURVE SMOOTH",
"100 438 OFFCURVE",
"88 380 OFFCURVE",
"81 226 CURVE SMOOTH",
"77 143 OFFCURVE",
"118 76 OFFCURVE",
"174 41 CURVE SMOOTH",
"209 19 OFFCURVE",
"240 0 OFFCURVE",
"330 0 CURVE SMOOTH",
"330 0 OFFCURVE",
"512 0 OFFCURVE",
"512 0 CURVE",
"512 50 LINE",
"512 50 OFFCURVE",
"330 50 OFFCURVE",
"330 50 CURVE SMOOTH",
"255 50 OFFCURVE",
"217 69 OFFCURVE",
"187 94 CURVE SMOOTH",
"147 128 OFFCURVE",
"131 165 OFFCURVE",
"131 226 CURVE SMOOTH",
"131 382 OFFCURVE",
"140 383 OFFCURVE",
"292 383 CURVE SMOOTH",
"405 383 OFFCURVE",
"461 397 OFFCURVE",
"470 227 CURVE",
"519 226 LINE"
);
},
{
closed = 1;
nodes = (
"99 178 LINE",
"519 178 LINE",
"519 230 LINE",
"99 230 LINE"
);
}
);
width = 600;
},
{
associatedMasterId = "220D0E0B-3E90-41D6-A266-882B21BA5595";
guideLines = (
{
angle = 270;
position = "{77, 205}";
}
);
hints = (
{
place = "{-40.000000, 21.000000}";
}
);
layerId = "C7A26D76-12FA-4F3C-B54B-DDF693DBC4D8";
paths = (
{
closed = 1;
nodes = (
"532 396 OFFCURVE",
"517 431 OFFCURVE",
"302 434 CURVE SMOOTH",
"110 437 OFFCURVE",
"68 380 OFFCURVE",
"61 226 CURVE SMOOTH",
"57 143 OFFCURVE",
"98 76 OFFCURVE",
"154 41 CURVE SMOOTH",
"189 19 OFFCURVE",
"220 0 OFFCURVE",
"310 0 CURVE SMOOTH",
"310 0 OFFCURVE",
"525 0 OFFCURVE",
"525 0 CURVE",
"525 50 LINE",
"525 50 OFFCURVE",
"310 50 OFFCURVE",
"310 50 CURVE SMOOTH",
"235 50 OFFCURVE",
"197 69 OFFCURVE",
"167 94 CURVE SMOOTH",
"127 128 OFFCURVE",
"111 165 OFFCURVE",
"111 226 CURVE SMOOTH",
"111 382 OFFCURVE",
"155 384 OFFCURVE",
"302 384 CURVE SMOOTH",
"459 384 OFFCURVE",
"481 397 OFFCURVE",
"490 227 CURVE",
"539 226 LINE"
);
},
{
closed = 1;
nodes = (
"79 179 LINE",
"539 179 LINE",
"539 229 LINE",
"79 229 LINE"
);
}
);
width = 600;
},
{
associatedMasterId = "220D0E0B-3E90-41D6-A266-882B21BA5595";
guideLines = (
{
angle = 270;
position = "{77, 205}";
}
);
hints = (
{
place = "{-40.000000, 21.000000}";
}
);
layerId = "D8A2EEA1-D18A-4665-A9CF-F1ACB098CCFD";
paths = (
{
closed = 1;
nodes = (
"537 375 OFFCURVE",
"517 431 OFFCURVE",
"302 434 CURVE SMOOTH",
"110 437 OFFCURVE",
"68 380 OFFCURVE",
"61 226 CURVE SMOOTH",
"57 143 OFFCURVE",
"98 76 OFFCURVE",
"154 41 CURVE SMOOTH",
"189 19 OFFCURVE",
"220 0 OFFCURVE",
"310 0 CURVE SMOOTH",
"310 0 OFFCURVE",
"525 0 OFFCURVE",
"525 0 CURVE",
"525 50 LINE",
"525 50 OFFCURVE",
"310 50 OFFCURVE",
"310 50 CURVE SMOOTH",
"235 50 OFFCURVE",
"197 69 OFFCURVE",
"167 94 CURVE SMOOTH",
"127 128 OFFCURVE",
"111 165 OFFCURVE",
"111 226 CURVE SMOOTH",
"111 382 OFFCURVE",
"155 384 OFFCURVE",
"302 384 CURVE SMOOTH",
"459 384 OFFCURVE",
"486 376 OFFCURVE",
"490 187 CURVE",
"539 186 LINE"
);
},
{
closed = 1;
nodes = (
"79 147 LINE",
"539 147 LINE",
"539 197 LINE",
"79 197 LINE"
);
}
);
width = 600;
},
{
associatedMasterId = "220D0E0B-3E90-41D6-A266-882B21BA5595";
guideLines = (
{
angle = 270;
position = "{77, 205}";
}
);
hints = (
{
place = "{-40.000000, 21.000000}";
}
);
layerId = "20729C72-B938-42A4-8A9A-0E883A210378";
paths = (
{
closed = 1;
nodes = (
"537 375 OFFCURVE",
"525 431 OFFCURVE",
"310 434 CURVE SMOOTH",
"118 437 OFFCURVE",
"68 380 OFFCURVE",
"61 226 CURVE SMOOTH",
"54 88 OFFCURVE",
"160 0 OFFCURVE",
"310 0 CURVE SMOOTH",
"310 0 OFFCURVE",
"525 0 OFFCURVE",
"525 0 CURVE",
"525 50 LINE",
"525 50 OFFCURVE",
"310 50 OFFCURVE",
"310 50 CURVE SMOOTH",
"196 50 OFFCURVE",
"111 112 OFFCURVE",
"111 226 CURVE SMOOTH",
"111 382 OFFCURVE",
"163 384 OFFCURVE",
"310 384 CURVE SMOOTH",
"467 384 OFFCURVE",
"486 376 OFFCURVE",
"490 187 CURVE",
"539 186 LINE"
);
},
{
closed = 1;
nodes = (
"79 147 LINE",
"539 147 LINE",
"539 197 LINE",
"79 197 LINE"
);
}
);
width = 600;
},
{
associatedMasterId = "220D0E0B-3E90-41D6-A266-882B21BA5595";
guideLines = (
{
angle = 270;
position = "{77, 205}";
}
);
hints = (
{
place = "{-40.000000, 21.000000}";
}
);
layerId = "4DEA04C0-FB6E-48C6-9B25-CBD5CDB6EF8D";
paths = (
{
closed = 1;
nodes = (
"478 167 OFFCURVE",
"505 184 OFFCURVE",
"505 305 CURVE SMOOTH",
"505 427 OFFCURVE",
"404 432 OFFCURVE",
"280 434 CURVE SMOOTH",
"72 437 OFFCURVE",
"31 380 OFFCURVE",
"31 226 CURVE SMOOTH",
"31 88 OFFCURVE",
"130 0 OFFCURVE",
"280 0 CURVE SMOOTH",
"280 0 OFFCURVE",
"510 0 OFFCURVE",
"510 0 CURVE",
"510 50 LINE",
"510 50 OFFCURVE",
"280 50 OFFCURVE",
"280 50 CURVE SMOOTH",
"166 50 OFFCURVE",
"81 112 OFFCURVE",
"81 226 CURVE SMOOTH",
"81 382 OFFCURVE",
"133 384 OFFCURVE",
"280 384 CURVE SMOOTH",
"380 384 OFFCURVE",
"455 380 OFFCURVE",
"455 305 CURVE SMOOTH",
"455 228 OFFCURVE",
"456 217 OFFCURVE",
"390 217 CURVE",
"390 167 LINE"
);
},
{
closed = 1;
nodes = (
"49 167 LINE",
"390 167 LINE",
"390 217 LINE",
"49 217 LINE"
);
}
);
width = 600;
},
{
associatedMasterId = "220D0E0B-3E90-41D6-A266-882B21BA5595";
guideLines = (
{
angle = 270;
position = "{77, 205}";
}
);
hints = (
{
place = "{-40.000000, 21.000000}";
}
);
layerId = "7CD499A1-E796-4252-9CE4-A195A21FFE5D";
paths = (
{
closed = 1;
nodes = (
"566 142 OFFCURVE",
"538 191 OFFCURVE",
"538 303 CURVE SMOOTH",
"538 429 OFFCURVE",
"407 441 OFFCURVE",
"310 443 CURVE",
"108 446 OFFCURVE",
"41 375 OFFCURVE",
"41 226 CURVE",
"41 100 OFFCURVE",
"152 1 OFFCURVE",
"310 1 CURVE",
"310 1 OFFCURVE",
"540 1 OFFCURVE",
"540 1 CURVE",
"540 91 LINE",
"540 91 OFFCURVE",
"310 91 OFFCURVE",
"310 91 CURVE",
"205 91 OFFCURVE",
"131 124 OFFCURVE",
"131 226 CURVE",
"131 352 OFFCURVE",
"163 353 OFFCURVE",
"310 353 CURVE",
"407 353 OFFCURVE",
"465 348 OFFCURVE",
"465 294 CURVE",
"465 223 OFFCURVE",
"464 241 OFFCURVE",
"400 236 CURVE",
"400 147 LINE"
);
},
{
closed = 1;
nodes = (
"59 147 LINE",
"436 147 LINE",
"440 237 LINE",
"59 237 LINE"
);
}
);
width = 600;
},
{
associatedMasterId = "220D0E0B-3E90-41D6-A266-882B21BA5595";
guideLines = (
{
angle = 270;
position = "{77, 205}";
}
);
hints = (
{
place = "{-40.000000, 21.000000}";
}
);
layerId = "0D2F0ACE-E7F9-43A4-9EC9-0A0E2D853FC7";
paths = (
{
closed = 1;
nodes = (
"451 125 LINE",
"435 86 OFFCURVE",
"395 76 OFFCURVE",
"308 76 CURVE SMOOTH",
"172 76 OFFCURVE",
"153 105 OFFCURVE",
"153 216 CURVE SMOOTH",
"153 327 OFFCURVE",
"180 342 OFFCURVE",
"238 359 CURVE SMOOTH",
"293 375 OFFCURVE",
"458 364 OFFCURVE",
"458 297 CURVE SMOOTH",
"458 251 OFFCURVE",
"417 257 OFFCURVE",
"365 257 CURVE SMOOTH",
"297 257 OFFCURVE",
"199 257 OFFCURVE",
"125 257 CURVE",
"125 167 LINE",
"185 167 OFFCURVE",
"353 167 OFFCURVE",
"434 167 CURVE SMOOTH",
"525 167 OFFCURVE",
"548 224 OFFCURVE",
"548 293 CURVE SMOOTH",
"548 372 OFFCURVE",
"525 447 OFFCURVE",
"305 447 CURVE SMOOTH",
"109 447 OFFCURVE",
"63 382 OFFCURVE",
"63 216 CURVE SMOOTH",
"63 50 OFFCURVE",
"112 -15 OFFCURVE",
"308 -15 CURVE SMOOTH",
"463 -15 OFFCURVE",
"522 27 OFFCURVE",
"541 125 CURVE"
);
}
);
width = 627;
},
{
associatedMasterId = "220D0E0B-3E90-41D6-A266-882B21BA5595";
guideLines = (
{
angle = 270;
position = "{77, 205}";
}
);
hints = (
{
place = "{-40.000000, 21.000000}";
}
);
layerId = "2790EA6F-E581-40D5-A3F9-65C1D3756D59";
paths = (
{
closed = 1;
nodes = (
"451 125 LINE",
"435 86 OFFCURVE",
"395 76 OFFCURVE",
"308 76 CURVE SMOOTH",
"172 76 OFFCURVE",
"153 105 OFFCURVE",
"153 216 CURVE SMOOTH",
"153 327 OFFCURVE",
"180 342 OFFCURVE",
"238 359 CURVE SMOOTH",
"293 375 OFFCURVE",
"458 364 OFFCURVE",
"458 297 CURVE SMOOTH",
"458 251 OFFCURVE",
"417 257 OFFCURVE",
"365 257 CURVE SMOOTH",
"297 257 OFFCURVE",
"199 257 OFFCURVE",
"125 257 CURVE",
"125 167 LINE",
"185 167 OFFCURVE",
"353 167 OFFCURVE",
"434 167 CURVE SMOOTH",
"525 167 OFFCURVE",
"548 224 OFFCURVE",
"548 293 CURVE SMOOTH",
"548 372 OFFCURVE",
"525 447 OFFCURVE",
"305 447 CURVE SMOOTH",
"109 447 OFFCURVE",
"63 382 OFFCURVE",
"63 216 CURVE SMOOTH",
"63 50 OFFCURVE",
"112 -15 OFFCURVE",
"308 -15 CURVE SMOOTH",
"463 -15 OFFCURVE",
"522 27 OFFCURVE",
"541 125 CURVE"
);
}
);
width = 627;
},
{
anchors = (
{
name = top;
position = "{310, 443}";
}
);
hints = (
{
place = "{-40.000000, 21.000000}";
}
);
layerId = "220D0E0B-3E90-41D6-A266-882B21BA5595";
name = Bold;
paths = (
{
closed = 1;
nodes = (
"555 261 LINE",
"546 393 OFFCURVE",
"490 443 OFFCURVE",
"314 443 CURVE SMOOTH",
"118 443 OFFCURVE",
"72 381 OFFCURVE",
"72 215 CURVE SMOOTH",
"72 49 OFFCURVE",
"118 -13 OFFCURVE",
"314 -13 CURVE SMOOTH",
"474 -13 OFFCURVE",
"534 28 OFFCURVE",
"551 134 CURVE",
"459 134 LINE",
"445 87 OFFCURVE",
"408 72 OFFCURVE",
"314 72 CURVE SMOOTH",
"195 72 OFFCURVE",
"168 96 OFFCURVE",
"163 176 CURVE",
"555 176 LINE"
);
},
{
closed = 1;
nodes = (
"164 261 LINE",
"170 335 OFFCURVE",
"199 358 OFFCURVE",
"314 358 CURVE SMOOTH",
"429 358 OFFCURVE",
"459 335 OFFCURVE",
"465 261 CURVE"
);
}
);
width = 627;
},
{
associatedMasterId = "220D0E0B-3E90-41D6-A266-882B21BA5595";
layerId = "DFE8F7EC-62E1-4714-AC20-5817034F21DE";
width = 600;
},
{
associatedMasterId = "220D0E0B-3E90-41D6-A266-882B21BA5595";
guideLines = (
{
angle = 270;
position = "{77, 205}";
}
);
hints = (
{
place = "{-40.000000, 21.000000}";
}
);
layerId = "577B8C4F-5151-4085-B41D-25FD930A2FE9";
paths = (
{
closed = 1;
nodes = (
"467 142 LINE",
"447 67 OFFCURVE",
"392 72 OFFCURVE",
"305 72 CURVE SMOOTH",
"169 72 OFFCURVE",
"153 104 OFFCURVE",
"153 215 CURVE SMOOTH",
"153 326 OFFCURVE",
"169 358 OFFCURVE",
"305 358 CURVE SMOOTH",
"414 358 OFFCURVE",
"446 338 OFFCURVE",
"454 273 CURVE",
"545 273 LINE",
"533 396 OFFCURVE",
"476 443 OFFCURVE",
"305 443 CURVE SMOOTH",
"109 443 OFFCURVE",
"63 381 OFFCURVE",
"63 215 CURVE SMOOTH",
"63 49 OFFCURVE",
"109 -13 OFFCURVE",
"305 -13 CURVE SMOOTH",
"460 -13 OFFCURVE",
"521 26 OFFCURVE",
"540 124 CURVE"
);
},
{
closed = 1;
nodes = (
"115 183 LINE",
"545 183 LINE",
"545 273 LINE",
"115 273 LINE"
);
}
);
width = 627;
},
{
associatedMasterId = "220D0E0B-3E90-41D6-A266-882B21BA5595";
guideLines = (
{
angle = 270;
position = "{77, 205}";
}
);
hints = (
{
place = "{-40.000000, 21.000000}";
}
);
layerId = "41E5D029-C1D8-4F2E-8391-89F8C152B4DD";
paths = (
{
closed = 1;
nodes = (
"116 171 LINE",
"546 171 LINE",
"546 261 LINE",
"116 261 LINE"
);
},
{
closed = 1;
nodes = (
"546 261 LINE",
"537 393 OFFCURVE",
"481 443 OFFCURVE",
"305 443 CURVE SMOOTH",
"109 443 OFFCURVE",
"63 381 OFFCURVE",
"63 215 CURVE SMOOTH",
"63 49 OFFCURVE",
"109 -13 OFFCURVE",
"305 -13 CURVE SMOOTH",
"465 -13 OFFCURVE",
"525 28 OFFCURVE",
"542 134 CURVE",
"450 134 LINE",
"436 87 OFFCURVE",
"399 72 OFFCURVE",
"305 72 CURVE SMOOTH",
"169 72 OFFCURVE",
"153 104 OFFCURVE",
"153 215 CURVE SMOOTH",
"153 326 OFFCURVE",
"169 358 OFFCURVE",
"305 358 CURVE SMOOTH",
"420 358 OFFCURVE",
"450 335 OFFCURVE",
"456 261 CURVE"
);
}
);
width = 627;
},
{
anchors = (
{
name = top;
position = "{516, 510}";
}
);
associatedMasterId = "220D0E0B-3E90-41D6-A266-882B21BA5595";
guideLines = (
{
angle = 270;
position = "{77, 205}";
}
);
hints = (
{
place = "{-40.000000, 21.000000}";
}
);
layerId = "6E1E0CEF-7565-4E8D-8D5C-816D8BAF2EAD";
paths = (
{
closed = 1;
nodes = (
"129 176 LINE",
"559 176 LINE",
"559 261 LINE",
"129 261 LINE"
);
},
{
closed = 1;
nodes = (
"559 261 LINE",
"550 393 OFFCURVE",
"494 443 OFFCURVE",
"318 443 CURVE SMOOTH",
"122 443 OFFCURVE",
"76 381 OFFCURVE",
"76 215 CURVE SMOOTH",
"76 49 OFFCURVE",
"122 -13 OFFCURVE",
"318 -13 CURVE SMOOTH",
"478 -13 OFFCURVE",
"538 28 OFFCURVE",
"555 134 CURVE",
"463 134 LINE",
"449 87 OFFCURVE",
"412 72 OFFCURVE",
"318 72 CURVE SMOOTH",
"182 72 OFFCURVE",
"166 104 OFFCURVE",
"166 215 CURVE SMOOTH",
"166 326 OFFCURVE",
"182 358 OFFCURVE",
"318 358 CURVE SMOOTH",
"433 358 OFFCURVE",
"463 335 OFFCURVE",
"469 261 CURVE"
);
}
);
width = 627;
}
);
unicode = 0065;
},
{
glyphname = f;
lastChange = "2018-06-11 00:11:37 +0200";
layers = (
{
associatedMasterId = "220D0E0B-3E90-41D6-A266-882B21BA5595";
layerId = "9B0E37C5-615A-42E8-A476-4933E033C605";
paths = (
{
closed = 1;
nodes = (
"171 -4 LINE",
"221 -4 LINE",
"221 463 LINE SMOOTH",
"221 499 OFFCURVE",
"233 540 OFFCURVE",
"280 540 CURVE SMOOTH",
"537 540 LINE",
"537 590 LINE",
"278 590 LINE SMOOTH",
"220 590 OFFCURVE",
"171 554 OFFCURVE",
"171 483 CURVE SMOOTH"
);
},
{
closed = 1;
nodes = (
"71 379 LINE",
"477 379 LINE",
"477 429 LINE",
"71 429 LINE"
);
}
);
width = 600;
},
{
associatedMasterId = "220D0E0B-3E90-41D6-A266-882B21BA5595";
layerId = "FC42CF7B-3203-4DEF-A639-D964016D1DA2";
paths = (
{
closed = 1;
nodes = (
"171 -4 LINE",
"221 -4 LINE",
"221 343 LINE SMOOTH",
"221 421 OFFCURVE",
"247 540 OFFCURVE",
"378 540 CURVE SMOOTH",
"537 540 LINE",
"537 590 LINE",
"374 590 LINE SMOOTH",
"232 590 OFFCURVE",
"171 476 OFFCURVE",
"171 363 CURVE SMOOTH"
);
},
{
closed = 1;
nodes = (
"71 379 LINE",
"477 379 LINE",
"477 429 LINE",
"71 429 LINE"
);
}
);
width = 600;
},
{
associatedMasterId = "220D0E0B-3E90-41D6-A266-882B21BA5595";
layerId = "DFE8F7EC-62E1-4714-AC20-5817034F21DE";
width = 600;
},
{
associatedMasterId = "220D0E0B-3E90-41D6-A266-882B21BA5595";
layerId = "0A8F1D77-96DB-4EE8-A311-3C2384D69998";
paths = (
{
closed = 1;
nodes = (
"151 0 LINE",
"241 0 LINE",
"241 324 LINE",
"241 398 OFFCURVE",
"265 501 OFFCURVE",
"378 501 CURVE",
"557 501 LINE",
"557 591 LINE",
"374 591 LINE",
"220 591 OFFCURVE",
"151 462 OFFCURVE",
"151 344 CURVE"
);
},
{
closed = 1;
nodes = (
"51 340 LINE",
"497 340 LINE",
"497 430 LINE",
"51 430 LINE"
);
}
);
width = 600;
},
{
associatedMasterId = "220D0E0B-3E90-41D6-A266-882B21BA5595";
layerId = "F825B1D6-E5A3-4020-827B-6E030530E3FE";
paths = (
{
closed = 1;
nodes = (
"151 0 LINE",
"241 0 LINE",
"241 324 LINE",
"241 398 OFFCURVE",
"265 501 OFFCURVE",
"378 501 CURVE",
"557 501 LINE",
"557 591 LINE",
"374 591 LINE",
"220 591 OFFCURVE",
"151 462 OFFCURVE",
"151 344 CURVE"
);
},
{
closed = 1;
nodes = (
"51 345 LINE",
"497 345 LINE",
"497 430 LINE",
"51 430 LINE"
);
}
);
width = 600;
},
{
associatedMasterId = "220D0E0B-3E90-41D6-A266-882B21BA5595";
layerId = "C9DE4571-0CF3-40FE-B3E8-FE6B6B66DD8E";
paths = (
{
closed = 1;
nodes = (
"51 345 LINE",
"497 345 LINE",
"497 430 LINE",
"51 430 LINE"
);
},
{
closed = 1;
nodes = (
"236 371 LINE",
"238 464 OFFCURVE",
"315 501 OFFCURVE",
"421 501 CURVE",
"457 501 OFFCURVE",
"546 500 OFFCURVE",
"546 500 CURVE",
"546 590 LINE",
"546 590 OFFCURVE",
"424 590 OFFCURVE",
"394 590 CURVE",
"278 590 OFFCURVE",
"150 542 OFFCURVE",
"146 378 CURVE",
"146 377 LINE",
"146 -1 LINE",
"236 -1 LINE"
);
}
);
width = 600;
},
{
associatedMasterId = "220D0E0B-3E90-41D6-A266-882B21BA5595";
layerId = "65889A3B-A024-4C80-B21C-49640AF15A1C";
paths = (
{
closed = 1;
nodes = (
"51 345 LINE",
"497 345 LINE",
"497 430 LINE",
"51 430 LINE"
);
},
{
closed = 1;
nodes = (
"236 371 LINE",
"238 464 OFFCURVE",
"256 501 OFFCURVE",
"362 501 CURVE",
"398 501 OFFCURVE",
"487 500 OFFCURVE",
"487 500 CURVE",
"487 590 LINE",
"487 590 OFFCURVE",
"365 590 OFFCURVE",
"335 590 CURVE",
"233 590 OFFCURVE",
"150 542 OFFCURVE",
"146 378 CURVE",
"146 377 LINE",
"146 -1 LINE",
"236 -1 LINE"
);
}
);
width = 600;
},
{
associatedMasterId = "220D0E0B-3E90-41D6-A266-882B21BA5595";
layerId = "913339D9-FD6E-40D1-B4E0-BE3789229B67";
paths = (
{
closed = 1;
nodes = (
"63 345 LINE",
"545 345 LINE",
"545 430 LINE",
"63 430 LINE"
);
},
{
closed = 1;
nodes = (
"284 371 LINE",
"286 464 OFFCURVE",
"304 501 OFFCURVE",
"410 501 CURVE",
"543 501 LINE",
"543 591 LINE",
"543 591 OFFCURVE",
"413 590 OFFCURVE",
"383 590 CURVE",
"281 590 OFFCURVE",
"198 542 OFFCURVE",
"194 378 CURVE",
"194 377 LINE",
"194 -1 LINE",
"284 -1 LINE"
);
}
);
width = 600;
},
{
associatedMasterId = "220D0E0B-3E90-41D6-A266-882B21BA5595";
layerId = "9CA34EDC-02CB-4F3C-A1FC-EFE85CCD1AF8";
paths = (
{
closed = 1;
nodes = (
"63 345 LINE",
"475 345 LINE",
"475 430 LINE",
"63 430 LINE"
);
},
{
closed = 1;
nodes = (
"284 371 LINE",
"286 464 OFFCURVE",
"304 501 OFFCURVE",
"410 501 CURVE",
"446 501 OFFCURVE",
"543 501 OFFCURVE",
"543 501 CURVE",
"543 591 LINE",
"543 591 OFFCURVE",
"413 590 OFFCURVE",
"383 590 CURVE",
"281 590 OFFCURVE",
"198 542 OFFCURVE",
"194 378 CURVE",
"194 377 LINE",
"194 -1 LINE",
"284 -1 LINE"
);
}
);
width = 600;
},
{
associatedMasterId = "220D0E0B-3E90-41D6-A266-882B21BA5595";
layerId = "AD2A4FE5-4FCD-45AE-9E2E-738D364F41CD";
paths = (
{
closed = 1;
nodes = (
"63 345 LINE",
"475 345 LINE",
"475 430 LINE",
"63 430 LINE"
);
},
{
closed = 1;
nodes = (
"284 371 LINE",
"286 464 OFFCURVE",
"304 501 OFFCURVE",
"410 501 CURVE",
"446 501 OFFCURVE",
"543 501 OFFCURVE",
"543 501 CURVE",
"543 591 LINE",
"543 591 OFFCURVE",
"413 590 OFFCURVE",
"383 590 CURVE",
"281 590 OFFCURVE",
"198 542 OFFCURVE",
"194 378 CURVE",
"194 377 LINE",
"194 -1 LINE",
"284 -1 LINE"
);
}
);
width = 600;
},
{
layerId = "220D0E0B-3E90-41D6-A266-882B21BA5595";
name = Bold;
paths = (
{
closed = 1;
nodes = (
"559 542 LINE",
"559 542 OFFCURVE",
"453 590 OFFCURVE",
"370 590 CURVE SMOOTH",
"288 590 OFFCURVE",
"205 547 OFFCURVE",
"183 430 CURVE",
"41 430 LINE",
"41 345 LINE",
"178 345 LINE",
"178 -1 LINE",
"268 -1 LINE",
"268 345 LINE",
"531 345 LINE",
"531 430 LINE",
"277 430 LINE",
"292 477 OFFCURVE",
"327 502 OFFCURVE",
"384 502 CURVE SMOOTH",
"439 502 OFFCURVE",
"526 465 OFFCURVE",
"527 463 CURVE"
);
}
);
width = 600;
},
{
associatedMasterId = "220D0E0B-3E90-41D6-A266-882B21BA5595";
layerId = "AE14BC45-7A5B-475D-B829-CC7B232E6B59";
paths = (
{
closed = 1;
nodes = (
"59 345 LINE",
"539 345 LINE",
"539 430 LINE",
"59 430 LINE"
);
},
{
closed = 1;
nodes = (
"280 371 LINE",
"282 455 OFFCURVE",
"318 502 OFFCURVE",
"396 502 CURVE SMOOTH",
"452 502 OFFCURVE",
"518 482 OFFCURVE",
"519 481 CURVE",
"548 560 LINE",
"548 560 OFFCURVE",
"465 590 OFFCURVE",
"382 590 CURVE",
"289 590 OFFCURVE",
"194 535 OFFCURVE",
"190 378 CURVE",
"190 377 LINE",
"190 -1 LINE",
"280 -1 LINE"
);
}
);
width = 600;
}
);
unicode = 0066;
},
